<?xml version="1.0" encoding="UTF-8"?>
<svg id="Layer_1" data-name="Layer 1" xmlns="http://www.w3.org/2000/svg" viewBox="0 0 6640.94 6313.41">
  <defs>
    <style>
      .cls-1 {
        fill: #273776;
        opacity: .47;
        stroke-width: 0px;
      }
    </style>
  </defs>
  <path class="cls-1" d="M1716.7,0C768.59,0,0,768.59,0,1716.7s768.59,1716.71,1716.7,1716.71,1716.71-768.6,1716.71-1716.71S2664.81,0,1716.7,0ZM1716.7,3049.41c-736.03,0-1332.7-596.68-1332.7-1332.71S980.67,384,1716.7,384s1332.71,596.67,1332.71,1332.7-596.67,1332.71-1332.71,1332.71Z"/>
  <path class="cls-1" d="M4924.23,2880c-948.11,0-1716.7,768.59-1716.7,1716.7s768.59,1716.71,1716.7,1716.71,1716.71-768.6,1716.71-1716.71-768.6-1716.7-1716.71-1716.7ZM4924.23,5929.41c-736.03,0-1332.7-596.68-1332.7-1332.71s596.67-1332.7,1332.7-1332.7,1332.71,596.67,1332.71,1332.7-596.67,1332.71-1332.71,1332.71Z"/>
</svg>