<?xml version="1.0" encoding="utf-8"?>
<!-- Generator: Adobe Illustrator 28.2.0, SVG Export Plug-In . SVG Version: 6.00 Build 0)  -->
<svg version="1.1" id="Layer_1" xmlns="http://www.w3.org/2000/svg" xmlns:xlink="http://www.w3.org/1999/xlink" x="0px" y="0px"
	 viewBox="0 0 768 6911" style="enable-background:new 0 0 768 6911;" xml:space="preserve">
<style type="text/css">
	.st0{opacity:0.38;fill:#EF7822;}
</style>
<path class="st0" d="M918.93,1014.29h-0.49c-19.67-24.91-38.95-50.41-58.18-75.82c-63.44-83.88-126.18-166.84-199.65-224.59
	c-169.42-133.15-396.03-132.22-820.13,300.41h-0.54c424.47-433.09,651.31-434,820.91-300.7c73.52,57.78,136.27,140.76,199.72,224.66
	C879.86,963.73,899.21,989.31,918.93,1014.29 M935.64,1014.29h-0.51c-25.1-29.13-49.69-59.37-74.25-89.59
	c-68.18-83.85-136.13-167.43-214.03-226.12c-182.68-137.62-420.13-138.23-843.52,315.7h-0.52c423.74-454.4,661.42-453.77,844.29-316
	C725.03,757,793,840.6,861.19,924.47C885.82,954.76,910.47,985.09,935.64,1014.29z M955.32,1014.29h-0.53
	c-30.9-32.98-61.23-67.85-91.63-102.79c-73.31-84.28-147.03-169.01-230.07-228.79c-196.52-141.47-445.4-143.12-865.19,331.58h-0.52
	C187.5,539.12,436.61,540.8,633.32,682.41c83.08,59.81,156.8,144.55,230.14,228.85C893.93,946.29,924.34,981.24,955.32,1014.29z
	 M977.98,1014.29h-0.55c-36.98-36.38-73.44-75.72-110.15-115.34c-79-85.25-159.21-171.8-248.33-232.89
	C408.12,521.54,147.29,519.6-265.78,1014.29h-0.5C147.09,519.14,408.15,521.1,619.18,665.76c89.15,61.11,169.38,147.68,248.4,232.94
	C904.38,938.41,940.92,977.84,977.98,1014.29z M993.07,1004.59v0.52c-39.8-36.81-79.43-77.12-119.56-117.94
	C788.1,800.3,700.41,711.11,604.03,648.45c-225.5-146.59-498.65-147.79-901.64,365.84h-0.49
	C105.17,500.2,378.55,501.42,604.24,648.14c96.42,62.68,184.12,151.89,269.55,238.78C913.84,927.64,953.38,967.86,993.07,1004.59z
	 M993.07,980.19v0.51c-36.58-32.79-73.45-68.28-110.94-104.37c-92.72-89.26-189.2-182.13-294.33-246.64
	C347.47,482.2,61.86,483.06-327.52,1014.29H-328C61.64,482.6,347.47,481.76,588.02,629.37C693.18,693.9,789.67,786.8,882.41,876.07
	C919.8,912.06,956.58,947.47,993.07,980.19z M993.07,955.72v0.51c-32.61-28.36-65.76-58.69-99.57-89.61
	c-101.11-92.49-208.06-190.32-323.79-257C314.56,462.6,16.67,467.09-355.43,1014.29h-0.47C16.44,466.64,314.55,462.15,569.92,609.3
	C685.68,676,792.65,773.84,893.78,866.34C927.49,897.18,960.55,927.42,993.07,955.72z M993.07,931.19v0.5
	c-27.72-23.43-56.05-48.15-84.97-73.39c-110.74-96.65-230.32-201.02-358.94-270.16c-269.76-145.03-579.3-135.08-930.4,426.15h-0.45
	c351.3-561.68,661.07-571.62,931.04-426.48C678,656.97,797.61,761.36,908.36,858.02C937.2,883.19,965.43,907.83,993.07,931.19z
	 M993.07,906.61v0.5c-21.71-17.84-43.91-36.41-66.56-55.36c-121.7-101.79-256.69-214.69-401.03-286.56
	c-283.85-141.32-603.9-123.85-930.26,449.1h-0.45C-78.68,440.9,241.6,423.43,525.66,564.85c144.38,71.88,279.39,184.8,401.11,286.61
	C949.33,870.33,971.44,888.83,993.07,906.61z M993.07,881.97v0.49c-14.26-11.41-28.77-23.1-43.53-34.99
	C815.57,739.56,661.6,615.54,498.05,540.81c-295.1-134.84-621.43-109.09-917.82,461.4v-0.85
	c296.44-570.1,622.82-595.77,917.99-460.9c163.59,74.75,317.58,198.79,451.58,306.71C964.47,859,978.9,870.63,993.07,881.97z
	 M993.07,857.29v0.48c-4.88-3.81-9.8-7.64-14.75-11.5c-147.26-114.9-324.94-253.54-512.07-331.14
	c-299.81-124.33-623.89-91.87-886.02,445.9v-0.89c262.2-537.34,586.32-569.71,886.18-445.36
	c187.18,77.62,364.88,216.27,512.16,331.19C983.44,849.78,988.27,853.55,993.07,857.29z M993.07,832.57v0.48
	c-157.54-119.8-356.68-267.89-563.54-344.67c-301.71-111.97-619.84-72.15-849.3,428.46v-0.92
	c229.55-500.13,547.7-539.87,849.44-427.89C636.48,564.79,835.56,712.79,993.07,832.57z M993.07,807.81v0.48
	c-166.16-123.34-383.76-275.03-605.65-347.4c-300.12-97.9-608.08-50.59-807.2,408.23v-0.97
	c199.23-458.3,507.19-505.51,807.32-407.61C609.39,532.88,826.92,684.48,993.07,807.81z M993.07,783.01v0.47
	c-192.34-139.47-460.08-313-719.86-366.6C1.85,360.89-260.81,435.83-419.77,817.17v-1C-260.69,435.35,1.95,360.52,273.3,416.51
	C533.05,470.11,800.72,643.55,993.07,783.01z M993.07,758.18v0.47C797.05,619.69,516.42,449.2,249.05,397.6
	c-270.17-52.13-526.78,17.18-668.82,363.18v-1.01C-277.58,414.31-21,345.11,249.12,397.23
	C516.46,448.82,797.03,619.23,993.07,758.18z M993.07,733.31v0.47C793.9,595.66,501.25,428.7,226.85,378.69
	c-106.98-19.5-211.19-21.22-305.99,3.47c-94.79,24.69-180.19,75.81-249.56,161.98c-34.62,43.01-65.25,94.75-91.07,156.3v-1
	c25.76-61.2,56.28-112.7,90.76-155.53c69.43-86.24,154.89-137.4,249.76-162.11c94.86-24.71,199.13-22.99,306.17-3.48
	C501.29,428.33,793.87,595.21,993.07,733.31z M993.07,708.42v0.46C780.66,564.7,455.39,391.7,162.59,353.34
	c-100.43-13.16-197.03-10.48-283.94,14.64c-86.9,25.12-164.11,72.67-225.76,149.25c-27.49,34.14-51.88,74.06-72.66,120.33v-0.95
	c20.72-45.96,45.01-85.64,72.36-119.61c61.71-76.65,138.98-124.24,225.96-149.38c86.96-25.14,183.62-27.82,284.1-14.65
	C455.41,391.33,780.62,564.24,993.07,708.42z M993.07,683.49v0.46C838.72,581.33,621.49,465.48,400.55,394.41
	c-165.08-53.1-332.23-81.2-476.76-60.1c-144.49,21.1-266.37,91.39-340.96,235.07c-0.88,1.69-1.75,3.4-2.61,5.11v-0.86
	c0.75-1.48,1.5-2.95,2.26-4.42c74.65-143.81,196.63-214.16,341.25-235.27c144.59-21.11,311.8,7,476.94,60.12
	C621.55,465.1,838.7,580.89,993.07,683.49z M993.07,658.54v0.45C828.08,551.5,587.73,431.03,347.98,363.15
	C184.75,316.93,21.8,295.08-116.87,318.3c-127.89,21.41-235.13,81.16-302.91,195.46V513c67.86-114.04,175.05-173.68,302.84-195.08
	c138.73-23.23,301.74-1.38,465.02,44.86C587.78,430.65,828.06,551.06,993.07,658.54z M993.07,633.56v0.45
	C817.12,521.61,551.68,396.78,292.91,333.07c-160.55-39.53-318.52-55.52-450.93-30.42c-108.72,20.61-200.21,68.95-261.75,154.71
	v-0.66c61.6-85.57,153.04-133.83,261.68-154.42c132.47-25.11,290.5-9.11,451.1,30.43C551.71,396.39,817.09,521.17,993.07,633.56z
	 M993.07,608.57v0.45c-187.03-117.22-479.24-246-756.76-304.58C79.15,271.25-73.3,260.59-199.24,287.29
	c-89.51,18.98-165.62,56.84-220.53,118.91v-0.58c54.94-61.94,131.01-99.74,220.45-118.7c126-26.72,278.5-16.05,435.72,17.14
	C513.86,362.64,806,491.36,993.07,608.57z M-121.28,1014.29C301.28,602.83,517.88,600.1,674.88,728.47
	c69.67,56.97,127.6,139.74,186.59,224.03c14.43,20.62,28.93,41.34,43.68,61.79h-0.48c-14.7-20.38-29.15-41.03-43.53-61.58
	c-58.98-84.27-116.89-167.02-186.52-223.95c-156.81-128.22-373.2-125.46-795.36,285.54H-121.28z"/>
<path class="st0" d="M-95.19,2122.28l0.44-0.07c21.07,19.45,41.89,39.47,62.63,59.43c68.47,65.88,136.18,131.03,209.91,172.17
	c170.01,94.86,372.09,61.98,689.35-384.03l0.48-0.08c-317.53,446.48-519.81,479.37-690.01,384.4
	c-73.77-41.16-141.5-106.33-209.99-172.23C-53.18,2161.86-74.06,2141.78-95.19,2122.28 M-110.1,2124.64l0.45-0.07
	c26.51,22.45,52.73,45.96,78.92,69.44c72.69,65.18,145.15,130.16,222.95,171.51c182.47,96.97,394.44,63.94,708.06-400.99l0.47-0.07
	c-313.87,465.39-526.04,498.44-708.7,401.36c-77.85-41.37-150.32-106.36-223.02-171.55C-57.23,2170.71-83.52,2147.14-110.1,2124.64z
	 M-127.66,2127.42l0.47-0.07c32.24,25.06,64.23,51.88,96.3,78.76c77.34,64.84,155.09,130.02,237.65,171.62
	c195.36,98.45,417.68,64.73,725.15-418.22l0.46-0.07c-307.7,483.41-530.22,517.14-725.78,418.59
	c-82.59-41.62-160.36-106.82-237.72-171.67C-63.27,2179.42-95.34,2152.53-127.66,2127.42z M-147.89,2130.63l0.49-0.08
	c38.14,27.23,76.24,57.18,114.6,87.34c82.55,64.9,166.36,130.79,254.53,172.7c208.57,99.15,441.59,64,740.24-435.84l0.45-0.07
	c-298.85,500.29-532.08,535.45-740.84,436.21c-88.2-41.93-172.02-107.83-254.59-172.74
	C-71.48,2187.93-109.66,2157.91-147.89,2130.63z M-159.98,2141.41l-0.07-0.47c40.72,27.22,81.78,57.58,123.36,88.33
	c88.5,65.44,179.37,132.64,274.23,174.92c221.95,98.92,465.86,61.37,752.83-453.94l0.44-0.07
	c-287.16,515.76-531.27,553.33-753.42,454.32c-94.9-42.3-185.78-109.5-274.29-174.96C-78.39,2198.87-119.36,2168.58-159.98,2141.41z
	 M-156.53,2163.19l-0.07-0.46c37.28,24.09,75.2,50.55,113.75,77.45c95.36,66.53,194.58,135.77,297.51,178.47
	c235.32,97.62,490.06,56.47,762.39-472.62l0.43-0.07c-272.5,529.54-527.45,570.71-762.96,473
	C151.56,2376.24,52.32,2307-43.06,2240.45C-81.51,2213.62-119.34,2187.23-156.53,2163.19z M-153.07,2185.03l-0.07-0.45
	c33.11,20.7,66.98,43.07,101.52,65.88c103.3,68.23,212.57,140.41,325.26,183.54c248.48,95.12,513.66,48.98,768.32-491.92l0.42-0.07
	c-254.81,541.33-520.19,587.49-768.87,492.3c-112.73-43.15-222.02-115.34-325.33-183.58
	C-86.27,2227.99-120.05,2205.68-153.07,2185.03z M-149.6,2206.91l-0.07-0.45c28.05,16.98,56.82,35.04,86.2,53.47
	c112.48,70.58,233.95,146.81,358.5,190.32c261.22,91.27,536.03,38.62,769.97-511.83l0.41-0.06
	c-234.06,550.88-509.07,603.55-770.49,512.21c-124.58-43.53-246.07-119.76-358.57-190.36
	C-92.96,2241.85-121.64,2223.85-149.6,2206.91z M-146.13,2228.85l-0.07-0.44c21.9,12.85,44.33,26.28,67.22,39.98
	c122.99,73.62,259.41,155.28,398.37,199c273.27,85.97,556.39,25.12,766.6-532.29l0.4-0.06
	c-210.31,557.83-493.64,618.71-767.11,532.67c-139-43.73-275.44-125.4-398.45-199.03C-101.97,2255.03-124.31,2241.66-146.13,2228.85
	z M-142.64,2250.83l-0.07-0.44c14.34,8.16,28.94,16.54,43.79,25.06c134.81,77.35,289.74,166.25,446.24,209.8
	c282.4,78.59,569.95,9.47,753.76-541.51l0.12,0.76c-183.91,550.64-471.52,619.69-753.98,541.08
	c-156.55-43.57-311.5-132.48-446.33-209.84C-113.87,2267.28-128.39,2258.95-142.64,2250.83z M-139.15,2272.85l-0.07-0.43
	c4.89,2.71,9.82,5.43,14.79,8.18c147.65,81.71,325.81,180.29,503.76,223.08c285.11,68.55,569.7-6.24,727.58-523.17l0.13,0.79
	c-157.99,516.56-442.63,591.27-727.79,522.71c-178-42.8-356.18-141.39-503.85-223.11C-129.49,2278.2-134.34,2275.52-139.15,2272.85z
	 M-135.66,2294.92l-0.07-0.43c157.52,84.63,356.16,188.62,551.6,227.87c285.06,57.26,563.31-23.27,697.28-502.42l0.13,0.82
	c-134.11,478.74-412.39,559.19-697.48,501.93C220.4,2483.44,21.84,2379.53-135.66,2294.92z M-132.16,2317.01l-0.07-0.43
	c165.71,86.57,381.33,191.15,589.56,224.36c281.65,44.92,549.77-40.84,662.57-478.41l0.14,0.87
	c-112.98,437.13-381.1,522.8-662.76,477.88C249.09,2508.08,33.54,2403.57-132.16,2317.01z M-128.65,2339.14l-0.07-0.42
	c191.35,97.26,454.8,214.24,694.19,225.34c250.07,11.59,473.85-92.42,561.78-455.18l0.14,0.9
	c-88.11,362.31-311.89,466.22-561.94,454.63C326.09,2553.3,62.71,2436.39-128.65,2339.14z M-125.14,2361.3l-0.07-0.42
	c194.56,96.27,469.09,208.73,714.97,216.96c248.45,8.32,467.64-89.82,545.46-418.65l0.14,0.9
	c-78.03,328.38-297.2,426.41-545.61,418.09C343.9,2569.95,69.44,2457.56-125.14,2361.3z M-121.62,2383.48l-0.07-0.42
	c197.26,95.08,482.01,202.68,733.94,208.52c98.22,2.27,191.45-10.92,272.56-46.37c81.1-35.44,150.07-93.12,199.78-179.83
	c24.81-43.27,44.83-93.78,59.16-152.35l0.14,0.89c-14.33,58.26-34.28,108.52-59,151.62c-49.76,86.77-118.79,144.5-199.95,179.97
	c-81.15,35.46-174.44,48.67-272.71,46.4C360.34,2586.1,75.66,2478.55-121.62,2383.48z M-118.1,2405.7l-0.07-0.41
	c209.93,98.62,524.64,206.99,791.34,199.83c91.48-2.46,177.3-18.51,251.3-53.22c73.99-34.7,136.16-88.05,180.35-165.11
	c19.7-34.35,35.82-73.42,47.82-117.65l0.13,0.85c-11.99,43.94-28.05,82.78-47.65,116.96c-44.22,77.12-106.45,130.52-180.51,165.25
	c-74.05,34.73-159.92,50.79-251.44,53.25C406.51,2612.62,91.86,2504.31-118.1,2405.7z M-114.58,2427.95l-0.06-0.41
	c152.25,69.75,362.47,142.41,569.67,174.58c154.82,24.04,307.95,25.48,433.92-13.78c125.95-39.26,224.77-119.22,271.01-257.97
	c0.54-1.63,1.08-3.28,1.61-4.93l0.12,0.77c-0.46,1.43-0.92,2.85-1.39,4.26c-46.28,138.88-145.18,218.9-271.24,258.2
	c-126.03,39.28-279.22,37.85-434.09,13.8C247.83,2570.29,37.68,2497.67-114.58,2427.95z M-111.05,2450.21l-0.06-0.4
	c162.43,72.59,393.93,146.1,617.47,172.78c152.19,18.16,300.69,14.62,421.14-25.71c111.09-37.19,198.33-105.66,242.65-217.25
	l0.11,0.68c-44.43,111.36-131.65,179.74-242.65,216.9c-120.51,40.34-269.06,43.89-421.3,25.73
	C282.84,2596.25,51.4,2522.78-111.05,2450.21z M-107.52,2472.5l-0.06-0.4c172.9,75.42,427.41,149.28,667.33,169.54
	c148.85,12.57,292.08,4.51,406.68-36.62c94.1-33.77,168.9-89.83,211.69-175.07l0.09,0.59c-42.87,85.07-117.64,141.06-211.67,174.8
	c-114.66,41.14-257.94,49.21-406.84,36.64C319.86,2621.72,65.41,2547.9-107.52,2472.5z M-103.98,2494.8l-0.06-0.4
	c183.47,78.15,462.42,151.75,718.35,164.78c144.94,7.38,282.48-4.66,391.09-46.29c77.19-29.59,139.75-74.14,179.97-137.29l0.08,0.52
	c-40.27,63.04-102.8,107.52-179.93,137.09c-108.66,41.66-246.25,53.7-391.23,46.32C358.41,2646.49,79.52,2572.93-103.98,2494.8z
	 M833.02,1975.19C514.14,2402.1,321.25,2435.17,163,2342.82c-70.23-40.98-133.62-106.65-198.18-173.53
	c-15.8-16.36-31.66-32.8-47.72-48.96l0.43-0.07c16,16.11,31.81,32.49,47.55,48.8c64.54,66.86,127.92,132.51,198.1,173.47
	c158.06,92.24,350.75,59.18,669.35-367.26L833.02,1975.19z"/>
</svg>
