<?xml version="1.0" encoding="utf-8"?>
<!-- Generator: Adobe Illustrator 28.2.0, SVG Export Plug-In . SVG Version: 6.00 Build 0)  -->
<svg version="1.1" id="Layer_1" xmlns="http://www.w3.org/2000/svg" xmlns:xlink="http://www.w3.org/1999/xlink" x="0px" y="0px"
	 viewBox="0 0 2268 5667.09" style="enable-background:new 0 0 2268 5667.09;" xml:space="preserve">
<style type="text/css">
	.st0{opacity:0.16;fill:#EB9335;}
	.st1{fill-rule:evenodd;clip-rule:evenodd;fill:#FFFFFF;}
	.st2{opacity:0.62;fill:#EB9335;}
</style>
<path class="st0" d="M1070.45,1713.04c1.57-62.99-9.23-127.61-33.47-190.67c-7.67-21.15-21.3-48.45-37.51-74.43
	c-36.41-57.67-82.67-105.04-135.23-141.23c-6.03-4.07-11.99-7.98-18.12-11.77c-1.95-1.22-3.9-2.43-5.91-3.61
	c-1.24-0.77-2.49-1.49-3.74-2.22c-2-1.22-4.06-2.36-6.06-3.54c-1.92-1.12-3.89-2.19-5.82-3.26c-1.21-0.67-2.38-1.28-3.54-1.94
	l-0.09-0.01c-17.14-9.24-34.78-17.39-52.84-24.39c-0.6-0.24-1.24-0.48-1.83-0.71c-0.55-0.23-1.1-0.46-1.65-0.64
	c-0.09-0.01-0.19-0.03-0.28-0.09c-0.95-0.14-1.93-0.39-2.91-0.63c-2.34-0.6-4.79-1.36-7.13-2.24c-1.25-0.43-1.75-0.6-1.81-1.49
	c-1.98-0.74-4.01-1.43-5.99-2.07c-1.25-0.43-2.44-0.85-3.7-1.24c-14.84-4.86-29.94-8.99-45.21-12.27c-1.4-0.36-2.87-0.63-4.27-0.94
	c-4.93-1.09-9.92-2.08-14.89-2.93l-0.05-0.01c-1.42-0.26-2.74-0.51-4.16-0.73c-29.24-4.96-58.94-7.17-88.84-6.45
	c-1.65-0.01-3.26,0.04-4.91,0.08c-6.58,0.17-13.23,0.52-19.82,1.08l-0.05-0.01c-1.47,0.07-2.95,0.23-4.42,0.35
	c-8.05,0.63-16.04,1.46-24.07,2.57c-0.9,0.16-1.79,0.26-2.68,0.42c-0.74,0.08-1.43,0.17-2.13,0.31
	c-10.82,1.57-21.68,3.47-32.44,5.92c-0.35,0.09-0.65,0.14-1.01,0.24c-0.25,0.06-0.46,0.13-0.71,0.18
	c-31.26,6.82-62.21,16.99-92.35,30.53c-12.86,5.77-25.46,12.07-37.86,19.02c-3.65,1.97-7.31,4.04-10.83,6.17
	c-172.16,101.68-254.93,297.33-226.09,483.32c0.8,4.63,1.5,9.3,2.37,13.85l-0.01,0.09c0.41,2.44,0.97,4.81,1.47,7.26
	c0.43,2.3,0.97,4.51,1.44,6.82c0.09,0.35,0.14,0.7,0.23,1.05l-0.01,0.05c2.05,9.24,4.39,18.47,7.02,27.7
	c1.05,3.65,2.15,7.31,3.24,10.97c0.03,0.15,0.11,0.26,0.13,0.41c8.18,26.42,18.96,52.41,32.17,77.65
	c3.67,7.15,7.64,14.31,11.73,21.28c0.58,0.96,1.16,1.92,1.75,2.88c1.27,2.18,2.6,4.32,3.92,6.46c2.5,4.02,5.06,7.95,7.66,11.88
	c1.23,1.84,2.45,3.67,3.73,5.51c0.79,1.19,1.59,2.33,2.39,3.47c35.19,50.64,78.44,93.19,130.3,126.65c4.99,3.23,7.23,6.09,6.91,9.83
	c-0.21,2.01-1.19,4.33-2.92,7.13c-7.92,12.88-14.75,26.59-21.46,40.18c-0.25,0.35-0.39,0.67-0.49,0.99
	c-1.22,1.95-2.17,3.12-3.56,3.64l-0.01,0.09c-1.69,0.62-3.66,0.13-6.42-1.5c-1.99-1.27-4.17-2.57-6.37-3.73
	c-5.19-2.87-10.47-5.51-15.69-8.24c-6.62-3.38-12.63-5.06-17.97-5c-6.41,0.05-12.08,2.54-17.02,7.62
	c-2.71,2.84-5.34,6.42-7.65,10.83c-15.14,28.57-30.32,57.04-45.44,85.52c-39.46,74.19-78.92,148.34-118.39,222.63
	c-4.8,8.98-9.57,18.01-14.38,27.09c-8.88,16.66-8.37,28.04,2.64,37.76c3.06,2.84,6.94,5.46,11.74,8.04c3.1,1.63,6.29,3.33,9.39,4.96
	c11.07,6.04,22.21,11.95,33.39,17.96c6.16,3.21,12.34,6.62,18.46,9.83c22.27,11.91,44.58,23.82,66.81,35.68
	c6.83,3.6,12.83,5.68,18.15,6.09c1.82,0.18,3.62,0.16,5.31-0.12c1.33-0.14,2.6-0.48,3.83-0.93c6.97-2.44,12.92-8.77,18.59-19.32
	c1.22-2.29,2.43-4.49,3.65-6.78l0.01-0.05c1.36-2.56,2.67-5.13,4.03-7.69c1.13-2.01,2.21-4.03,3.34-6.05l0.01-0.09
	c27.67-52.06,55.29-104.07,82.85-156.05c28.13-52.86,56.35-105.66,84.28-158.45c9.69-18.19,5.46-32.27-12.34-42.24
	c-5.65-3.04-11.22-6.36-17.17-9c-5.74-2.47-5.82-5.44-3.12-10.47c7.64-13.64,15.47-27.21,21.94-41.42
	c4.33-9.73,8.67-10.82,18.74-7.45c138.57,46.97,272.19,35.2,398.34-38.84c109.07-64.06,183.85-165.18,215.71-280.22
	c0.17-0.46,0.28-0.88,0.4-1.35c0.02-0.14,0.09-0.28,0.11-0.42c3.3-12.17,6.17-24.44,8.44-36.86c0.13-0.51,0.21-1.08,0.29-1.61
	c0.09-0.28,0.13-0.56,0.18-0.85l0.01-0.09c0.88-4.19,1.62-8.49,2.26-12.71C1068.14,1755.29,1069.9,1734.31,1070.45,1713.04z
	 M992.37,1775.67c-24.46,133.53-115.86,251.79-251.26,303.52c-105.3,40.12-216.71,33.07-311.47-10.66
	c-8.85-4.06-17.44-8.51-25.95-13.24c-71.01-39.32-130.73-100.37-167.99-178.11c-0.89-1.78-1.73-3.61-2.57-5.44
	c-3.6-7.63-6.9-15.36-10.01-23.3c-0.39-0.93-0.82-1.97-1.16-2.94c-0.03-0.1-0.07-0.16-0.11-0.26c-0.11-0.26-0.21-0.52-0.27-0.77
	c-3.85-10.14-7.22-20.31-10.18-30.56c-0.1-0.31-0.2-0.61-0.3-0.92c-1.03-3.79-2.07-7.49-3.01-11.23
	c-43.58-169.73,28.81-347.69,174.99-439.61c12.75-7.97,26.06-15.42,40.01-22c9.94-4.76,20.21-9.17,30.62-13.18
	c122.81-46.79,254.01-29.42,357.22,36.02c11.48,7.22,22.66,15.07,33.37,23.53c5.34,4.16,10.52,8.38,15.66,12.9
	c48.71,42.4,88.03,97.16,112.68,161.98c16.27,42.88,24.73,86.72,26.07,130.2c0.24,7.7,0.23,15.51-0.02,23.24
	C998.12,1735.34,995.96,1755.73,992.37,1775.67z"/>
<rect x="4363.88" y="-894.93" class="st1" width="5000" height="2814.24"/>
<path class="st2" d="M2345.09,4740.74h-1.08c-43.17-48.74-85.51-98.63-127.7-148.36c-139.25-164.11-276.97-326.43-438.26-439.42
	c-371.89-260.53-869.33-258.7-1800.27,587.78h-1.18c931.76-847.38,1429.68-849.16,1801.99-588.35
	c161.37,113.05,299.13,275.4,438.41,439.56C2259.32,4641.83,2301.78,4691.87,2345.09,4740.74 M2381.76,4740.74h-1.12
	c-55.09-57-109.07-116.17-162.99-175.28c-149.65-164.06-298.82-327.6-469.81-442.42c-401-269.27-922.23-270.46-1851.61,617.7h-1.15
	c930.16-889.07,1451.87-887.83,1853.29-618.28c171.07,114.88,320.27,278.44,469.96,442.54
	C2272.4,4624.27,2326.52,4683.61,2381.76,4740.74z M2424.95,4740.74h-1.16c-67.83-64.53-134.42-132.74-201.15-201.11
	c-160.93-164.89-322.74-330.68-505.02-447.64c-431.37-276.79-977.69-280.03-1899.18,648.76h-1.13
	c922.22-929.7,1469.02-926.42,1900.83-649.35c182.36,117.01,344.2,282.83,505.17,447.76
	C2290.2,4607.69,2356.95,4676.08,2424.95,4740.74z M2474.71,4740.74h-1.2c-81.17-71.18-161.2-148.15-241.8-225.67
	c-173.42-166.8-349.48-336.13-545.11-455.66c-462.8-282.76-1035.35-286.57-1942.08,681.33h-1.1
	c907.4-968.8,1480.43-964.96,1943.67-681.93c195.7,119.57,371.8,288.94,545.25,455.77
	C2313.14,4592.29,2393.36,4669.43,2474.71,4740.74z M2507.84,4721.77v1.02c-87.36-72.02-174.35-150.88-262.45-230.75
	c-187.49-169.98-379.99-344.5-591.55-467.09c-494.99-286.81-1094.58-289.16-1979.18,715.79h-1.07
	c885.22-1005.85,1485.31-1003.47,1980.73-716.4c211.64,122.64,404.17,297.18,591.69,467.19
	C2333.9,4571.21,2420.69,4649.9,2507.84,4721.77z M2507.84,4674.02v1.01c-80.3-64.16-161.24-133.6-243.53-204.21
	c-203.53-174.63-415.31-356.35-646.07-482.58C1090.67,3699.67,463.73,3701.35-391,4740.74h-1.05
	c855.29-1040.28,1482.73-1041.94,2010.74-753.12c230.84,126.27,442.66,308.01,646.22,482.68
	C2347,4540.73,2427.73,4610,2507.84,4674.02z M2507.84,4626.14v1c-71.58-55.5-144.35-114.83-218.56-175.33
	c-221.95-180.96-456.72-372.37-710.74-502.83c-560.11-287.67-1213.99-278.87-2030.79,791.76h-1.02
	c817.31-1071.51,1471.69-1080.3,2032.26-792.4c254.11,130.51,488.92,321.95,710.89,502.93
	C2363.87,4511.61,2436.44,4570.78,2507.84,4626.14z M2507.84,4578.15v0.98c-60.85-45.84-123.03-94.2-186.52-143.59
	c-243.08-189.1-505.58-393.3-787.91-528.6c-592.15-283.76-1271.62-264.29-2042.31,833.8h-1
	C261.24,3641.78,941.21,3622.32,1533.82,3906.3c282.41,135.33,544.95,339.57,788.07,528.69
	C2385.18,4484.23,2447.16,4532.45,2507.84,4578.15z M2507.84,4530.05v0.97c-47.66-34.91-96.38-71.23-146.11-108.31
	c-267.15-199.16-563.46-420.07-880.3-560.67c-623.08-276.51-1325.62-242.32-2042.02,878.7h-0.98
	c716.8-1121.88,1419.85-1156.07,2043.39-879.36c316.92,140.64,613.28,361.58,880.47,560.77
	C2411.82,4459.09,2460.36,4495.27,2507.84,4530.05z M2507.84,4481.85v0.96c-31.3-22.32-63.16-45.2-95.56-68.46
	c-294.09-211.14-632.07-453.8-991.07-600.01C773.43,3550.53,57.11,3600.91-593.5,4717.12v-1.66
	C57.21,3600.01,773.64,3549.8,1421.58,3813.69c359.1,146.25,697.13,388.94,991.25,600.11
	C2445.04,4436.91,2476.71,4459.66,2507.84,4481.85z M2507.84,4433.57v0.95c-10.71-7.45-21.51-14.95-32.38-22.51
	c-323.25-224.81-713.28-496.06-1124.05-647.89C693.3,3520.86-18.08,3584.35-593.5,4636.54v-1.73
	c575.56-1051.34,1287.02-1114.68,1945.25-871.37c410.87,151.87,800.96,423.16,1124.25,647.99
	C2486.68,4418.86,2497.29,4426.24,2507.84,4433.57z M2507.84,4385.19v0.94c-345.81-234.4-782.95-524.16-1237.03-674.37
	C608.53,3492.68-89.82,3570.6-593.5,4550.07v-1.8c503.88-978.55,1202.26-1056.3,1864.61-837.19
	C1725.09,3861.26,2162.07,4150.83,2507.84,4385.19z M2507.84,4336.74v0.93c-364.74-241.33-842.4-538.11-1329.46-679.72
	c-658.8-191.54-1334.8-98.99-1771.88,798.73v-1.9c437.33-896.71,1113.33-989.07,1772.15-797.53
	C1665.61,3798.84,2143.12,4095.45,2507.84,4336.74z M2507.84,4288.23v0.92c-422.2-272.89-1009.91-612.4-1580.16-717.28
	c-595.67-109.56-1172.25,37.08-1521.18,783.2v-1.96c349.2-745.09,925.73-891.51,1521.36-781.96
	C1498.03,3676.01,2085.6,4015.35,2507.84,4288.23z M2507.84,4239.64v0.92c-430.29-271.87-1046.3-605.46-1633.21-706.41
	c-593.05-102.01-1156.34,33.61-1468.12,710.6v-1.97c312.12-675.94,875.33-811.34,1468.29-709.35
	C1461.62,3634.36,2077.5,3967.78,2507.84,4239.64z M2507.84,4190.99v0.91c-437.21-270.24-1079.6-596.9-1681.94-694.77
	c-234.84-38.15-463.58-41.53-671.68,6.8c-208.08,48.32-395.53,148.32-547.8,316.92c-76,84.15-143.23,185.39-199.91,305.82v-1.96
	c56.54-119.75,123.54-220.51,199.23-304.31c152.4-168.74,340.01-268.82,548.26-317.18c208.23-48.35,437.1-44.98,672.06-6.81
	C1428.31,3594.26,2070.56,3920.78,2507.84,4190.99z M2507.84,4142.28v0.9c-466.26-282.09-1180.28-620.57-1822.98-695.63
	c-220.45-25.75-432.51-20.5-623.28,28.65c-190.75,49.14-360.23,142.18-495.57,292.03c-60.33,66.8-113.88,144.91-159.5,235.43v-1.86
	c45.48-89.92,98.8-167.56,158.83-234.02c135.45-149.97,305.08-243.09,496-292.28c190.89-49.18,403.07-54.43,623.64-28.67
	C1327.61,3521.87,2041.48,3860.19,2507.84,4142.28z M2507.84,4093.51v0.9c-338.83-200.79-815.66-427.45-1300.64-566.5
	C844.82,3424,477.91,3369.02,160.67,3410.31c-317.18,41.28-584.72,178.81-748.43,459.93c-1.93,3.31-3.83,6.64-5.73,9.99v-1.68
	c1.65-2.89,3.3-5.78,4.97-8.64c163.86-281.37,431.63-419.02,749.07-460.33c317.38-41.31,684.43,13.69,1046.92,117.62
	C1692.29,3666.21,2168.98,3892.76,2507.84,4093.51z M2507.84,4044.69v0.89c-362.18-210.33-889.77-446.02-1416.04-578.85
	c-358.31-90.43-716-133.18-1020.39-87.75c-280.72,41.89-516.12,158.79-664.91,382.44v-1.48
	c148.97-223.14,384.26-339.82,664.76-381.68c304.54-45.45,662.35-2.69,1020.77,87.77C1618.16,3598.81,2145.6,3834.4,2507.84,4044.69
	z M2507.84,3995.82v0.89c-386.23-219.93-968.9-464.18-1536.93-588.83c-352.42-77.34-699.18-108.64-989.84-59.52
	c-238.66,40.33-439.48,134.9-574.57,302.71v-1.3c135.21-167.43,335.94-261.84,574.4-302.14c290.79-49.14,637.68-17.83,990.22,59.53
	C1539,3531.79,2121.53,3775.93,2507.84,3995.82z M2507.84,3946.92v0.88c-410.55-229.34-1051.97-481.31-1661.16-595.94
	c-345-64.92-679.64-85.79-956.09-33.54c-196.48,37.13-363.56,111.22-484.08,232.66v-1.14c120.6-121.18,287.59-195.15,483.9-232.24
	c276.58-52.27,611.34-31.4,956.45,33.54C1455.91,3465.73,2097.18,3717.6,2507.84,3946.92z M61.72,4740.74
	c927.55-805.05,1403.01-810.4,1747.64-559.23c152.94,111.46,280.09,273.41,409.58,438.33c31.68,40.35,63.51,80.88,95.89,120.9h-1.05
	c-32.26-39.88-63.98-80.27-95.55-120.49c-129.46-164.88-256.58-326.79-409.42-438.18c-344.22-250.87-819.2-245.47-1745.89,558.67
	H61.72z"/>
<path class="st2" d="M1466.93-823.98l0.85,0.67c3.7,65.01,6.02,130.4,8.34,195.57c7.64,215.09,15.2,427.83,71.82,616.44
	c130.55,434.9,522.17,741.62,1777.34,653.84l0.92,0.73C2069.83,731.26,1677.85,424.2,1547.16-11.18
	c-56.65-188.71-64.21-401.5-71.86-616.65C1472.98-693.2,1470.65-758.79,1466.93-823.98 M1438.14-846.7l0.88,0.69
	c7.93,78.87,13.65,158.76,19.36,238.56c15.84,221.5,31.64,442.29,94.73,638.34c147.98,459.79,556.41,783.63,1836.18,662.16l0.9,0.71
	C2109.25,815.47,1700.46,491.3,1552.33,31.02c-63.13-196.16-78.93-416.98-94.77-638.53C1451.84-687.52,1446.11-767.63,1438.14-846.7
	z M1404.24-873.45l0.91,0.72c13.28,92.68,23.28,187.47,33.31,282.48c24.18,229.14,48.5,459.51,119.14,664.26
	c167.16,484.51,594.02,825.5,1892.77,667.24l0.89,0.7c-1299.89,158.52-1727.1-182.79-1894.43-667.8
	c-70.67-204.83-94.99-435.25-119.18-664.44C1427.59-685.53,1417.56-780.57,1404.24-873.45z M1365.17-904.28l0.94,0.74
	c19.62,106.15,34.77,216.16,50.01,326.94c32.81,238.37,66.12,480.37,145.64,695.39C1749.9,627.46,2197,985.14,3508.39,787.04
	l0.86,0.68c-1312.47,198.4-1759.93-159.61-1948.24-668.76c-79.55-215.1-112.87-457.14-145.68-695.56
	C1400.04-687.65,1384.86-797.9,1365.17-904.28z M1327.42-909.91l0.63-0.8c23.96,110.65,43.39,226.45,63.07,343.73
	c41.88,249.59,84.88,505.83,175.01,733.12c210.89,531.79,680.12,905.07,1997.1,664.18l0.84,0.67
	c-1318.02,241.22-1787.61-132.4-1998.69-664.66c-90.17-227.38-133.18-483.67-175.06-733.29
	C1370.69-683.97,1351.3-799.5,1327.42-909.91z M1297.84-872.42l0.62-0.79c23.29,100.11,43.81,204.76,64.67,311.17
	c51.59,263.17,105.27,537.02,208.22,779.06c235.38,553.35,728.57,940.42,2043.43,653.98l0.82,0.65
	c-1315.85,286.79-1809.42-100.6-2044.99-654.43c-102.99-242.12-156.68-516.01-208.27-779.23
	C1341.52-668.15,1321.06-772.54,1297.84-872.42z M1268.18-834.84l0.62-0.78c21.81,87.91,42.18,179.57,62.95,273.03
	c62.13,279.54,127.85,575.25,246.44,835.02c261.49,572.81,780.24,970.97,2084.67,636.51l0.8,0.63
	c-1305.38,334.83-1824.52-63.65-2086.21-636.92c-118.63-259.86-184.36-555.61-246.49-835.19
	C1310.24-655.75,1289.93-747.15,1268.18-834.84z M1238.45-797.16l0.61-0.77c19.38,73.68,38.22,150.16,57.47,228.27
	c73.67,299.03,153.24,621.95,291.06,903.05c289.06,589.58,834.5,995.23,2119.76,610.65l0.78,0.62
	c-1286.15,384.98-1831.99-20.98-2121.27-611.02C1449,52.45,1369.42-270.52,1295.73-569.59
	C1276.55-647.45,1257.76-723.7,1238.45-797.16z M1208.65-759.41l0.6-0.76c15.78,56.93,31.53,115.63,47.6,175.54
	c86.33,321.84,182.1,678.81,343.71,985.46c317.83,603.05,890.5,1011.43,2147.34,575.22l0.77,0.61
	c-1257.69,436.63-1830.76,27.94-2148.83-575.56c-161.66-306.73-257.43-663.76-343.78-985.64
	C1240.06-644.22,1224.37-702.69,1208.65-759.41z M1178.79-721.57l0.59-0.75c10.74,36.91,21.58,74.61,32.61,112.93
	c100.06,347.93,215.05,747.79,406.3,1084.96c345.08,608.4,938.6,1012.6,2140.81,539.41l-1.03,1.3
	c-1201.82,472.53-1795.33,68.13-2140.49-540.41c-191.29-337.27-306.31-737.18-406.38-1085.16
	C1200.25-647.39,1189.47-684.87,1178.79-721.57z M1148.88-683.66l0.59-0.74c3.8,12.48,7.62,25.06,11.47,37.73
	c114.49,376.72,252.62,831.28,481.02,1204.93c365.92,598.65,963.7,989.5,2067.23,519.99l-1.07,1.36
	C2605,1548.36,2007.26,1157.33,1641.28,558.58c-228.45-373.75-366.61-828.36-481.12-1205.14
	C1156.37-659.02,1152.62-671.38,1148.88-683.66z M1118.91-645.69l0.58-0.74c126.25,398.23,289.91,896.49,553.31,1295.71
	c384.17,582.26,980.64,953.7,1982.81,496.84l-1.12,1.42c-1001.74,456.02-1598.15,84.42-1982.36-497.9
	C1408.8,250.51,1245.16-247.51,1118.91-645.69z M1088.9-607.66l0.58-0.73C1226.3-193,1417.41,335.89,1712.03,748.78
	c398.5,558.48,986.5,904.6,1885.74,470.65l-1.18,1.49c-898.81,433-1486.69,86.73-1885.2-471.76
	C1416.83,336.35,1225.72-192.3,1088.9-607.66z M1058.84-569.57l0.57-0.72C1221.8-94.53,1472.83,536.07,1855.5,971.67
	c399.74,455.01,943.19,697.09,1679.32,327.53l-1.22,1.54c-735.7,368.58-1278.98,126.36-1678.69-328.62
	C1472.28,536.58,1221.26-93.79,1058.84-569.57z M1028.75-531.43l0.57-0.72c169.35,479.98,446.28,1123.46,844.47,1566.29
	c402.36,447.46,928.56,689.95,1592.69,351.66l-1.22,1.55C2801.5,1724.61,2275.5,1482,1873.2,1034.6
	C1475.06,591.83,1198.15-51.44,1028.75-531.43z M998.61-493.24l0.56-0.72c175.8,482.98,477.72,1137.37,889.93,1587.34
	c160.71,175.43,338.19,319.78,531.49,410.76c193.28,90.97,402.38,128.59,626.36,90.57c111.79-18.98,227.29-56.8,346.38-116.23
	l-1.21,1.54c-118.57,58.98-233.58,96.57-344.92,115.47c-224.16,38.05-433.44,0.4-626.88-90.65
	c-193.42-91.04-370.99-235.47-531.79-410.99C1476.37,643.95,1174.47-10.24,998.61-493.24z M968.43-455l0.56-0.71
	c191.26,510.29,542.09,1218.32,1000.12,1675.4c157.1,156.78,326.82,284.02,507.03,363.63c180.18,79.59,370.87,111.55,569.93,77.76
	c88.75-15.06,179.16-43.21,271.06-86.01l-1.16,1.46c-91.41,42.42-181.35,70.33-269.65,85.32c-199.23,33.82-390.08,1.83-570.43-77.83
	c-180.32-79.65-350.13-206.97-507.32-363.83C1510.58,763.16,1159.77,55.34,968.43-455z M938.22-416.71l0.56-0.71
	c141.6,367.52,375.5,840.85,670.07,1250.44c220.1,306.05,474.07,576.51,748.68,740.62c274.56,164.08,569.78,221.86,872.45,102.6
	c3.56-1.4,7.13-2.84,10.69-4.29l-1.04,1.32c-3.08,1.25-6.17,2.49-9.25,3.71c-302.93,119.36-598.4,61.54-873.2-102.68
	c-274.74-164.19-528.8-434.74-748.98-740.89C1313.72,423.93,1079.86-49.21,938.22-416.71z M907.98-378.4l0.55-0.7
	c154.02,389.47,422.17,901.33,753.01,1331.62c225.25,292.96,479.56,548.1,746.65,701c246.32,141.02,503.53,195.08,758.87,111.69
	l-0.92,1.16c-255.17,82.88-512.16,28.72-758.29-112.19c-267.22-152.98-521.62-408.2-746.94-701.26
	C1330.16,522.76,1062.05,11.08,907.98-378.4z M877.7-340.03l0.55-0.7c166.95,411.91,473.04,964.6,841.72,1414.34
	c228.74,279.03,481.56,518.42,740.16,659.92c212.33,116.19,428.56,166.36,638.56,118.31l-0.8,1.02
	c-209.87,47.67-425.92-2.56-638.08-118.66c-258.72-141.57-511.63-381.04-740.45-660.16C1350.77,624.42,1044.73,71.9,877.7-340.03z
	 M847.41-301.64l0.54-0.69c180.21,434.37,527.64,1029.52,934.84,1496.89c230.61,264.68,480.38,488.37,729.76,618.62
	c177.24,92.57,354.29,137.91,524.14,117.24l-0.71,0.9c-169.74,20.42-346.65-24.97-523.74-117.46
	c-249.5-130.3-499.36-354.07-730.04-618.84C1375.09,727.75,1027.71,132.77,847.41-301.64z M3259.39,590.54
	C2032.54,647.9,1655.98,357.56,1541.04-53.1c-51.01-182.24-50.5-388.14-49.98-597.82c0.13-51.3,0.25-102.84-0.38-154.31l0.82,0.65
	c0.62,51.29,0.49,102.65,0.37,153.78c-0.51,209.64-1.02,415.48,49.95,597.61c114.8,410.17,491.01,700.18,1716.62,642.99
	L3259.39,590.54z"/>
</svg>
