<?xml version="1.0" encoding="utf-8"?>
<!-- Generator: Adobe Illustrator 28.2.0, SVG Export Plug-In . SVG Version: 6.00 Build 0)  -->
<svg version="1.1" id="Calque_1" xmlns="http://www.w3.org/2000/svg" xmlns:xlink="http://www.w3.org/1999/xlink" x="0px" y="0px"
	 viewBox="0 0 198.14 299.47" style="enable-background:new 0 0 198.14 299.47;" xml:space="preserve">
<style type="text/css">
	.st0{opacity:0.25;fill:#EA9326;}
</style>
<path class="st0" d="M197.32,87.22c-1.64-13.03-5.88-26.01-12.84-38.25c-2.24-4.12-5.9-9.32-10.05-14.17
	c-9.3-10.75-20.31-19.07-32.27-24.89c-1.37-0.65-2.72-1.27-4.1-1.86c-0.44-0.19-0.88-0.38-1.33-0.56c-0.28-0.12-0.56-0.23-0.84-0.34
	c-0.45-0.19-0.91-0.36-1.36-0.54c-0.43-0.17-0.87-0.33-1.3-0.49c-0.27-0.1-0.53-0.19-0.79-0.29h-0.02
	c-3.82-1.37-7.71-2.5-11.65-3.38c-0.13-0.03-0.27-0.06-0.4-0.09c-0.12-0.03-0.24-0.06-0.36-0.08c-0.02,0-0.04,0-0.06-0.01
	c-0.2,0-0.41-0.02-0.62-0.04c-0.5-0.05-1.03-0.13-1.54-0.24c-0.27-0.05-0.38-0.07-0.42-0.25c-0.43-0.09-0.87-0.17-1.3-0.24
	c-0.27-0.05-0.53-0.1-0.8-0.14c-3.21-0.54-6.45-0.92-9.7-1.12c-0.3-0.03-0.61-0.04-0.91-0.06c-1.05-0.07-2.11-0.12-3.16-0.14h-0.01
	c-0.3-0.01-0.58-0.02-0.88-0.02C94.43-0.09,88.24,0.38,82.1,1.46c-0.34,0.05-0.67,0.11-1.01,0.17c-1.35,0.24-2.71,0.52-4.05,0.84
	h-0.01c-0.3,0.06-0.6,0.14-0.9,0.21c-1.64,0.38-3.26,0.8-4.88,1.28c-0.18,0.06-0.36,0.11-0.54,0.17c-0.15,0.04-0.29,0.08-0.43,0.13
	c-2.18,0.66-4.36,1.39-6.5,2.23c-0.07,0.03-0.13,0.05-0.2,0.08c-0.05,0.02-0.09,0.04-0.14,0.06c-6.23,2.38-12.29,5.44-18.08,9.17
	c-2.47,1.59-4.87,3.28-7.21,5.1c-0.69,0.52-1.38,1.06-2.04,1.61C3.8,48.83-7.16,91.73,4.58,129.16c0.31,0.93,0.6,1.87,0.92,2.78
	v0.02c0.16,0.49,0.35,0.96,0.53,1.45c0.16,0.46,0.34,0.9,0.51,1.36c0.03,0.07,0.05,0.14,0.08,0.21l0,0c0.71,1.85,1.48,3.68,2.31,5.5
	c0.33,0.72,0.67,1.44,1.01,2.16c0,0.03,0.03,0.05,0.04,0.08c2.51,5.19,5.54,10.21,9.05,15c0.98,1.36,2.02,2.71,3.08,4.02
	c0.15,0.18,0.3,0.36,0.45,0.54c0.33,0.41,0.67,0.81,1.01,1.21c0.64,0.75,1.29,1.48,1.95,2.21c0.31,0.34,0.62,0.68,0.94,1.02
	c0.2,0.22,0.4,0.43,0.6,0.64c8.83,9.34,19.07,16.76,30.8,22.04c1.13,0.51,1.68,1.03,1.73,1.81c0.02,0.42-0.11,0.93-0.38,1.56
	c-1.23,2.9-2.21,5.94-3.17,8.95c-0.04,0.08-0.06,0.15-0.07,0.22c-0.19,0.44-0.35,0.71-0.62,0.86v0.02
	c-0.33,0.18-0.75,0.14-1.37-0.11c-0.45-0.2-0.94-0.4-1.43-0.57c-1.16-0.43-2.33-0.81-3.49-1.21c-1.47-0.49-2.76-0.65-3.86-0.47
	c-1.32,0.21-2.41,0.9-3.27,2.1c-0.47,0.67-0.9,1.49-1.24,2.47c-2.23,6.36-4.47,12.7-6.7,19.04c-5.82,16.52-11.64,33.03-17.46,49.57
	c-0.71,2-1.41,4.01-2.12,6.03c-1.31,3.71-0.85,6.04,1.72,7.7c0.72,0.49,1.6,0.91,2.67,1.29c0.69,0.24,1.4,0.49,2.09,0.73
	c2.47,0.9,4.95,1.77,7.44,2.66c1.37,0.47,2.75,0.98,4.11,1.45c4.96,1.76,9.93,3.52,14.88,5.27c1.52,0.53,2.82,0.77,3.93,0.69
	c0.38-0.02,0.75-0.08,1.09-0.19c0.27-0.07,0.52-0.18,0.76-0.31c1.36-0.72,2.39-2.21,3.23-4.56c0.18-0.51,0.36-1,0.54-1.51l0,0
	c0.2-0.58,0.39-1.15,0.59-1.72c0.17-0.45,0.33-0.9,0.5-1.35v-0.02c4.08-11.59,8.15-23.17,12.21-34.74
	c4.15-11.77,8.32-23.53,12.43-35.28c1.43-4.05,0.12-6.82-3.86-8.32c-1.26-0.45-2.51-0.96-3.82-1.32c-1.26-0.33-1.37-0.94-0.97-2.06
	c1.15-3.05,2.34-6.09,3.23-9.22c0.59-2.14,1.45-2.5,3.63-2.12c30.02,5.36,57.19-1.23,80.88-20.42
	c20.48-16.6,32.74-39.77,35.72-64.47c0.02-0.1,0.03-0.19,0.04-0.29c0-0.03,0.01-0.06,0.01-0.09c0.3-2.61,0.51-5.23,0.59-7.86
	c0.01-0.11,0.01-0.23,0.01-0.34c0.01-0.06,0.01-0.12,0.01-0.18v-0.02c0.05-0.89,0.07-1.8,0.07-2.69
	C198.16,96,197.87,91.62,197.32,87.22L197.32,87.22z M183.18,102.56c-0.88,28.28-16.03,55.5-42.32,70.38
	c-20.45,11.55-43.63,13.57-64.52,7.51c-1.95-0.56-3.86-1.21-5.76-1.92c-15.86-5.89-30.07-16.61-40.17-31.47
	c-0.24-0.34-0.47-0.69-0.7-1.04c-0.98-1.46-1.9-2.95-2.79-4.49c-0.11-0.18-0.23-0.38-0.33-0.57c-0.01-0.02-0.02-0.03-0.03-0.05
	c-0.03-0.05-0.06-0.1-0.08-0.15c-1.11-1.97-2.12-3.96-3.05-5.98c-0.03-0.06-0.06-0.12-0.09-0.18c-0.33-0.75-0.66-1.48-0.97-2.22
	C8.1,98.76,17.47,59.83,44.73,36.33c2.38-2.04,4.89-3.99,7.56-5.78c1.9-1.29,3.88-2.52,5.9-3.67c23.85-13.47,51.43-13.98,74.74-3.71
	c2.59,1.13,5.14,2.4,7.61,3.81c1.23,0.69,2.43,1.4,3.63,2.17c11.36,7.22,21.17,17.28,28.27,29.87c4.69,8.33,7.8,17.1,9.43,26.02
	c0.29,1.58,0.53,3.19,0.72,4.79C183.11,94.07,183.3,98.34,183.18,102.56L183.18,102.56z"/>
</svg>
