<?xml version="1.0" encoding="utf-8"?>
<!-- Generator: Adobe Illustrator 28.2.0, SVG Export Plug-In . SVG Version: 6.00 Build 0)  -->
<svg version="1.1" id="Calque_1" xmlns="http://www.w3.org/2000/svg" xmlns:xlink="http://www.w3.org/1999/xlink" x="0px" y="0px"
	 viewBox="0 0 198.14 299.47" style="enable-background:new 0 0 198.14 299.47;" xml:space="preserve">
<style type="text/css">
	.st0{opacity:0.25;fill:#EA9326;}
</style>
<path class="st0" d="M0.82,87.22C0.27,91.62-0.02,96,0,100.38c0,0.89,0.02,1.8,0.07,2.69v0.02c0,0.06,0,0.12,0.01,0.18
	c0,0.11,0,0.23,0.01,0.34c0.08,2.63,0.29,5.25,0.59,7.86c0,0.03,0.01,0.06,0.01,0.09c0.01,0.1,0.02,0.19,0.04,0.29
	c2.98,24.7,15.24,47.87,35.72,64.47c23.69,19.19,50.86,25.78,80.88,20.42c2.18-0.38,3.04-0.02,3.63,2.12
	c0.89,3.13,2.08,6.17,3.23,9.22c0.4,1.12,0.29,1.73-0.97,2.06c-1.31,0.36-2.56,0.87-3.82,1.32c-3.98,1.5-5.29,4.27-3.86,8.32
	c4.11,11.75,8.28,23.51,12.43,35.28c4.06,11.57,8.13,23.15,12.21,34.74v0.02c0.17,0.45,0.33,0.9,0.5,1.35
	c0.2,0.57,0.39,1.14,0.59,1.72l0,0c0.18,0.51,0.36,1,0.54,1.51c0.84,2.35,1.87,3.84,3.23,4.56c0.24,0.13,0.49,0.24,0.76,0.31
	c0.34,0.11,0.71,0.17,1.09,0.19c1.11,0.08,2.41-0.16,3.93-0.69c4.95-1.75,9.92-3.51,14.88-5.27c1.36-0.47,2.74-0.98,4.11-1.45
	c2.49-0.89,4.97-1.76,7.44-2.66c0.69-0.24,1.4-0.49,2.09-0.73c1.07-0.38,1.95-0.8,2.67-1.29c2.57-1.66,3.03-3.99,1.72-7.7
	c-0.71-2.02-1.41-4.03-2.12-6.03c-5.82-16.54-11.64-33.05-17.46-49.57c-2.23-6.34-4.47-12.68-6.7-19.04
	c-0.34-0.98-0.77-1.8-1.24-2.47c-0.86-1.2-1.95-1.89-3.27-2.1c-1.1-0.18-2.39-0.02-3.86,0.47c-1.16,0.4-2.33,0.78-3.49,1.21
	c-0.49,0.17-0.98,0.37-1.43,0.57c-0.62,0.25-1.04,0.29-1.37,0.11v-0.02c-0.27-0.15-0.43-0.42-0.62-0.86
	c-0.01-0.07-0.03-0.14-0.07-0.22c-0.96-3.01-1.94-6.05-3.17-8.95c-0.27-0.63-0.4-1.14-0.38-1.56c0.05-0.78,0.6-1.3,1.73-1.81
	c11.73-5.28,21.97-12.7,30.8-22.04c0.2-0.21,0.4-0.42,0.6-0.64c0.32-0.34,0.63-0.68,0.94-1.02c0.66-0.73,1.31-1.46,1.95-2.21
	c0.34-0.4,0.68-0.8,1.01-1.21c0.15-0.18,0.3-0.36,0.45-0.54c1.06-1.31,2.1-2.66,3.08-4.02c3.51-4.79,6.54-9.81,9.05-15
	c0.01-0.03,0.04-0.05,0.04-0.08c0.34-0.72,0.68-1.44,1.01-2.16c0.83-1.82,1.6-3.65,2.31-5.5l0,0c0.03-0.07,0.05-0.14,0.08-0.21
	c0.17-0.46,0.35-0.9,0.51-1.36c0.18-0.49,0.37-0.96,0.53-1.45v-0.02c0.32-0.91,0.61-1.85,0.92-2.78
	c11.74-37.43,0.78-80.33-31.53-106.65c-0.66-0.55-1.35-1.09-2.04-1.61c-2.34-1.82-4.74-3.51-7.21-5.1
	c-5.79-3.73-11.85-6.79-18.08-9.17c-0.05-0.02-0.09-0.04-0.14-0.06c-0.07-0.03-0.13-0.05-0.2-0.08c-2.14-0.84-4.32-1.57-6.5-2.23
	c-0.14-0.05-0.28-0.09-0.43-0.13c-0.18-0.06-0.36-0.11-0.54-0.17c-1.62-0.48-3.24-0.9-4.88-1.28c-0.3-0.07-0.6-0.15-0.9-0.21h-0.01
	c-1.34-0.32-2.7-0.6-4.05-0.84c-0.34-0.06-0.67-0.12-1.01-0.17c-6.14-1.08-12.33-1.55-18.51-1.44c-0.3,0-0.58,0.01-0.88,0.02h-0.01
	c-1.05,0.02-2.11,0.07-3.16,0.14c-0.3,0.02-0.61,0.03-0.91,0.06c-3.25,0.2-6.49,0.58-9.7,1.12c-0.27,0.04-0.53,0.09-0.8,0.14
	c-0.43,0.07-0.87,0.15-1.3,0.24c-0.04,0.18-0.15,0.2-0.42,0.25c-0.51,0.11-1.04,0.19-1.54,0.24c-0.21,0.02-0.42,0.04-0.62,0.04
	c-0.02,0.01-0.04,0.01-0.06,0.01c-0.12,0.02-0.24,0.05-0.36,0.08c-0.13,0.03-0.27,0.06-0.4,0.09c-3.94,0.88-7.83,2.01-11.65,3.38
	H65.7c-0.26,0.1-0.52,0.19-0.79,0.29c-0.43,0.16-0.87,0.32-1.3,0.49c-0.45,0.18-0.91,0.35-1.36,0.54c-0.28,0.11-0.56,0.22-0.84,0.34
	c-0.45,0.18-0.89,0.37-1.33,0.56c-1.38,0.59-2.73,1.21-4.1,1.86C44.02,15.73,33.01,24.05,23.71,34.8
	c-4.15,4.85-7.81,10.05-10.05,14.17C6.7,61.21,2.46,74.19,0.82,87.22L0.82,87.22z M14.96,102.56c-0.12-4.22,0.07-8.49,0.59-12.73
	c0.19-1.6,0.43-3.21,0.72-4.79c1.63-8.92,4.74-17.69,9.43-26.02c7.1-12.59,16.91-22.65,28.27-29.87c1.2-0.77,2.4-1.48,3.63-2.17
	c2.47-1.41,5.02-2.68,7.61-3.81c23.31-10.27,50.89-9.76,74.74,3.71c2.02,1.15,4,2.38,5.9,3.67c2.67,1.79,5.18,3.74,7.56,5.78
	c27.26,23.5,36.63,62.43,22.36,96.05c-0.31,0.74-0.64,1.47-0.97,2.22c-0.03,0.06-0.06,0.12-0.09,0.18
	c-0.93,2.02-1.94,4.01-3.05,5.98c-0.02,0.05-0.05,0.1-0.08,0.15c-0.01,0.02-0.02,0.03-0.03,0.05c-0.1,0.19-0.22,0.39-0.33,0.57
	c-0.89,1.54-1.81,3.03-2.79,4.49c-0.23,0.35-0.46,0.7-0.7,1.04c-10.1,14.86-24.31,25.58-40.17,31.47c-1.9,0.71-3.81,1.36-5.76,1.92
	c-20.89,6.06-44.07,4.04-64.52-7.51C30.99,158.06,15.84,130.84,14.96,102.56L14.96,102.56z"/>
</svg>
