<?xml version="1.0" encoding="utf-8"?>
<!-- Generator: Adobe Illustrator 28.2.0, SVG Export Plug-In . SVG Version: 6.00 Build 0)  -->
<svg version="1.1" id="Layer_1" xmlns="http://www.w3.org/2000/svg" xmlns:xlink="http://www.w3.org/1999/xlink" x="0px" y="0px"
	 viewBox="0 0 2807 1604" style="enable-background:new 0 0 2807 1604;" xml:space="preserve">
<style type="text/css">
	.st0{opacity:0.28;}
	.st1{fill:#F2AB1C;}
</style>
<g class="st0">
	<g>
		<path class="st1" d="M867.51,1290.22c-56.64,0.33-110.66-9.82-160.06-30.89c-132.9-56.7-219.93-183.56-287.52-300.17
			c-10.25-17.68-20.37-35.53-30.5-53.43c-58.72-103.69-119.45-210.92-210.9-287.89c-151.79-127.76-380.17-152-555.4-58.94
			l-2.61-4.92c177.18-94.1,408.12-69.58,561.59,59.59c92.22,77.63,153.2,185.29,212.16,289.41c10.12,17.88,20.23,35.72,30.46,53.38
			c67.15,115.82,153.5,241.78,284.9,297.85c154.35,65.85,355.17,23.5,537.15-113.34c80.75-60.72,153.55-133.55,223.96-203.99
			c63.79-63.82,129.75-129.81,201.57-186.78c86.2-68.38,311.23-219.15,538.36-142.45c79.05,26.69,147.23,78.23,213.16,128.06
			l8.48,6.4c71.55,54.01,142.51,104.26,223.93,125.59c92.2,24.16,185.26,2.06,237.04-56.32l4.17,3.69
			c-53.16,59.93-148.38,82.71-242.62,58.01c-82.4-21.6-153.86-72.18-225.88-126.54l-8.48-6.41
			c-65.58-49.57-133.4-100.83-211.59-127.23c-224.51-75.82-447.62,73.72-533.11,141.54c-71.57,56.77-137.42,122.65-201.1,186.35
			c-70.54,70.58-143.48,143.55-224.55,204.51C1124.59,1239.72,990.01,1289.49,867.51,1290.22z"/>
	</g>
</g>
<g class="st0">
	<g>
		<path class="st1" d="M1270.34,1192.75c-252.34,1.49-470.41-182.1-614.13-322.45c-25.25-24.66-50.83-50.27-75.56-75.03
			C432.4,646.85,279.11,493.38,81.45,425.47c-228.16-78.39-492.02-25.37-672.19,135.1l-3.7-4.16
			c88.51-78.83,199.45-133.39,320.83-157.78c121.36-24.4,244.78-16.93,356.87,21.58c198.89,68.33,352.64,222.26,501.33,371.13
			c24.72,24.75,50.28,50.34,75.51,74.98c147.68,144.21,374.18,334.31,634.83,320.12c133.18-7.24,268.85-66.09,426.97-185.22
			c42.71-32.18,84.89-66.7,125.67-100.09c79.7-65.24,162.12-132.7,252.36-185.8c92.15-54.22,273.83-137.18,455.38-83.56
			c108.26,31.97,199.36,108.22,279.74,175.49l153.73,128.67l-3.57,4.27l-153.73-128.67c-79.96-66.92-170.59-142.77-277.75-174.42
			c-179.53-53.02-359.61,29.26-450.98,83.02c-89.87,52.88-172.12,120.2-251.66,185.3c-40.83,33.42-83.05,67.98-125.85,100.22
			c-159.05,119.82-295.69,179.03-430.02,186.33C1286.9,1192.45,1278.6,1192.7,1270.34,1192.75z"/>
	</g>
</g>
</svg>
