<?xml version="1.0" encoding="utf-8"?>
<!-- Generator: Adobe Illustrator 28.2.0, SVG Export Plug-In . SVG Version: 6.00 Build 0)  -->
<svg version="1.1" xmlns="http://www.w3.org/2000/svg" xmlns:xlink="http://www.w3.org/1999/xlink" x="0px" y="0px"
	 viewBox="0 0 750 500" style="enable-background:new 0 0 750 500;" xml:space="preserve">
<style type="text/css">
	.st0{opacity:0.32;fill:#FFFFFF;}
	.st1{opacity:0.32;}
	.st2{clip-path:url(#SVGID_00000040559429852353747650000010558712854410153352_);}
	.st3{fill:#F5B1AF;}
	.st4{fill:#F9F9F9;}
	.st5{fill:#724556;}
	.st6{fill:#F5B4B3;}
	.st7{fill:#EA6460;}
	.st8{fill:none;stroke:#EB6A66;stroke-miterlimit:10;}
	.st9{clip-path:url(#SVGID_00000160180494004793067780000008441567618136268437_);}
	.st10{fill:none;stroke:#F5B1AF;stroke-miterlimit:10;}
	.st11{fill:#754959;}
	.st12{clip-path:url(#SVGID_00000105426104509388684220000013791232211076448692_);}
	.st13{fill:#EB6A66;}
	.st14{fill:none;stroke:#F9F9F9;stroke-miterlimit:10;}
	.st15{clip-path:url(#SVGID_00000057844630530565540900000018222815909801153186_);}
	.st16{clip-path:url(#SVGID_00000178912360487397102000000007661940622516978590_);}
</style>
<g id="BACKGROUND">
	<rect class="st0" width="750" height="500"/>
</g>
<g id="OBJECTS">
	<g class="st1">
		<defs>
			<rect id="SVGID_1_" class="st1" width="750" height="500"/>
		</defs>
		<clipPath id="SVGID_00000163056895169600668230000012274490617663883189_">
			<use xlink:href="#SVGID_1_"  style="overflow:visible;"/>
		</clipPath>
		<g style="clip-path:url(#SVGID_00000163056895169600668230000012274490617663883189_);">
			<g>
				<path class="st3" d="M633.7,470.6c17.6,0,31.9-14.3,31.9-31.9c0-17.6-14.3-31.9-31.9-31.9V470.6z"/>
				<path class="st4" d="M638.3,462.9c11.7,0,21.2-10.8,21.2-24s-9.5-24-21.2-24L638.3,462.9z"/>
				<path class="st3" d="M641.9,456.3c7.7,0,13.9-7.7,13.9-17.2c0-9.5-6.2-17.2-13.9-17.2L641.9,456.3z"/>
				<path class="st4" d="M645.3,448.6c4,0,7.3-4,7.3-9c0-5-3.3-9-7.3-9V448.6z"/>
			</g>
			<path class="st5" d="M720.5,304.2c-16.5,0-29.9,13.4-29.9,29.9c0,16.5,13.4,29.9,29.9,29.9V304.2z"/>
			<g>
				
					<rect x="723.2" y="304.2" transform="matrix(-1 -1.224647e-16 1.224647e-16 -1 1448.5613 668.1044)" class="st6" width="2.2" height="59.8"/>
				
					<rect x="728.6" y="304.2" transform="matrix(-1 -1.224647e-16 1.224647e-16 -1 1459.3513 668.1044)" class="st6" width="2.2" height="59.8"/>
				
					<rect x="734" y="304.2" transform="matrix(-1 -1.224647e-16 1.224647e-16 -1 1470.1415 668.1044)" class="st6" width="2.2" height="59.8"/>
				
					<rect x="739.4" y="304.2" transform="matrix(-1 -1.224647e-16 1.224647e-16 -1 1480.9315 668.1044)" class="st6" width="2.2" height="59.8"/>
				
					<rect x="744.7" y="304.2" transform="matrix(-1 -1.224647e-16 1.224647e-16 -1 1491.7217 668.1044)" class="st6" width="2.2" height="59.8"/>
				
					<rect x="750.1" y="304.2" transform="matrix(-1 -1.224647e-16 1.224647e-16 -1 1502.5118 668.1044)" class="st6" width="2.2" height="59.8"/>
			</g>
			<g>
				<rect x="685.1" y="446.7" class="st3" width="3" height="80.3"/>
				<rect x="692.7" y="446.7" class="st3" width="3" height="80.3"/>
				<rect x="700.3" y="446.7" class="st3" width="3" height="80.3"/>
				<rect x="707.9" y="446.7" class="st3" width="3" height="80.3"/>
				<rect x="715.5" y="446.7" class="st3" width="3" height="80.3"/>
				<rect x="723.1" y="446.7" class="st3" width="3" height="80.3"/>
			</g>
			<path class="st7" d="M469.5,492.3l38.5-38.5l-38.5-38.5l-38.5,38.5L469.5,492.3z M485,437.6v31h-31v-31H485z"/>
			<g>
				<path class="st3" d="M566.3,405.3c0.7,0.7,0.7,1.9,0,2.7c-0.7,0.7-1.9,0.7-2.7,0c-0.7-0.7-0.7-1.9,0-2.7
					C564.4,404.6,565.5,404.6,566.3,405.3z"/>
				<path class="st3" d="M575.4,396.1c0.7,0.7,0.7,1.9,0,2.7c-0.7,0.7-1.9,0.7-2.7,0c-0.7-0.7-0.7-1.9,0-2.7
					C573.5,395.4,574.7,395.4,575.4,396.1z"/>
				<path class="st3" d="M584.6,387c0.7,0.7,0.7,1.9,0,2.7c-0.7,0.7-1.9,0.7-2.7,0c-0.7-0.7-0.7-1.9,0-2.7
					C582.7,386.2,583.8,386.2,584.6,387z"/>
				<path class="st3" d="M593.7,377.8c0.7,0.7,0.7,1.9,0,2.7c-0.7,0.7-1.9,0.7-2.7,0c-0.7-0.7-0.7-1.9,0-2.7
					C591.8,377.1,593,377.1,593.7,377.8z"/>
				<path class="st3" d="M602.9,368.7c0.7,0.7,0.7,1.9,0,2.7c-0.7,0.7-1.9,0.7-2.7,0c-0.7-0.7-0.7-1.9,0-2.7
					C601,367.9,602.1,367.9,602.9,368.7z"/>
				<path class="st3" d="M612,359.5c0.7,0.7,0.7,1.9,0,2.7c-0.7,0.7-1.9,0.7-2.7,0c-0.7-0.7-0.7-1.9,0-2.7
					C610.1,358.8,611.3,358.8,612,359.5z"/>
			</g>
			<g>
				<circle class="st5" cx="663.7" cy="250.8" r="34.3"/>
				<g>
					<circle class="st8" cx="663.7" cy="250.8" r="42.8"/>
					
						<ellipse transform="matrix(0.99 -0.1413 0.1413 0.99 -28.7877 96.3091)" class="st8" cx="663.7" cy="250.9" rx="51.1" ry="51.1"/>
				</g>
				
					<ellipse transform="matrix(0.3791 -0.9254 0.9254 0.3791 180.0058 769.9678)" class="st6" cx="663.7" cy="250.9" rx="15.6" ry="15.6"/>
			</g>
			<path class="st3" d="M673.8,156.9l6.7,1.7c3.1,0.8,4.1,4.6,1.8,6.8l-5,4.8c-3,2.9-0.1,7.9,3.9,6.7l6.6-1.9c3-0.9,5.8,1.9,5,5
				l-1.9,6.6c-1.1,4,3.8,6.9,6.7,3.9l4.8-5c2.2-2.3,6-1.2,6.8,1.8l1.7,6.7c1,4,6.8,4,7.8,0l1.7-6.7c0.8-3.1,4.6-4.1,6.8-1.8l4.8,5
				c2.9,3,7.9,0.1,6.7-3.9l-1.9-6.6c-0.9-3,1.9-5.8,5-5l6.6,1.9c4,1.1,6.9-3.8,3.9-6.7l-5-4.8c-2.3-2.2-1.2-6,1.8-6.8l6.7-1.7
				c4-1,4-6.8,0-7.8l-6.7-1.7c-3.1-0.8-4.1-4.6-1.8-6.8l5-4.8c3-2.9,0.1-7.9-3.9-6.7l-6.6,1.9c-3,0.9-5.8-1.9-5-5l1.9-6.6
				c1.1-4-3.8-6.9-6.7-3.9l-4.8,5c-2.2,2.3-6,1.2-6.8-1.8l-1.7-6.7c-1-4-6.8-4-7.8,0l-1.7,6.7c-0.8,3.1-4.6,4.1-6.8,1.8l-4.8-5
				c-2.9-3-7.9-0.1-6.7,3.9l1.9,6.6c0.9,3-1.9,5.8-5,5l-6.6-1.9c-4-1.1-6.9,3.8-3.9,6.7l5,4.8c2.3,2.2,1.2,6-1.8,6.8l-6.7,1.7
				C669.8,150.2,669.8,155.9,673.8,156.9z M690.4,152.3l25.3-25.3l25.3,25.3l-25.3,25.3L690.4,152.3z"/>
			<path class="st3" d="M397.8,488.7l2.6,0.7c1.2,0.3,1.6,1.8,0.7,2.6l-1.9,1.9c-1.2,1.1,0,3.1,1.5,2.6l2.6-0.7
				c1.2-0.3,2.3,0.8,1.9,1.9l-0.7,2.6c-0.4,1.6,1.5,2.7,2.6,1.5l1.9-1.9c0.9-0.9,2.3-0.5,2.6,0.7l0.7,2.6c0.4,1.6,2.6,1.6,3,0
				l0.7-2.6c0.3-1.2,1.8-1.6,2.6-0.7l1.9,1.9c1.1,1.2,3.1,0,2.6-1.5l-0.7-2.6c-0.3-1.2,0.8-2.3,1.9-1.9l2.6,0.7
				c1.6,0.4,2.7-1.5,1.5-2.6l-1.9-1.9c-0.9-0.9-0.5-2.3,0.7-2.6l2.6-0.7c1.6-0.4,1.6-2.6,0-3l-2.6-0.7c-1.2-0.3-1.6-1.8-0.7-2.6
				l1.9-1.9c1.2-1.1,0-3.1-1.5-2.6l-2.6,0.7c-1.2,0.3-2.3-0.8-1.9-1.9l0.7-2.6c0.4-1.6-1.5-2.7-2.6-1.5l-1.9,1.9
				c-0.9,0.9-2.3,0.5-2.6-0.7l-0.7-2.6c-0.4-1.6-2.6-1.6-3,0l-0.7,2.6c-0.3,1.2-1.8,1.6-2.6,0.7l-1.9-1.9c-1.1-1.2-3.1,0-2.6,1.5
				l0.7,2.6c0.3,1.2-0.8,2.3-1.9,1.9l-2.6-0.7c-1.6-0.4-2.7,1.5-1.5,2.6l1.9,1.9c0.9,0.9,0.5,2.3-0.7,2.6l-2.6,0.7
				C396.2,486.1,396.2,488.3,397.8,488.7z"/>
			<g>
				<defs>
					<circle id="SVGID_00000007414819774360401680000011903404150143624622_" cx="680.2" cy="338" r="21.8"/>
				</defs>
				<clipPath id="SVGID_00000065763592283738086700000006340079660711323314_">
					<use xlink:href="#SVGID_00000007414819774360401680000011903404150143624622_"  style="overflow:visible;"/>
				</clipPath>
				<g style="clip-path:url(#SVGID_00000065763592283738086700000006340079660711323314_);">
					<line class="st10" x1="708.8" y1="359.8" x2="647.6" y2="359.8"/>
					<line class="st10" x1="708.8" y1="357.7" x2="647.6" y2="357.7"/>
					<line class="st10" x1="708.8" y1="355.6" x2="647.6" y2="355.6"/>
					<line class="st10" x1="708.8" y1="353.4" x2="647.6" y2="353.4"/>
					<line class="st10" x1="708.8" y1="351.3" x2="647.6" y2="351.3"/>
					<line class="st10" x1="708.8" y1="349.2" x2="647.6" y2="349.2"/>
					<line class="st10" x1="708.8" y1="347" x2="647.6" y2="347"/>
					<line class="st10" x1="708.8" y1="344.9" x2="647.6" y2="344.9"/>
					<line class="st10" x1="708.8" y1="342.7" x2="647.6" y2="342.7"/>
					<line class="st10" x1="708.8" y1="340.6" x2="647.6" y2="340.6"/>
					<line class="st10" x1="708.8" y1="338.5" x2="647.6" y2="338.5"/>
					<line class="st10" x1="708.8" y1="336.3" x2="647.6" y2="336.3"/>
					<line class="st10" x1="708.8" y1="334.2" x2="647.6" y2="334.2"/>
					<line class="st10" x1="708.8" y1="332.1" x2="647.6" y2="332.1"/>
					<line class="st10" x1="708.8" y1="329.9" x2="647.6" y2="329.9"/>
					<line class="st10" x1="708.8" y1="327.8" x2="647.6" y2="327.8"/>
					<line class="st10" x1="708.8" y1="325.6" x2="647.6" y2="325.6"/>
					<line class="st10" x1="708.8" y1="323.5" x2="647.6" y2="323.5"/>
					<line class="st10" x1="708.8" y1="321.4" x2="647.6" y2="321.4"/>
					<line class="st10" x1="708.8" y1="319.2" x2="647.6" y2="319.2"/>
					<line class="st10" x1="708.8" y1="317.1" x2="647.6" y2="317.1"/>
					<line class="st10" x1="708.8" y1="315" x2="647.6" y2="315"/>
					<line class="st10" x1="708.8" y1="312.8" x2="647.6" y2="312.8"/>
				</g>
			</g>
			<g>
				<path class="st11" d="M683.8,304.6c0-1,0.8-1.9,1.9-1.9s1.9,0.8,1.9,1.9s-0.8,1.9-1.9,1.9S683.8,305.7,683.8,304.6z"/>
				<circle class="st11" cx="701.8" cy="295.5" r="1.9"/>
				<circle class="st11" cx="716.7" cy="277.2" r="1.9"/>
				<circle class="st11" cx="721.5" cy="253.1" r="1.9"/>
				<circle class="st11" cx="718.6" cy="231.1" r="1.9"/>
				<circle class="st11" cx="704.7" cy="209.8" r="1.9"/>
				<circle class="st11" cx="685.7" cy="197.1" r="1.9"/>
				<path class="st11" d="M643.3,304.6c0-1-0.8-1.9-1.9-1.9s-1.9,0.8-1.9,1.9s0.8,1.9,1.9,1.9S643.3,305.7,643.3,304.6z"/>
				<circle class="st11" cx="625.3" cy="295.5" r="1.9"/>
				<circle class="st11" cx="610.4" cy="277.2" r="1.9"/>
				<circle class="st11" cx="605.6" cy="253.1" r="1.9"/>
				<circle class="st11" cx="608.5" cy="231.1" r="1.9"/>
				<circle class="st11" cx="622.4" cy="209.8" r="1.9"/>
				<circle class="st11" cx="641.4" cy="197.1" r="1.9"/>
				<path class="st11" d="M661.9,191.9c0-1,0.8-1.9,1.9-1.9c1,0,1.9,0.8,1.9,1.9c0,1-0.8,1.9-1.9,1.9
					C662.7,193.8,661.9,192.9,661.9,191.9z"/>
				<path class="st11" d="M661.9,308.4c0-1,0.8-1.9,1.9-1.9c1,0,1.9,0.8,1.9,1.9c0,1-0.8,1.9-1.9,1.9
					C662.7,310.3,661.9,309.4,661.9,308.4z"/>
			</g>
			<g>
				<polygon class="st5" points="518.5,429.5 516,429.5 513.5,429.5 513.5,427.1 513.5,424.6 516,424.6 518.5,424.6 518.4,427.1 
									"/>
				<polygon class="st5" points="513.6,424.7 511.1,424.7 508.6,424.7 508.6,422.2 508.6,419.7 511.1,419.7 513.6,419.7 
					513.6,422.2 				"/>
				<polygon class="st5" points="508.7,419.8 506.2,419.8 503.8,419.8 503.8,417.3 503.8,414.9 506.2,414.9 508.7,414.9 
					508.7,417.3 				"/>
				<polygon class="st5" points="503.9,414.9 501.4,414.9 498.9,414.9 498.9,412.5 498.9,410 501.4,410 503.9,410 503.8,412.5 				
					"/>
				<polygon class="st5" points="499,410.1 496.5,410.1 494,410.1 494,407.6 494,405.1 496.5,405.1 499,405.1 499,407.6 				"/>
				<polygon class="st5" points="494.1,405.2 491.6,405.2 489.2,405.2 489.2,402.7 489.2,400.2 491.6,400.3 494.1,400.2 
					494.1,402.7 				"/>
			</g>
			<g>
				<polygon class="st3" points="625.8,463.5 623.7,461.3 621.5,459.1 623.7,456.9 625.8,454.7 628,456.9 630.2,459.1 628,461.3 
									"/>
				<polygon class="st3" points="625.8,454.9 623.7,452.7 621.5,450.5 623.7,448.3 625.8,446.1 628,448.3 630.2,450.5 628,452.7 
									"/>
				<polygon class="st3" points="625.8,446.3 623.7,444.1 621.5,441.9 623.7,439.7 625.8,437.5 628,439.7 630.2,441.9 628,444.1 
									"/>
				<polygon class="st3" points="625.8,437.7 623.7,435.5 621.5,433.3 623.7,431.1 625.8,428.9 628,431.1 630.2,433.3 628,435.5 
									"/>
				<polygon class="st3" points="625.8,429.1 623.7,426.9 621.5,424.7 623.7,422.5 625.8,420.3 628,422.5 630.2,424.7 628,426.9 
									"/>
				<polygon class="st3" points="625.8,420.5 623.7,418.3 621.5,416.1 623.7,413.9 625.8,411.7 628,413.9 630.2,416.1 628,418.3 
									"/>
			</g>
			<g>
				<defs>
					<polygon id="SVGID_00000101811914636130545030000014837624518004904579_" points="729.9,368.1 684.6,368.1 662,407.3 
						684.6,446.6 729.9,446.6 752.5,407.3 					"/>
				</defs>
				<clipPath id="SVGID_00000017505833885461576770000006471874771155681198_">
					<use xlink:href="#SVGID_00000101811914636130545030000014837624518004904579_"  style="overflow:visible;"/>
				</clipPath>
				<g style="clip-path:url(#SVGID_00000017505833885461576770000006471874771155681198_);">
					<g>
						<path class="st7" d="M719.4,519.4l-4.4-4.3c-2.3-2.2-2.3-5.8,0-8c0,0,0.1-0.1,0.1-0.1c2.3-2.2,2.3-5.8,0-8
							c0,0-0.1-0.1-0.1-0.1c-2.3-2.2-2.3-5.8,0-8c0,0,0.1-0.1,0.1-0.1c2.3-2.2,2.3-5.8,0-8c0,0-0.1-0.1-0.1-0.1
							c-2.3-2.2-2.3-5.8,0-8c0,0,0.1-0.1,0.1-0.1c2.3-2.2,2.3-5.8,0-8c0,0-0.1-0.1-0.1-0.1c-2.3-2.2-2.3-5.8,0-8
							c0,0,0.1-0.1,0.1-0.1c2.3-2.2,2.3-5.8,0-8c0,0-0.1-0.1-0.1-0.1c-2.3-2.2-2.3-5.8,0-8c0,0,0.1-0.1,0.1-0.1c2.3-2.2,2.3-5.8,0-8
							c0,0-0.1-0.1-0.1-0.1c-2.3-2.2-2.3-5.8,0-8c0,0,0.1-0.1,0.1-0.1c2.3-2.2,2.3-5.8,0-8l-0.1-0.1c-2.3-2.2-2.3-5.8,0-8
							c0,0,0.1-0.1,0.1-0.1c2.3-2.2,2.3-5.8,0-8c0,0-0.1-0.1-0.1-0.1c-2.3-2.2-2.3-5.8,0-8c0,0,0.1-0.1,0.1-0.1c2.3-2.2,2.3-5.8,0-8
							c0,0-0.1-0.1-0.1-0.1c-2.3-2.2-2.3-5.8,0-8c0,0,0.1-0.1,0.1-0.1c2.3-2.2,2.3-5.8,0-8c0,0-0.1-0.1-0.1-0.1
							c-2.3-2.2-2.3-5.8,0-8c0,0,0.1-0.1,0.1-0.1c2.3-2.2,2.3-5.8,0-8c0,0-0.1-0.1-0.1-0.1c-2.3-2.2-2.3-5.8,0-8
							c0,0,0.1-0.1,0.1-0.1c2.3-2.2,2.3-5.8,0-8c0,0-0.1-0.1-0.1-0.1c-2.3-2.2-2.3-5.8,0-8c0,0,0.1-0.1,0.1-0.1c2.3-2.2,2.3-5.8,0-8
							l-0.1-0.1c-2.3-2.2-2.3-5.8,0-8c0,0,0.1-0.1,0.1-0.1c2.3-2.2,2.3-5.8,0-8c0,0-0.1-0.1-0.1-0.1c-2.3-2.2-2.3-5.8,0-8
							c2.2-2.1,4.4-4.3,4.4-4.3l4.4,0c0,0-2.2,2.2-4.4,4.3c-2.3,2.2-2.3,5.8,0,8c0,0,0.1,0.1,0.1,0.1c2.3,2.2,2.3,5.8,0,8
							c0,0-0.1,0.1-0.1,0.1c-2.3,2.2-2.3,5.8,0,8l0.1,0.1c2.3,2.2,2.3,5.8,0,8c0,0-0.1,0.1-0.1,0.1c-2.3,2.2-2.3,5.8,0,8
							c0,0,0.1,0.1,0.1,0.1c2.3,2.2,2.3,5.8,0,8c0,0-0.1,0.1-0.1,0.1c-2.3,2.2-2.3,5.8,0,8c0,0,0.1,0.1,0.1,0.1c2.3,2.2,2.3,5.8,0,8
							c0,0-0.1,0.1-0.1,0.1c-2.3,2.2-2.3,5.8,0,8c0,0,0.1,0.1,0.1,0.1c2.3,2.2,2.3,5.8,0,8c0,0-0.1,0.1-0.1,0.1
							c-2.3,2.2-2.3,5.8,0,8c0,0,0.1,0.1,0.1,0.1c2.3,2.2,2.3,5.8,0,8c0,0-0.1,0.1-0.1,0.1c-2.3,2.2-2.3,5.8,0,8
							c0,0,0.1,0.1,0.1,0.1c2.3,2.2,2.3,5.8,0,8c0,0-0.1,0.1-0.1,0.1c-2.3,2.2-2.3,5.8,0,8l0.1,0.1c2.3,2.2,2.3,5.8,0,8
							c0,0-0.1,0.1-0.1,0.1c-2.3,2.2-2.3,5.8,0,8c0,0,0.1,0.1,0.1,0.1c2.3,2.2,2.3,5.8,0,8c0,0-0.1,0.1-0.1,0.1
							c-2.3,2.2-2.3,5.8,0,8c0,0,0.1,0.1,0.1,0.1c2.3,2.2,2.3,5.8,0,8c0,0-0.1,0.1-0.1,0.1c-2.3,2.2-2.3,5.8,0,8
							c0,0,0.1,0.1,0.1,0.1c2.3,2.2,2.3,5.8,0,8c0,0-0.1,0.1-0.1,0.1c-2.3,2.2-2.3,5.8,0,8c0,0,0.1,0.1,0.1,0.1c2.3,2.2,2.3,5.8,0,8
							c0,0-0.1,0.1-0.1,0.1c-2.3,2.2-2.3,5.8,0,8c0,0,0.1,0.1,0.1,0.1c2.3,2.2,2.3,5.8,0,8c0,0-0.1,0.1-0.1,0.1
							c-2.3,2.2-2.3,5.8,0,8l4.4,4.3"/>
						<path class="st7" d="M715,519.5l-4.4-4.3c-2.3-2.2-2.3-5.8,0-8c0,0,0.1-0.1,0.1-0.1c2.3-2.2,2.3-5.8,0-8c0,0-0.1-0.1-0.1-0.1
							c-2.3-2.2-2.3-5.8,0-8c0,0,0.1-0.1,0.1-0.1c2.3-2.2,2.3-5.8,0-8c0,0-0.1-0.1-0.1-0.1c-2.3-2.2-2.3-5.8,0-8
							c0,0,0.1-0.1,0.1-0.1c2.3-2.2,2.3-5.8,0-8c0,0-0.1-0.1-0.1-0.1c-2.3-2.2-2.3-5.8,0-8c0,0,0.1-0.1,0.1-0.1c2.3-2.2,2.3-5.8,0-8
							c0,0-0.1-0.1-0.1-0.1c-2.3-2.2-2.3-5.8,0-8c0,0,0.1-0.1,0.1-0.1c2.3-2.2,2.3-5.8,0-8c0,0-0.1-0.1-0.1-0.1
							c-2.3-2.2-2.3-5.8,0-8c0,0,0.1-0.1,0.1-0.1c2.3-2.2,2.3-5.8,0-8l-0.1-0.1c-2.3-2.2-2.3-5.8,0-8c0,0,0.1-0.1,0.1-0.1
							c2.3-2.2,2.3-5.8,0-8c0,0-0.1-0.1-0.1-0.1c-2.3-2.2-2.3-5.8,0-8c0,0,0.1-0.1,0.1-0.1c2.3-2.2,2.3-5.8,0-8c0,0-0.1-0.1-0.1-0.1
							c-2.3-2.2-2.3-5.8,0-8c0,0,0.1-0.1,0.1-0.1c2.3-2.2,2.3-5.8,0-8c0,0-0.1-0.1-0.1-0.1c-2.3-2.2-2.3-5.8,0-8
							c0,0,0.1-0.1,0.1-0.1c2.3-2.2,2.3-5.8,0-8c0,0-0.1-0.1-0.1-0.1c-2.3-2.2-2.3-5.8,0-8c0,0,0.1-0.1,0.1-0.1c2.3-2.2,2.3-5.8,0-8
							c0,0-0.1-0.1-0.1-0.1c-2.3-2.2-2.3-5.8,0-8c0,0,0.1-0.1,0.1-0.1c2.3-2.2,2.3-5.8,0-8l-0.1-0.1c-2.3-2.2-2.3-5.8,0-8
							c0,0,0.1-0.1,0.1-0.1c2.3-2.2,2.3-5.8,0-8c0,0-0.1-0.1-0.1-0.1c-2.3-2.2-2.3-5.8,0-8c2.2-2.1,4.4-4.3,4.4-4.3l-4.4,0
							c0,0-2.2,2.2-4.4,4.3c-2.3,2.2-2.3,5.8,0,8c0,0,0.1,0.1,0.1,0.1c2.3,2.2,2.3,5.8,0,8c0,0-0.1,0.1-0.1,0.1
							c-2.3,2.2-2.3,5.8,0,8l0.1,0.1c2.3,2.2,2.3,5.8,0,8c0,0-0.1,0.1-0.1,0.1c-2.3,2.2-2.3,5.8,0,8c0,0,0.1,0.1,0.1,0.1
							c2.3,2.2,2.3,5.8,0,8c0,0-0.1,0.1-0.1,0.1c-2.3,2.2-2.3,5.8,0,8c0,0,0.1,0.1,0.1,0.1c2.3,2.2,2.3,5.8,0,8c0,0-0.1,0.1-0.1,0.1
							c-2.3,2.2-2.3,5.8,0,8c0,0,0.1,0.1,0.1,0.1c2.3,2.2,2.3,5.8,0,8c0,0-0.1,0.1-0.1,0.1c-2.3,2.2-2.3,5.8,0,8
							c0,0,0.1,0.1,0.1,0.1c2.3,2.2,2.3,5.8,0,8c0,0-0.1,0.1-0.1,0.1c-2.3,2.2-2.3,5.8,0,8c0,0,0.1,0.1,0.1,0.1c2.3,2.2,2.3,5.8,0,8
							c0,0-0.1,0.1-0.1,0.1c-2.3,2.2-2.3,5.8,0,8l0.1,0.1c2.3,2.2,2.3,5.8,0,8c0,0-0.1,0.1-0.1,0.1c-2.3,2.2-2.3,5.8,0,8
							c0,0,0.1,0.1,0.1,0.1c2.3,2.2,2.3,5.8,0,8c0,0-0.1,0.1-0.1,0.1c-2.3,2.2-2.3,5.8,0,8c0,0,0.1,0.1,0.1,0.1c2.3,2.2,2.3,5.8,0,8
							c0,0-0.1,0.1-0.1,0.1c-2.3,2.2-2.3,5.8,0,8c0,0,0.1,0.1,0.1,0.1c2.3,2.2,2.3,5.8,0,8c0,0-0.1,0.1-0.1,0.1
							c-2.3,2.2-2.3,5.8,0,8c0,0,0.1,0.1,0.1,0.1c2.3,2.2,2.3,5.8,0,8c0,0-0.1,0.1-0.1,0.1c-2.3,2.2-2.3,5.8,0,8
							c0,0,0.1,0.1,0.1,0.1c2.3,2.2,2.3,5.8,0,8c0,0-0.1,0.1-0.1,0.1c-2.3,2.2-2.3,5.8,0,8l4.4,4.3"/>
						<path class="st7" d="M706.3,519.5l-4.4-4.3c-2.3-2.2-2.3-5.8,0-8c0,0,0.1-0.1,0.1-0.1c2.3-2.2,2.3-5.8,0-8
							c0,0-0.1-0.1-0.1-0.1c-2.3-2.2-2.3-5.8,0-8c0,0,0.1-0.1,0.1-0.1c2.3-2.2,2.3-5.8,0-8c0,0-0.1-0.1-0.1-0.1
							c-2.3-2.2-2.3-5.8,0-8c0,0,0.1-0.1,0.1-0.1c2.3-2.2,2.3-5.8,0-8c0,0-0.1-0.1-0.1-0.1c-2.3-2.2-2.3-5.8,0-8
							c0,0,0.1-0.1,0.1-0.1c2.3-2.2,2.3-5.8,0-8c0,0-0.1-0.1-0.1-0.1c-2.3-2.2-2.3-5.8,0-8c0,0,0.1-0.1,0.1-0.1c2.3-2.2,2.3-5.8,0-8
							c0,0-0.1-0.1-0.1-0.1c-2.3-2.2-2.3-5.8,0-8c0,0,0.1-0.1,0.1-0.1c2.3-2.2,2.3-5.8,0-8l-0.1-0.1c-2.3-2.2-2.3-5.8,0-8
							c0,0,0.1-0.1,0.1-0.1c2.3-2.2,2.3-5.8,0-8c0,0-0.1-0.1-0.1-0.1c-2.3-2.2-2.3-5.8,0-8c0,0,0.1-0.1,0.1-0.1c2.3-2.2,2.3-5.8,0-8
							c0,0-0.1-0.1-0.1-0.1c-2.3-2.2-2.3-5.8,0-8c0,0,0.1-0.1,0.1-0.1c2.3-2.2,2.3-5.8,0-8c0,0-0.1-0.1-0.1-0.1
							c-2.3-2.2-2.3-5.8,0-8c0,0,0.1-0.1,0.1-0.1c2.3-2.2,2.3-5.8,0-8c0,0-0.1-0.1-0.1-0.1c-2.3-2.2-2.3-5.8,0-8
							c0,0,0.1-0.1,0.1-0.1c2.3-2.2,2.3-5.8,0-8c0,0-0.1-0.1-0.1-0.1c-2.3-2.2-2.3-5.8,0-8c0,0,0.1-0.1,0.1-0.1c2.3-2.2,2.3-5.8,0-8
							l-0.1-0.1c-2.3-2.2-2.3-5.8,0-8c0,0,0.1-0.1,0.1-0.1c2.3-2.2,2.3-5.8,0-8c0,0-0.1-0.1-0.1-0.1c-2.3-2.2-2.3-5.8,0-8
							c2.2-2.1,4.4-4.3,4.4-4.3l-4.4,0c0,0-2.2,2.2-4.4,4.3c-2.3,2.2-2.3,5.8,0,8c0,0,0.1,0.1,0.1,0.1c2.3,2.2,2.3,5.8,0,8
							c0,0-0.1,0.1-0.1,0.1c-2.3,2.2-2.3,5.8,0,8l0.1,0.1c2.3,2.2,2.3,5.8,0,8c0,0-0.1,0.1-0.1,0.1c-2.3,2.2-2.3,5.8,0,8
							c0,0,0.1,0.1,0.1,0.1c2.3,2.2,2.3,5.8,0,8c0,0-0.1,0.1-0.1,0.1c-2.3,2.2-2.3,5.8,0,8c0,0,0.1,0.1,0.1,0.1c2.3,2.2,2.3,5.8,0,8
							c0,0-0.1,0.1-0.1,0.1c-2.3,2.2-2.3,5.8,0,8c0,0,0.1,0.1,0.1,0.1c2.3,2.2,2.3,5.8,0,8c0,0-0.1,0.1-0.1,0.1
							c-2.3,2.2-2.3,5.8,0,8c0,0,0.1,0.1,0.1,0.1c2.3,2.2,2.3,5.8,0,8c0,0-0.1,0.1-0.1,0.1c-2.3,2.2-2.3,5.8,0,8
							c0,0,0.1,0.1,0.1,0.1c2.3,2.2,2.3,5.8,0,8c0,0-0.1,0.1-0.1,0.1c-2.3,2.2-2.3,5.8,0,8l0.1,0.1c2.3,2.2,2.3,5.8,0,8
							c0,0-0.1,0.1-0.1,0.1c-2.3,2.2-2.3,5.8,0,8c0,0,0.1,0.1,0.1,0.1c2.3,2.2,2.3,5.8,0,8c0,0-0.1,0.1-0.1,0.1
							c-2.3,2.2-2.3,5.8,0,8c0,0,0.1,0.1,0.1,0.1c2.3,2.2,2.3,5.8,0,8c0,0-0.1,0.1-0.1,0.1c-2.3,2.2-2.3,5.8,0,8
							c0,0,0.1,0.1,0.1,0.1c2.3,2.2,2.3,5.8,0,8c0,0-0.1,0.1-0.1,0.1c-2.3,2.2-2.3,5.8,0,8c0,0,0.1,0.1,0.1,0.1c2.3,2.2,2.3,5.8,0,8
							c0,0-0.1,0.1-0.1,0.1c-2.3,2.2-2.3,5.8,0,8c0,0,0.1,0.1,0.1,0.1c2.3,2.2,2.3,5.8,0,8c0,0-0.1,0.1-0.1,0.1
							c-2.3,2.2-2.3,5.8,0,8l4.4,4.3"/>
						<path class="st7" d="M693.1,519.7l-4.4-4.3c-2.3-2.2-2.3-5.8,0-8c0,0,0.1-0.1,0.1-0.1c2.3-2.2,2.3-5.8,0-8
							c0,0-0.1-0.1-0.1-0.1c-2.3-2.2-2.3-5.8,0-8c0,0,0.1-0.1,0.1-0.1c2.3-2.2,2.3-5.8,0-8c0,0-0.1-0.1-0.1-0.1
							c-2.3-2.2-2.3-5.8,0-8c0,0,0.1-0.1,0.1-0.1c2.3-2.2,2.3-5.8,0-8c0,0-0.1-0.1-0.1-0.1c-2.3-2.2-2.3-5.8,0-8
							c0,0,0.1-0.1,0.1-0.1c2.3-2.2,2.3-5.8,0-8c0,0-0.1-0.1-0.1-0.1c-2.3-2.2-2.3-5.8,0-8c0,0,0.1-0.1,0.1-0.1c2.3-2.2,2.3-5.8,0-8
							c0,0-0.1-0.1-0.1-0.1c-2.3-2.2-2.3-5.8,0-8c0,0,0.1-0.1,0.1-0.1c2.3-2.2,2.3-5.8,0-8l-0.1-0.1c-2.3-2.2-2.3-5.8,0-8
							c0,0,0.1-0.1,0.1-0.1c2.3-2.2,2.3-5.8,0-8c0,0-0.1-0.1-0.1-0.1c-2.3-2.2-2.3-5.8,0-8c0,0,0.1-0.1,0.1-0.1c2.3-2.2,2.3-5.8,0-8
							c0,0-0.1-0.1-0.1-0.1c-2.3-2.2-2.3-5.8,0-8c0,0,0.1-0.1,0.1-0.1c2.3-2.2,2.3-5.8,0-8c0,0-0.1-0.1-0.1-0.1
							c-2.3-2.2-2.3-5.8,0-8c0,0,0.1-0.1,0.1-0.1c2.3-2.2,2.3-5.8,0-8c0,0-0.1-0.1-0.1-0.1c-2.3-2.2-2.3-5.8,0-8
							c0,0,0.1-0.1,0.1-0.1c2.3-2.2,2.3-5.8,0-8c0,0-0.1-0.1-0.1-0.1c-2.3-2.2-2.3-5.8,0-8c0,0,0.1-0.1,0.1-0.1c2.3-2.2,2.3-5.8,0-8
							l-0.1-0.1c-2.3-2.2-2.3-5.8,0-8c0,0,0.1-0.1,0.1-0.1c2.3-2.2,2.3-5.8,0-8c0,0-0.1-0.1-0.1-0.1c-2.3-2.2-2.3-5.8,0-8
							c2.2-2.1,4.4-4.3,4.4-4.3l4.4,0c0,0-2.2,2.2-4.4,4.3c-2.3,2.2-2.3,5.8,0,8c0,0,0.1,0.1,0.1,0.1c2.3,2.2,2.3,5.8,0,8
							c0,0-0.1,0.1-0.1,0.1c-2.3,2.2-2.3,5.8,0,8l0.1,0.1c2.3,2.2,2.3,5.8,0,8c0,0-0.1,0.1-0.1,0.1c-2.3,2.2-2.3,5.8,0,8
							c0,0,0.1,0.1,0.1,0.1c2.3,2.2,2.3,5.8,0,8c0,0-0.1,0.1-0.1,0.1c-2.3,2.2-2.3,5.8,0,8c0,0,0.1,0.1,0.1,0.1c2.3,2.2,2.3,5.8,0,8
							c0,0-0.1,0.1-0.1,0.1c-2.3,2.2-2.3,5.8,0,8c0,0,0.1,0.1,0.1,0.1c2.3,2.2,2.3,5.8,0,8c0,0-0.1,0.1-0.1,0.1
							c-2.3,2.2-2.3,5.8,0,8c0,0,0.1,0.1,0.1,0.1c2.3,2.2,2.3,5.8,0,8c0,0-0.1,0.1-0.1,0.1c-2.3,2.2-2.3,5.8,0,8
							c0,0,0.1,0.1,0.1,0.1c2.3,2.2,2.3,5.8,0,8c0,0-0.1,0.1-0.1,0.1c-2.3,2.2-2.3,5.8,0,8l0.1,0.1c2.3,2.2,2.3,5.8,0,8
							c0,0-0.1,0.1-0.1,0.1c-2.3,2.2-2.3,5.8,0,8c0,0,0.1,0.1,0.1,0.1c2.3,2.2,2.3,5.8,0,8c0,0-0.1,0.1-0.1,0.1
							c-2.3,2.2-2.3,5.8,0,8c0,0,0.1,0.1,0.1,0.1c2.3,2.2,2.3,5.8,0,8c0,0-0.1,0.1-0.1,0.1c-2.3,2.2-2.3,5.8,0,8
							c0,0,0.1,0.1,0.1,0.1c2.3,2.2,2.3,5.8,0,8c0,0-0.1,0.1-0.1,0.1c-2.3,2.2-2.3,5.8,0,8c0,0,0.1,0.1,0.1,0.1c2.3,2.2,2.3,5.8,0,8
							c0,0-0.1,0.1-0.1,0.1c-2.3,2.2-2.3,5.8,0,8c0,0,0.1,0.1,0.1,0.1c2.3,2.2,2.3,5.8,0,8c0,0-0.1,0.1-0.1,0.1
							c-2.3,2.2-2.3,5.8,0,8l4.4,4.3"/>
						<path class="st7" d="M688.7,519.7l-4.4-4.3c-2.3-2.2-2.3-5.8,0-8c0,0,0.1-0.1,0.1-0.1c2.3-2.2,2.3-5.8,0-8
							c0,0-0.1-0.1-0.1-0.1c-2.3-2.2-2.3-5.8,0-8c0,0,0.1-0.1,0.1-0.1c2.3-2.2,2.3-5.8,0-8c0,0-0.1-0.1-0.1-0.1
							c-2.3-2.2-2.3-5.8,0-8c0,0,0.1-0.1,0.1-0.1c2.3-2.2,2.3-5.8,0-8c0,0-0.1-0.1-0.1-0.1c-2.3-2.2-2.3-5.8,0-8
							c0,0,0.1-0.1,0.1-0.1c2.3-2.2,2.3-5.8,0-8c0,0-0.1-0.1-0.1-0.1c-2.3-2.2-2.3-5.8,0-8c0,0,0.1-0.1,0.1-0.1c2.3-2.2,2.3-5.8,0-8
							c0,0-0.1-0.1-0.1-0.1c-2.3-2.2-2.3-5.8,0-8c0,0,0.1-0.1,0.1-0.1c2.3-2.2,2.3-5.8,0-8l-0.1-0.1c-2.3-2.2-2.3-5.8,0-8
							c0,0,0.1-0.1,0.1-0.1c2.3-2.2,2.3-5.8,0-8c0,0-0.1-0.1-0.1-0.1c-2.3-2.2-2.3-5.8,0-8c0,0,0.1-0.1,0.1-0.1c2.3-2.2,2.3-5.8,0-8
							c0,0-0.1-0.1-0.1-0.1c-2.3-2.2-2.3-5.8,0-8c0,0,0.1-0.1,0.1-0.1c2.3-2.2,2.3-5.8,0-8c0,0-0.1-0.1-0.1-0.1
							c-2.3-2.2-2.3-5.8,0-8c0,0,0.1-0.1,0.1-0.1c2.3-2.2,2.3-5.8,0-8c0,0-0.1-0.1-0.1-0.1c-2.3-2.2-2.3-5.8,0-8
							c0,0,0.1-0.1,0.1-0.1c2.3-2.2,2.3-5.8,0-8c0,0-0.1-0.1-0.1-0.1c-2.3-2.2-2.3-5.8,0-8c0,0,0.1-0.1,0.1-0.1c2.3-2.2,2.3-5.8,0-8
							l-0.1-0.1c-2.3-2.2-2.3-5.8,0-8c0,0,0.1-0.1,0.1-0.1c2.3-2.2,2.3-5.8,0-8c0,0-0.1-0.1-0.1-0.1c-2.3-2.2-2.3-5.8,0-8
							c2.2-2.1,4.4-4.3,4.4-4.3l-4.4,0c0,0-2.2,2.2-4.4,4.3c-2.3,2.2-2.3,5.8,0,8c0,0,0.1,0.1,0.1,0.1c2.3,2.2,2.3,5.8,0,8
							c0,0-0.1,0.1-0.1,0.1c-2.3,2.2-2.3,5.8,0,8l0.1,0.1c2.3,2.2,2.3,5.8,0,8c0,0-0.1,0.1-0.1,0.1c-2.3,2.2-2.3,5.8,0,8
							c0,0,0.1,0.1,0.1,0.1c2.3,2.2,2.3,5.8,0,8c0,0-0.1,0.1-0.1,0.1c-2.3,2.2-2.3,5.8,0,8c0,0,0.1,0.1,0.1,0.1c2.3,2.2,2.3,5.8,0,8
							c0,0-0.1,0.1-0.1,0.1c-2.3,2.2-2.3,5.8,0,8c0,0,0.1,0.1,0.1,0.1c2.3,2.2,2.3,5.8,0,8c0,0-0.1,0.1-0.1,0.1
							c-2.3,2.2-2.3,5.8,0,8c0,0,0.1,0.1,0.1,0.1c2.3,2.2,2.3,5.8,0,8c0,0-0.1,0.1-0.1,0.1c-2.3,2.2-2.3,5.8,0,8
							c0,0,0.1,0.1,0.1,0.1c2.3,2.2,2.3,5.8,0,8c0,0-0.1,0.1-0.1,0.1c-2.3,2.2-2.3,5.8,0,8l0.1,0.1c2.3,2.2,2.3,5.8,0,8
							c0,0-0.1,0.1-0.1,0.1c-2.3,2.2-2.3,5.8,0,8c0,0,0.1,0.1,0.1,0.1c2.3,2.2,2.3,5.8,0,8c0,0-0.1,0.1-0.1,0.1
							c-2.3,2.2-2.3,5.8,0,8c0,0,0.1,0.1,0.1,0.1c2.3,2.2,2.3,5.8,0,8c0,0-0.1,0.1-0.1,0.1c-2.3,2.2-2.3,5.8,0,8
							c0,0,0.1,0.1,0.1,0.1c2.3,2.2,2.3,5.8,0,8c0,0-0.1,0.1-0.1,0.1c-2.3,2.2-2.3,5.8,0,8c0,0,0.1,0.1,0.1,0.1c2.3,2.2,2.3,5.8,0,8
							c0,0-0.1,0.1-0.1,0.1c-2.3,2.2-2.3,5.8,0,8c0,0,0.1,0.1,0.1,0.1c2.3,2.2,2.3,5.8,0,8c0,0-0.1,0.1-0.1,0.1
							c-2.3,2.2-2.3,5.8,0,8l4.4,4.3"/>
						<path class="st7" d="M680,519.8l-4.4-4.3c-2.3-2.2-2.3-5.8,0-8c0,0,0.1-0.1,0.1-0.1c2.3-2.2,2.3-5.8,0-8c0,0-0.1-0.1-0.1-0.1
							c-2.3-2.2-2.3-5.8,0-8c0,0,0.1-0.1,0.1-0.1c2.3-2.2,2.3-5.8,0-8c0,0-0.1-0.1-0.1-0.1c-2.3-2.2-2.3-5.8,0-8
							c0,0,0.1-0.1,0.1-0.1c2.3-2.2,2.3-5.8,0-8c0,0-0.1-0.1-0.1-0.1c-2.3-2.2-2.3-5.8,0-8c0,0,0.1-0.1,0.1-0.1c2.3-2.2,2.3-5.8,0-8
							c0,0-0.1-0.1-0.1-0.1c-2.3-2.2-2.3-5.8,0-8c0,0,0.1-0.1,0.1-0.1c2.3-2.2,2.3-5.8,0-8c0,0-0.1-0.1-0.1-0.1
							c-2.3-2.2-2.3-5.8,0-8c0,0,0.1-0.1,0.1-0.1c2.3-2.2,2.3-5.8,0-8l-0.1-0.1c-2.3-2.2-2.3-5.8,0-8c0,0,0.1-0.1,0.1-0.1
							c2.3-2.2,2.3-5.8,0-8c0,0-0.1-0.1-0.1-0.1c-2.3-2.2-2.3-5.8,0-8c0,0,0.1-0.1,0.1-0.1c2.3-2.2,2.3-5.8,0-8c0,0-0.1-0.1-0.1-0.1
							c-2.3-2.2-2.3-5.8,0-8c0,0,0.1-0.1,0.1-0.1c2.3-2.2,2.3-5.8,0-8c0,0-0.1-0.1-0.1-0.1c-2.3-2.2-2.3-5.8,0-8
							c0,0,0.1-0.1,0.1-0.1c2.3-2.2,2.3-5.8,0-8c0,0-0.1-0.1-0.1-0.1c-2.3-2.2-2.3-5.8,0-8c0,0,0.1-0.1,0.1-0.1c2.3-2.2,2.3-5.8,0-8
							c0,0-0.1-0.1-0.1-0.1c-2.3-2.2-2.3-5.8,0-8c0,0,0.1-0.1,0.1-0.1c2.3-2.2,2.3-5.8,0-8l-0.1-0.1c-2.3-2.2-2.3-5.8,0-8
							c0,0,0.1-0.1,0.1-0.1c2.3-2.2,2.3-5.8,0-8c0,0-0.1-0.1-0.1-0.1c-2.3-2.2-2.3-5.8,0-8c2.2-2.1,4.4-4.3,4.4-4.3l-4.4,0
							c0,0-2.2,2.2-4.4,4.3c-2.3,2.2-2.3,5.8,0,8c0,0,0.1,0.1,0.1,0.1c2.3,2.2,2.3,5.8,0,8c0,0-0.1,0.1-0.1,0.1
							c-2.3,2.2-2.3,5.8,0,8l0.1,0.1c2.3,2.2,2.3,5.8,0,8c0,0-0.1,0.1-0.1,0.1c-2.3,2.2-2.3,5.8,0,8c0,0,0.1,0.1,0.1,0.1
							c2.3,2.2,2.3,5.8,0,8c0,0-0.1,0.1-0.1,0.1c-2.3,2.2-2.3,5.8,0,8c0,0,0.1,0.1,0.1,0.1c2.3,2.2,2.3,5.8,0,8c0,0-0.1,0.1-0.1,0.1
							c-2.3,2.2-2.3,5.8,0,8c0,0,0.1,0.1,0.1,0.1c2.3,2.2,2.3,5.8,0,8c0,0-0.1,0.1-0.1,0.1c-2.3,2.2-2.3,5.8,0,8
							c0,0,0.1,0.1,0.1,0.1c2.3,2.2,2.3,5.8,0,8c0,0-0.1,0.1-0.1,0.1c-2.3,2.2-2.3,5.8,0,8c0,0,0.1,0.1,0.1,0.1c2.3,2.2,2.3,5.8,0,8
							c0,0-0.1,0.1-0.1,0.1c-2.3,2.2-2.3,5.8,0,8l0.1,0.1c2.3,2.2,2.3,5.8,0,8c0,0-0.1,0.1-0.1,0.1c-2.3,2.2-2.3,5.8,0,8
							c0,0,0.1,0.1,0.1,0.1c2.3,2.2,2.3,5.8,0,8c0,0-0.1,0.1-0.1,0.1c-2.3,2.2-2.3,5.8,0,8c0,0,0.1,0.1,0.1,0.1c2.3,2.2,2.3,5.8,0,8
							c0,0-0.1,0.1-0.1,0.1c-2.3,2.2-2.3,5.8,0,8c0,0,0.1,0.1,0.1,0.1c2.3,2.2,2.3,5.8,0,8c0,0-0.1,0.1-0.1,0.1
							c-2.3,2.2-2.3,5.8,0,8c0,0,0.1,0.1,0.1,0.1c2.3,2.2,2.3,5.8,0,8c0,0-0.1,0.1-0.1,0.1c-2.3,2.2-2.3,5.8,0,8
							c0,0,0.1,0.1,0.1,0.1c2.3,2.2,2.3,5.8,0,8c0,0-0.1,0.1-0.1,0.1c-2.3,2.2-2.3,5.8,0,8l4.4,4.3"/>
						<path class="st7" d="M666.6,520.4l-4.4-4.3c-2.3-2.2-2.3-5.8,0-8c0,0,0.1-0.1,0.1-0.1c2.3-2.2,2.3-5.8,0-8
							c0,0-0.1-0.1-0.1-0.1c-2.3-2.2-2.3-5.8,0-8c0,0,0.1-0.1,0.1-0.1c2.3-2.2,2.3-5.8,0-8c0,0-0.1-0.1-0.1-0.1
							c-2.3-2.2-2.3-5.8,0-8c0,0,0.1-0.1,0.1-0.1c2.3-2.2,2.3-5.8,0-8c0,0-0.1-0.1-0.1-0.1c-2.3-2.2-2.3-5.8,0-8
							c0,0,0.1-0.1,0.1-0.1c2.3-2.2,2.3-5.8,0-8c0,0-0.1-0.1-0.1-0.1c-2.3-2.2-2.3-5.8,0-8c0,0,0.1-0.1,0.1-0.1c2.3-2.2,2.3-5.8,0-8
							c0,0-0.1-0.1-0.1-0.1c-2.3-2.2-2.3-5.8,0-8c0,0,0.1-0.1,0.1-0.1c2.3-2.2,2.3-5.8,0-8l-0.1-0.1c-2.3-2.2-2.3-5.8,0-8
							c0,0,0.1-0.1,0.1-0.1c2.3-2.2,2.3-5.8,0-8c0,0-0.1-0.1-0.1-0.1c-2.3-2.2-2.3-5.8,0-8c0,0,0.1-0.1,0.1-0.1c2.3-2.2,2.3-5.8,0-8
							c0,0-0.1-0.1-0.1-0.1c-2.3-2.2-2.3-5.8,0-8c0,0,0.1-0.1,0.1-0.1c2.3-2.2,2.3-5.8,0-8c0,0-0.1-0.1-0.1-0.1
							c-2.3-2.2-2.3-5.8,0-8c0,0,0.1-0.1,0.1-0.1c2.3-2.2,2.3-5.8,0-8c0,0-0.1-0.1-0.1-0.1c-2.3-2.2-2.3-5.8,0-8
							c0,0,0.1-0.1,0.1-0.1c2.3-2.2,2.3-5.8,0-8c0,0-0.1-0.1-0.1-0.1c-2.3-2.2-2.3-5.8,0-8c0,0,0.1-0.1,0.1-0.1c2.3-2.2,2.3-5.8,0-8
							l-0.1-0.1c-2.3-2.2-2.3-5.8,0-8c0,0,0.1-0.1,0.1-0.1c2.3-2.2,2.3-5.8,0-8c0,0-0.1-0.1-0.1-0.1c-2.3-2.2-2.3-5.8,0-8
							c2.2-2.1,4.4-4.3,4.4-4.3l4.7-0.5c0,0-2.2,2.2-4.4,4.3c-2.3,2.2-2.3,5.8,0,8c0,0,0.1,0.1,0.1,0.1c2.3,2.2,2.3,5.8,0,8
							c0,0-0.1,0.1-0.1,0.1c-2.3,2.2-2.3,5.8,0,8l0.1,0.1c2.3,2.2,2.3,5.8,0,8c0,0-0.1,0.1-0.1,0.1c-2.3,2.2-2.3,5.8,0,8
							c0,0,0.1,0.1,0.1,0.1c2.3,2.2,2.3,5.8,0,8c0,0-0.1,0.1-0.1,0.1c-2.3,2.2-2.3,5.8,0,8c0,0,0.1,0.1,0.1,0.1c2.3,2.2,2.3,5.8,0,8
							c0,0-0.1,0.1-0.1,0.1c-2.3,2.2-2.3,5.8,0,8c0,0,0.1,0.1,0.1,0.1c2.3,2.2,2.3,5.8,0,8c0,0-0.1,0.1-0.1,0.1
							c-2.3,2.2-2.3,5.8,0,8c0,0,0.1,0.1,0.1,0.1c2.3,2.2,2.3,5.8,0,8c0,0-0.1,0.1-0.1,0.1c-2.3,2.2-2.3,5.8,0,8
							c0,0,0.1,0.1,0.1,0.1c2.3,2.2,2.3,5.8,0,8c0,0-0.1,0.1-0.1,0.1c-2.3,2.2-2.3,5.8,0,8l0.1,0.1c2.3,2.2,2.3,5.8,0,8
							c0,0-0.1,0.1-0.1,0.1c-2.3,2.2-2.3,5.8,0,8c0,0,0.1,0.1,0.1,0.1c2.3,2.2,2.3,5.8,0,8c0,0-0.1,0.1-0.1,0.1
							c-2.3,2.2-2.3,5.8,0,8c0,0,0.1,0.1,0.1,0.1c2.3,2.2,2.3,5.8,0,8c0,0-0.1,0.1-0.1,0.1c-2.3,2.2-2.3,5.8,0,8
							c0,0,0.1,0.1,0.1,0.1c2.3,2.2,2.3,5.8,0,8c0,0-0.1,0.1-0.1,0.1c-2.3,2.2-2.3,5.8,0,8c0,0,0.1,0.1,0.1,0.1c2.3,2.2,2.3,5.8,0,8
							c0,0-0.1,0.1-0.1,0.1c-2.3,2.2-2.3,5.8,0,8c0,0,0.1,0.1,0.1,0.1c2.3,2.2,2.3,5.8,0,8c0,0-0.1,0.1-0.1,0.1
							c-2.3,2.2-2.3,5.8,0,8l4.4,4.3"/>
					</g>
					<g>
						<path class="st7" d="M781.3,519.4l-4.4-4.3c-2.3-2.2-2.3-5.8,0-8c0,0,0.1-0.1,0.1-0.1c2.3-2.2,2.3-5.8,0-8
							c0,0-0.1-0.1-0.1-0.1c-2.3-2.2-2.3-5.8,0-8c0,0,0.1-0.1,0.1-0.1c2.3-2.2,2.3-5.8,0-8c0,0-0.1-0.1-0.1-0.1
							c-2.3-2.2-2.3-5.8,0-8c0,0,0.1-0.1,0.1-0.1c2.3-2.2,2.3-5.8,0-8c0,0-0.1-0.1-0.1-0.1c-2.3-2.2-2.3-5.8,0-8
							c0,0,0.1-0.1,0.1-0.1c2.3-2.2,2.3-5.8,0-8c0,0-0.1-0.1-0.1-0.1c-2.3-2.2-2.3-5.8,0-8c0,0,0.1-0.1,0.1-0.1c2.3-2.2,2.3-5.8,0-8
							c0,0-0.1-0.1-0.1-0.1c-2.3-2.2-2.3-5.8,0-8c0,0,0.1-0.1,0.1-0.1c2.3-2.2,2.3-5.8,0-8l-0.1-0.1c-2.3-2.2-2.3-5.8,0-8
							c0,0,0.1-0.1,0.1-0.1c2.3-2.2,2.3-5.8,0-8c0,0-0.1-0.1-0.1-0.1c-2.3-2.2-2.3-5.8,0-8c0,0,0.1-0.1,0.1-0.1c2.3-2.2,2.3-5.8,0-8
							c0,0-0.1-0.1-0.1-0.1c-2.3-2.2-2.3-5.8,0-8c0,0,0.1-0.1,0.1-0.1c2.3-2.2,2.3-5.8,0-8c0,0-0.1-0.1-0.1-0.1
							c-2.3-2.2-2.3-5.8,0-8c0,0,0.1-0.1,0.1-0.1c2.3-2.2,2.3-5.8,0-8c0,0-0.1-0.1-0.1-0.1c-2.3-2.2-2.3-5.8,0-8
							c0,0,0.1-0.1,0.1-0.1c2.3-2.2,2.3-5.8,0-8c0,0-0.1-0.1-0.1-0.1c-2.3-2.2-2.3-5.8,0-8c0,0,0.1-0.1,0.1-0.1c2.3-2.2,2.3-5.8,0-8
							l-0.1-0.1c-2.3-2.2-2.3-5.8,0-8c0,0,0.1-0.1,0.1-0.1c2.3-2.2,2.3-5.8,0-8c0,0-0.1-0.1-0.1-0.1c-2.3-2.2-2.3-5.8,0-8
							c2.2-2.1,4.4-4.3,4.4-4.3l4.4,0c0,0-2.2,2.2-4.4,4.3c-2.3,2.2-2.3,5.8,0,8c0,0,0.1,0.1,0.1,0.1c2.3,2.2,2.3,5.8,0,8
							c0,0-0.1,0.1-0.1,0.1c-2.3,2.2-2.3,5.8,0,8l0.1,0.1c2.3,2.2,2.3,5.8,0,8c0,0-0.1,0.1-0.1,0.1c-2.3,2.2-2.3,5.8,0,8
							c0,0,0.1,0.1,0.1,0.1c2.3,2.2,2.3,5.8,0,8c0,0-0.1,0.1-0.1,0.1c-2.3,2.2-2.3,5.8,0,8c0,0,0.1,0.1,0.1,0.1c2.3,2.2,2.3,5.8,0,8
							c0,0-0.1,0.1-0.1,0.1c-2.3,2.2-2.3,5.8,0,8c0,0,0.1,0.1,0.1,0.1c2.3,2.2,2.3,5.8,0,8c0,0-0.1,0.1-0.1,0.1
							c-2.3,2.2-2.3,5.8,0,8c0,0,0.1,0.1,0.1,0.1c2.3,2.2,2.3,5.8,0,8c0,0-0.1,0.1-0.1,0.1c-2.3,2.2-2.3,5.8,0,8
							c0,0,0.1,0.1,0.1,0.1c2.3,2.2,2.3,5.8,0,8c0,0-0.1,0.1-0.1,0.1c-2.3,2.2-2.3,5.8,0,8l0.1,0.1c2.3,2.2,2.3,5.8,0,8
							c0,0-0.1,0.1-0.1,0.1c-2.3,2.2-2.3,5.8,0,8c0,0,0.1,0.1,0.1,0.1c2.3,2.2,2.3,5.8,0,8c0,0-0.1,0.1-0.1,0.1
							c-2.3,2.2-2.3,5.8,0,8c0,0,0.1,0.1,0.1,0.1c2.3,2.2,2.3,5.8,0,8c0,0-0.1,0.1-0.1,0.1c-2.3,2.2-2.3,5.8,0,8
							c0,0,0.1,0.1,0.1,0.1c2.3,2.2,2.3,5.8,0,8c0,0-0.1,0.1-0.1,0.1c-2.3,2.2-2.3,5.8,0,8c0,0,0.1,0.1,0.1,0.1c2.3,2.2,2.3,5.8,0,8
							c0,0-0.1,0.1-0.1,0.1c-2.3,2.2-2.3,5.8,0,8c0,0,0.1,0.1,0.1,0.1c2.3,2.2,2.3,5.8,0,8c0,0-0.1,0.1-0.1,0.1
							c-2.3,2.2-2.3,5.8,0,8l4.4,4.3"/>
						<path class="st7" d="M776.9,519.5l-4.4-4.3c-2.3-2.2-2.3-5.8,0-8c0,0,0.1-0.1,0.1-0.1c2.3-2.2,2.3-5.8,0-8
							c0,0-0.1-0.1-0.1-0.1c-2.3-2.2-2.3-5.8,0-8c0,0,0.1-0.1,0.1-0.1c2.3-2.2,2.3-5.8,0-8c0,0-0.1-0.1-0.1-0.1
							c-2.3-2.2-2.3-5.8,0-8c0,0,0.1-0.1,0.1-0.1c2.3-2.2,2.3-5.8,0-8c0,0-0.1-0.1-0.1-0.1c-2.3-2.2-2.3-5.8,0-8
							c0,0,0.1-0.1,0.1-0.1c2.3-2.2,2.3-5.8,0-8c0,0-0.1-0.1-0.1-0.1c-2.3-2.2-2.3-5.8,0-8c0,0,0.1-0.1,0.1-0.1c2.3-2.2,2.3-5.8,0-8
							c0,0-0.1-0.1-0.1-0.1c-2.3-2.2-2.3-5.8,0-8c0,0,0.1-0.1,0.1-0.1c2.3-2.2,2.3-5.8,0-8l-0.1-0.1c-2.3-2.2-2.3-5.8,0-8
							c0,0,0.1-0.1,0.1-0.1c2.3-2.2,2.3-5.8,0-8c0,0-0.1-0.1-0.1-0.1c-2.3-2.2-2.3-5.8,0-8c0,0,0.1-0.1,0.1-0.1c2.3-2.2,2.3-5.8,0-8
							c0,0-0.1-0.1-0.1-0.1c-2.3-2.2-2.3-5.8,0-8c0,0,0.1-0.1,0.1-0.1c2.3-2.2,2.3-5.8,0-8c0,0-0.1-0.1-0.1-0.1
							c-2.3-2.2-2.3-5.8,0-8c0,0,0.1-0.1,0.1-0.1c2.3-2.2,2.3-5.8,0-8c0,0-0.1-0.1-0.1-0.1c-2.3-2.2-2.3-5.8,0-8
							c0,0,0.1-0.1,0.1-0.1c2.3-2.2,2.3-5.8,0-8c0,0-0.1-0.1-0.1-0.1c-2.3-2.2-2.3-5.8,0-8c0,0,0.1-0.1,0.1-0.1c2.3-2.2,2.3-5.8,0-8
							l-0.1-0.1c-2.3-2.2-2.3-5.8,0-8c0,0,0.1-0.1,0.1-0.1c2.3-2.2,2.3-5.8,0-8c0,0-0.1-0.1-0.1-0.1c-2.3-2.2-2.3-5.8,0-8
							c2.2-2.1,4.4-4.3,4.4-4.3l-4.4,0c0,0-2.2,2.2-4.4,4.3c-2.3,2.2-2.3,5.8,0,8c0,0,0.1,0.1,0.1,0.1c2.3,2.2,2.3,5.8,0,8
							c0,0-0.1,0.1-0.1,0.1c-2.3,2.2-2.3,5.8,0,8l0.1,0.1c2.3,2.2,2.3,5.8,0,8c0,0-0.1,0.1-0.1,0.1c-2.3,2.2-2.3,5.8,0,8
							c0,0,0.1,0.1,0.1,0.1c2.3,2.2,2.3,5.8,0,8c0,0-0.1,0.1-0.1,0.1c-2.3,2.2-2.3,5.8,0,8c0,0,0.1,0.1,0.1,0.1c2.3,2.2,2.3,5.8,0,8
							c0,0-0.1,0.1-0.1,0.1c-2.3,2.2-2.3,5.8,0,8c0,0,0.1,0.1,0.1,0.1c2.3,2.2,2.3,5.8,0,8c0,0-0.1,0.1-0.1,0.1
							c-2.3,2.2-2.3,5.8,0,8c0,0,0.1,0.1,0.1,0.1c2.3,2.2,2.3,5.8,0,8c0,0-0.1,0.1-0.1,0.1c-2.3,2.2-2.3,5.8,0,8
							c0,0,0.1,0.1,0.1,0.1c2.3,2.2,2.3,5.8,0,8c0,0-0.1,0.1-0.1,0.1c-2.3,2.2-2.3,5.8,0,8l0.1,0.1c2.3,2.2,2.3,5.8,0,8
							c0,0-0.1,0.1-0.1,0.1c-2.3,2.2-2.3,5.8,0,8c0,0,0.1,0.1,0.1,0.1c2.3,2.2,2.3,5.8,0,8c0,0-0.1,0.1-0.1,0.1
							c-2.3,2.2-2.3,5.8,0,8c0,0,0.1,0.1,0.1,0.1c2.3,2.2,2.3,5.8,0,8c0,0-0.1,0.1-0.1,0.1c-2.3,2.2-2.3,5.8,0,8
							c0,0,0.1,0.1,0.1,0.1c2.3,2.2,2.3,5.8,0,8c0,0-0.1,0.1-0.1,0.1c-2.3,2.2-2.3,5.8,0,8c0,0,0.1,0.1,0.1,0.1c2.3,2.2,2.3,5.8,0,8
							c0,0-0.1,0.1-0.1,0.1c-2.3,2.2-2.3,5.8,0,8c0,0,0.1,0.1,0.1,0.1c2.3,2.2,2.3,5.8,0,8c0,0-0.1,0.1-0.1,0.1
							c-2.3,2.2-2.3,5.8,0,8l4.4,4.3"/>
						<path class="st7" d="M768.2,519.5l-4.4-4.3c-2.3-2.2-2.3-5.8,0-8c0,0,0.1-0.1,0.1-0.1c2.3-2.2,2.3-5.8,0-8
							c0,0-0.1-0.1-0.1-0.1c-2.3-2.2-2.3-5.8,0-8c0,0,0.1-0.1,0.1-0.1c2.3-2.2,2.3-5.8,0-8c0,0-0.1-0.1-0.1-0.1
							c-2.3-2.2-2.3-5.8,0-8c0,0,0.1-0.1,0.1-0.1c2.3-2.2,2.3-5.8,0-8c0,0-0.1-0.1-0.1-0.1c-2.3-2.2-2.3-5.8,0-8
							c0,0,0.1-0.1,0.1-0.1c2.3-2.2,2.3-5.8,0-8c0,0-0.1-0.1-0.1-0.1c-2.3-2.2-2.3-5.8,0-8c0,0,0.1-0.1,0.1-0.1c2.3-2.2,2.3-5.8,0-8
							c0,0-0.1-0.1-0.1-0.1c-2.3-2.2-2.3-5.8,0-8c0,0,0.1-0.1,0.1-0.1c2.3-2.2,2.3-5.8,0-8l-0.1-0.1c-2.3-2.2-2.3-5.8,0-8
							c0,0,0.1-0.1,0.1-0.1c2.3-2.2,2.3-5.8,0-8c0,0-0.1-0.1-0.1-0.1c-2.3-2.2-2.3-5.8,0-8c0,0,0.1-0.1,0.1-0.1c2.3-2.2,2.3-5.8,0-8
							c0,0-0.1-0.1-0.1-0.1c-2.3-2.2-2.3-5.8,0-8c0,0,0.1-0.1,0.1-0.1c2.3-2.2,2.3-5.8,0-8c0,0-0.1-0.1-0.1-0.1
							c-2.3-2.2-2.3-5.8,0-8c0,0,0.1-0.1,0.1-0.1c2.3-2.2,2.3-5.8,0-8c0,0-0.1-0.1-0.1-0.1c-2.3-2.2-2.3-5.8,0-8
							c0,0,0.1-0.1,0.1-0.1c2.3-2.2,2.3-5.8,0-8c0,0-0.1-0.1-0.1-0.1c-2.3-2.2-2.3-5.8,0-8c0,0,0.1-0.1,0.1-0.1c2.3-2.2,2.3-5.8,0-8
							l-0.1-0.1c-2.3-2.2-2.3-5.8,0-8c0,0,0.1-0.1,0.1-0.1c2.3-2.2,2.3-5.8,0-8c0,0-0.1-0.1-0.1-0.1c-2.3-2.2-2.3-5.8,0-8
							c2.2-2.1,4.4-4.3,4.4-4.3l-4.4,0c0,0-2.2,2.2-4.4,4.3c-2.3,2.2-2.3,5.8,0,8c0,0,0.1,0.1,0.1,0.1c2.3,2.2,2.3,5.8,0,8
							c0,0-0.1,0.1-0.1,0.1c-2.3,2.2-2.3,5.8,0,8l0.1,0.1c2.3,2.2,2.3,5.8,0,8c0,0-0.1,0.1-0.1,0.1c-2.3,2.2-2.3,5.8,0,8
							c0,0,0.1,0.1,0.1,0.1c2.3,2.2,2.3,5.8,0,8c0,0-0.1,0.1-0.1,0.1c-2.3,2.2-2.3,5.8,0,8c0,0,0.1,0.1,0.1,0.1c2.3,2.2,2.3,5.8,0,8
							c0,0-0.1,0.1-0.1,0.1c-2.3,2.2-2.3,5.8,0,8c0,0,0.1,0.1,0.1,0.1c2.3,2.2,2.3,5.8,0,8c0,0-0.1,0.1-0.1,0.1
							c-2.3,2.2-2.3,5.8,0,8c0,0,0.1,0.1,0.1,0.1c2.3,2.2,2.3,5.8,0,8c0,0-0.1,0.1-0.1,0.1c-2.3,2.2-2.3,5.8,0,8
							c0,0,0.1,0.1,0.1,0.1c2.3,2.2,2.3,5.8,0,8c0,0-0.1,0.1-0.1,0.1c-2.3,2.2-2.3,5.8,0,8l0.1,0.1c2.3,2.2,2.3,5.8,0,8
							c0,0-0.1,0.1-0.1,0.1c-2.3,2.2-2.3,5.8,0,8c0,0,0.1,0.1,0.1,0.1c2.3,2.2,2.3,5.8,0,8c0,0-0.1,0.1-0.1,0.1
							c-2.3,2.2-2.3,5.8,0,8c0,0,0.1,0.1,0.1,0.1c2.3,2.2,2.3,5.8,0,8c0,0-0.1,0.1-0.1,0.1c-2.3,2.2-2.3,5.8,0,8
							c0,0,0.1,0.1,0.1,0.1c2.3,2.2,2.3,5.8,0,8c0,0-0.1,0.1-0.1,0.1c-2.3,2.2-2.3,5.8,0,8c0,0,0.1,0.1,0.1,0.1c2.3,2.2,2.3,5.8,0,8
							c0,0-0.1,0.1-0.1,0.1c-2.3,2.2-2.3,5.8,0,8c0,0,0.1,0.1,0.1,0.1c2.3,2.2,2.3,5.8,0,8c0,0-0.1,0.1-0.1,0.1
							c-2.3,2.2-2.3,5.8,0,8l4.4,4.3"/>
						<path class="st7" d="M755,519.7l-4.4-4.3c-2.3-2.2-2.3-5.8,0-8c0,0,0.1-0.1,0.1-0.1c2.3-2.2,2.3-5.8,0-8c0,0-0.1-0.1-0.1-0.1
							c-2.3-2.2-2.3-5.8,0-8c0,0,0.1-0.1,0.1-0.1c2.3-2.2,2.3-5.8,0-8c0,0-0.1-0.1-0.1-0.1c-2.3-2.2-2.3-5.8,0-8
							c0,0,0.1-0.1,0.1-0.1c2.3-2.2,2.3-5.8,0-8c0,0-0.1-0.1-0.1-0.1c-2.3-2.2-2.3-5.8,0-8c0,0,0.1-0.1,0.1-0.1c2.3-2.2,2.3-5.8,0-8
							c0,0-0.1-0.1-0.1-0.1c-2.3-2.2-2.3-5.8,0-8c0,0,0.1-0.1,0.1-0.1c2.3-2.2,2.3-5.8,0-8c0,0-0.1-0.1-0.1-0.1
							c-2.3-2.2-2.3-5.8,0-8c0,0,0.1-0.1,0.1-0.1c2.3-2.2,2.3-5.8,0-8l-0.1-0.1c-2.3-2.2-2.3-5.8,0-8c0,0,0.1-0.1,0.1-0.1
							c2.3-2.2,2.3-5.8,0-8c0,0-0.1-0.1-0.1-0.1c-2.3-2.2-2.3-5.8,0-8c0,0,0.1-0.1,0.1-0.1c2.3-2.2,2.3-5.8,0-8c0,0-0.1-0.1-0.1-0.1
							c-2.3-2.2-2.3-5.8,0-8c0,0,0.1-0.1,0.1-0.1c2.3-2.2,2.3-5.8,0-8c0,0-0.1-0.1-0.1-0.1c-2.3-2.2-2.3-5.8,0-8
							c0,0,0.1-0.1,0.1-0.1c2.3-2.2,2.3-5.8,0-8c0,0-0.1-0.1-0.1-0.1c-2.3-2.2-2.3-5.8,0-8c0,0,0.1-0.1,0.1-0.1c2.3-2.2,2.3-5.8,0-8
							c0,0-0.1-0.1-0.1-0.1c-2.3-2.2-2.3-5.8,0-8c0,0,0.1-0.1,0.1-0.1c2.3-2.2,2.3-5.8,0-8l-0.1-0.1c-2.3-2.2-2.3-5.8,0-8
							c0,0,0.1-0.1,0.1-0.1c2.3-2.2,2.3-5.8,0-8c0,0-0.1-0.1-0.1-0.1c-2.3-2.2-2.3-5.8,0-8c2.2-2.1,4.4-4.3,4.4-4.3l4.4,0
							c0,0-2.2,2.2-4.4,4.3c-2.3,2.2-2.3,5.8,0,8c0,0,0.1,0.1,0.1,0.1c2.3,2.2,2.3,5.8,0,8c0,0-0.1,0.1-0.1,0.1
							c-2.3,2.2-2.3,5.8,0,8l0.1,0.1c2.3,2.2,2.3,5.8,0,8c0,0-0.1,0.1-0.1,0.1c-2.3,2.2-2.3,5.8,0,8c0,0,0.1,0.1,0.1,0.1
							c2.3,2.2,2.3,5.8,0,8c0,0-0.1,0.1-0.1,0.1c-2.3,2.2-2.3,5.8,0,8c0,0,0.1,0.1,0.1,0.1c2.3,2.2,2.3,5.8,0,8c0,0-0.1,0.1-0.1,0.1
							c-2.3,2.2-2.3,5.8,0,8c0,0,0.1,0.1,0.1,0.1c2.3,2.2,2.3,5.8,0,8c0,0-0.1,0.1-0.1,0.1c-2.3,2.2-2.3,5.8,0,8
							c0,0,0.1,0.1,0.1,0.1c2.3,2.2,2.3,5.8,0,8c0,0-0.1,0.1-0.1,0.1c-2.3,2.2-2.3,5.8,0,8c0,0,0.1,0.1,0.1,0.1c2.3,2.2,2.3,5.8,0,8
							c0,0-0.1,0.1-0.1,0.1c-2.3,2.2-2.3,5.8,0,8l0.1,0.1c2.3,2.2,2.3,5.8,0,8c0,0-0.1,0.1-0.1,0.1c-2.3,2.2-2.3,5.8,0,8
							c0,0,0.1,0.1,0.1,0.1c2.3,2.2,2.3,5.8,0,8c0,0-0.1,0.1-0.1,0.1c-2.3,2.2-2.3,5.8,0,8c0,0,0.1,0.1,0.1,0.1c2.3,2.2,2.3,5.8,0,8
							c0,0-0.1,0.1-0.1,0.1c-2.3,2.2-2.3,5.8,0,8c0,0,0.1,0.1,0.1,0.1c2.3,2.2,2.3,5.8,0,8c0,0-0.1,0.1-0.1,0.1
							c-2.3,2.2-2.3,5.8,0,8c0,0,0.1,0.1,0.1,0.1c2.3,2.2,2.3,5.8,0,8c0,0-0.1,0.1-0.1,0.1c-2.3,2.2-2.3,5.8,0,8
							c0,0,0.1,0.1,0.1,0.1c2.3,2.2,2.3,5.8,0,8c0,0-0.1,0.1-0.1,0.1c-2.3,2.2-2.3,5.8,0,8l4.4,4.3"/>
						<path class="st7" d="M750.6,519.7l-4.4-4.3c-2.3-2.2-2.3-5.8,0-8c0,0,0.1-0.1,0.1-0.1c2.3-2.2,2.3-5.8,0-8
							c0,0-0.1-0.1-0.1-0.1c-2.3-2.2-2.3-5.8,0-8c0,0,0.1-0.1,0.1-0.1c2.3-2.2,2.3-5.8,0-8c0,0-0.1-0.1-0.1-0.1
							c-2.3-2.2-2.3-5.8,0-8c0,0,0.1-0.1,0.1-0.1c2.3-2.2,2.3-5.8,0-8c0,0-0.1-0.1-0.1-0.1c-2.3-2.2-2.3-5.8,0-8
							c0,0,0.1-0.1,0.1-0.1c2.3-2.2,2.3-5.8,0-8c0,0-0.1-0.1-0.1-0.1c-2.3-2.2-2.3-5.8,0-8c0,0,0.1-0.1,0.1-0.1c2.3-2.2,2.3-5.8,0-8
							c0,0-0.1-0.1-0.1-0.1c-2.3-2.2-2.3-5.8,0-8c0,0,0.1-0.1,0.1-0.1c2.3-2.2,2.3-5.8,0-8l-0.1-0.1c-2.3-2.2-2.3-5.8,0-8
							c0,0,0.1-0.1,0.1-0.1c2.3-2.2,2.3-5.8,0-8c0,0-0.1-0.1-0.1-0.1c-2.3-2.2-2.3-5.8,0-8c0,0,0.1-0.1,0.1-0.1c2.3-2.2,2.3-5.8,0-8
							c0,0-0.1-0.1-0.1-0.1c-2.3-2.2-2.3-5.8,0-8c0,0,0.1-0.1,0.1-0.1c2.3-2.2,2.3-5.8,0-8c0,0-0.1-0.1-0.1-0.1
							c-2.3-2.2-2.3-5.8,0-8c0,0,0.1-0.1,0.1-0.1c2.3-2.2,2.3-5.8,0-8c0,0-0.1-0.1-0.1-0.1c-2.3-2.2-2.3-5.8,0-8
							c0,0,0.1-0.1,0.1-0.1c2.3-2.2,2.3-5.8,0-8c0,0-0.1-0.1-0.1-0.1c-2.3-2.2-2.3-5.8,0-8c0,0,0.1-0.1,0.1-0.1c2.3-2.2,2.3-5.8,0-8
							l-0.1-0.1c-2.3-2.2-2.3-5.8,0-8c0,0,0.1-0.1,0.1-0.1c2.3-2.2,2.3-5.8,0-8c0,0-0.1-0.1-0.1-0.1c-2.3-2.2-2.3-5.8,0-8
							c2.2-2.1,4.4-4.3,4.4-4.3l-4.4,0c0,0-2.2,2.2-4.4,4.3c-2.3,2.2-2.3,5.8,0,8c0,0,0.1,0.1,0.1,0.1c2.3,2.2,2.3,5.8,0,8
							c0,0-0.1,0.1-0.1,0.1c-2.3,2.2-2.3,5.8,0,8l0.1,0.1c2.3,2.2,2.3,5.8,0,8c0,0-0.1,0.1-0.1,0.1c-2.3,2.2-2.3,5.8,0,8
							c0,0,0.1,0.1,0.1,0.1c2.3,2.2,2.3,5.8,0,8c0,0-0.1,0.1-0.1,0.1c-2.3,2.2-2.3,5.8,0,8c0,0,0.1,0.1,0.1,0.1c2.3,2.2,2.3,5.8,0,8
							c0,0-0.1,0.1-0.1,0.1c-2.3,2.2-2.3,5.8,0,8c0,0,0.1,0.1,0.1,0.1c2.3,2.2,2.3,5.8,0,8c0,0-0.1,0.1-0.1,0.1
							c-2.3,2.2-2.3,5.8,0,8c0,0,0.1,0.1,0.1,0.1c2.3,2.2,2.3,5.8,0,8c0,0-0.1,0.1-0.1,0.1c-2.3,2.2-2.3,5.8,0,8
							c0,0,0.1,0.1,0.1,0.1c2.3,2.2,2.3,5.8,0,8c0,0-0.1,0.1-0.1,0.1c-2.3,2.2-2.3,5.8,0,8l0.1,0.1c2.3,2.2,2.3,5.8,0,8
							c0,0-0.1,0.1-0.1,0.1c-2.3,2.2-2.3,5.8,0,8c0,0,0.1,0.1,0.1,0.1c2.3,2.2,2.3,5.8,0,8c0,0-0.1,0.1-0.1,0.1
							c-2.3,2.2-2.3,5.8,0,8c0,0,0.1,0.1,0.1,0.1c2.3,2.2,2.3,5.8,0,8c0,0-0.1,0.1-0.1,0.1c-2.3,2.2-2.3,5.8,0,8
							c0,0,0.1,0.1,0.1,0.1c2.3,2.2,2.3,5.8,0,8c0,0-0.1,0.1-0.1,0.1c-2.3,2.2-2.3,5.8,0,8c0,0,0.1,0.1,0.1,0.1c2.3,2.2,2.3,5.8,0,8
							c0,0-0.1,0.1-0.1,0.1c-2.3,2.2-2.3,5.8,0,8c0,0,0.1,0.1,0.1,0.1c2.3,2.2,2.3,5.8,0,8c0,0-0.1,0.1-0.1,0.1
							c-2.3,2.2-2.3,5.8,0,8l4.4,4.3"/>
						<path class="st7" d="M741.9,519.8l-4.4-4.3c-2.3-2.2-2.3-5.8,0-8c0,0,0.1-0.1,0.1-0.1c2.3-2.2,2.3-5.8,0-8
							c0,0-0.1-0.1-0.1-0.1c-2.3-2.2-2.3-5.8,0-8c0,0,0.1-0.1,0.1-0.1c2.3-2.2,2.3-5.8,0-8c0,0-0.1-0.1-0.1-0.1
							c-2.3-2.2-2.3-5.8,0-8c0,0,0.1-0.1,0.1-0.1c2.3-2.2,2.3-5.8,0-8c0,0-0.1-0.1-0.1-0.1c-2.3-2.2-2.3-5.8,0-8
							c0,0,0.1-0.1,0.1-0.1c2.3-2.2,2.3-5.8,0-8c0,0-0.1-0.1-0.1-0.1c-2.3-2.2-2.3-5.8,0-8c0,0,0.1-0.1,0.1-0.1c2.3-2.2,2.3-5.8,0-8
							c0,0-0.1-0.1-0.1-0.1c-2.3-2.2-2.3-5.8,0-8c0,0,0.1-0.1,0.1-0.1c2.3-2.2,2.3-5.8,0-8l-0.1-0.1c-2.3-2.2-2.3-5.8,0-8
							c0,0,0.1-0.1,0.1-0.1c2.3-2.2,2.3-5.8,0-8c0,0-0.1-0.1-0.1-0.1c-2.3-2.2-2.3-5.8,0-8c0,0,0.1-0.1,0.1-0.1c2.3-2.2,2.3-5.8,0-8
							c0,0-0.1-0.1-0.1-0.1c-2.3-2.2-2.3-5.8,0-8c0,0,0.1-0.1,0.1-0.1c2.3-2.2,2.3-5.8,0-8c0,0-0.1-0.1-0.1-0.1
							c-2.3-2.2-2.3-5.8,0-8c0,0,0.1-0.1,0.1-0.1c2.3-2.2,2.3-5.8,0-8c0,0-0.1-0.1-0.1-0.1c-2.3-2.2-2.3-5.8,0-8
							c0,0,0.1-0.1,0.1-0.1c2.3-2.2,2.3-5.8,0-8c0,0-0.1-0.1-0.1-0.1c-2.3-2.2-2.3-5.8,0-8c0,0,0.1-0.1,0.1-0.1c2.3-2.2,2.3-5.8,0-8
							l-0.1-0.1c-2.3-2.2-2.3-5.8,0-8c0,0,0.1-0.1,0.1-0.1c2.3-2.2,2.3-5.8,0-8c0,0-0.1-0.1-0.1-0.1c-2.3-2.2-2.3-5.8,0-8
							c2.2-2.1,4.4-4.3,4.4-4.3l-4.4,0c0,0-2.2,2.2-4.4,4.3c-2.3,2.2-2.3,5.8,0,8c0,0,0.1,0.1,0.1,0.1c2.3,2.2,2.3,5.8,0,8
							c0,0-0.1,0.1-0.1,0.1c-2.3,2.2-2.3,5.8,0,8l0.1,0.1c2.3,2.2,2.3,5.8,0,8c0,0-0.1,0.1-0.1,0.1c-2.3,2.2-2.3,5.8,0,8
							c0,0,0.1,0.1,0.1,0.1c2.3,2.2,2.3,5.8,0,8c0,0-0.1,0.1-0.1,0.1c-2.3,2.2-2.3,5.8,0,8c0,0,0.1,0.1,0.1,0.1c2.3,2.2,2.3,5.8,0,8
							c0,0-0.1,0.1-0.1,0.1c-2.3,2.2-2.3,5.8,0,8c0,0,0.1,0.1,0.1,0.1c2.3,2.2,2.3,5.8,0,8c0,0-0.1,0.1-0.1,0.1
							c-2.3,2.2-2.3,5.8,0,8c0,0,0.1,0.1,0.1,0.1c2.3,2.2,2.3,5.8,0,8c0,0-0.1,0.1-0.1,0.1c-2.3,2.2-2.3,5.8,0,8
							c0,0,0.1,0.1,0.1,0.1c2.3,2.2,2.3,5.8,0,8c0,0-0.1,0.1-0.1,0.1c-2.3,2.2-2.3,5.8,0,8l0.1,0.1c2.3,2.2,2.3,5.8,0,8
							c0,0-0.1,0.1-0.1,0.1c-2.3,2.2-2.3,5.8,0,8c0,0,0.1,0.1,0.1,0.1c2.3,2.2,2.3,5.8,0,8c0,0-0.1,0.1-0.1,0.1
							c-2.3,2.2-2.3,5.8,0,8c0,0,0.1,0.1,0.1,0.1c2.3,2.2,2.3,5.8,0,8c0,0-0.1,0.1-0.1,0.1c-2.3,2.2-2.3,5.8,0,8
							c0,0,0.1,0.1,0.1,0.1c2.3,2.2,2.3,5.8,0,8c0,0-0.1,0.1-0.1,0.1c-2.3,2.2-2.3,5.8,0,8c0,0,0.1,0.1,0.1,0.1c2.3,2.2,2.3,5.8,0,8
							c0,0-0.1,0.1-0.1,0.1c-2.3,2.2-2.3,5.8,0,8c0,0,0.1,0.1,0.1,0.1c2.3,2.2,2.3,5.8,0,8c0,0-0.1,0.1-0.1,0.1
							c-2.3,2.2-2.3,5.8,0,8l4.4,4.3"/>
						<path class="st7" d="M728.5,520.4l-4.4-4.3c-2.3-2.2-2.3-5.8,0-8c0,0,0.1-0.1,0.1-0.1c2.3-2.2,2.3-5.8,0-8
							c0,0-0.1-0.1-0.1-0.1c-2.3-2.2-2.3-5.8,0-8c0,0,0.1-0.1,0.1-0.1c2.3-2.2,2.3-5.8,0-8c0,0-0.1-0.1-0.1-0.1
							c-2.3-2.2-2.3-5.8,0-8c0,0,0.1-0.1,0.1-0.1c2.3-2.2,2.3-5.8,0-8c0,0-0.1-0.1-0.1-0.1c-2.3-2.2-2.3-5.8,0-8
							c0,0,0.1-0.1,0.1-0.1c2.3-2.2,2.3-5.8,0-8c0,0-0.1-0.1-0.1-0.1c-2.3-2.2-2.3-5.8,0-8c0,0,0.1-0.1,0.1-0.1c2.3-2.2,2.3-5.8,0-8
							c0,0-0.1-0.1-0.1-0.1c-2.3-2.2-2.3-5.8,0-8c0,0,0.1-0.1,0.1-0.1c2.3-2.2,2.3-5.8,0-8l-0.1-0.1c-2.3-2.2-2.3-5.8,0-8
							c0,0,0.1-0.1,0.1-0.1c2.3-2.2,2.3-5.8,0-8c0,0-0.1-0.1-0.1-0.1c-2.3-2.2-2.3-5.8,0-8c0,0,0.1-0.1,0.1-0.1c2.3-2.2,2.3-5.8,0-8
							c0,0-0.1-0.1-0.1-0.1c-2.3-2.2-2.3-5.8,0-8c0,0,0.1-0.1,0.1-0.1c2.3-2.2,2.3-5.8,0-8c0,0-0.1-0.1-0.1-0.1
							c-2.3-2.2-2.3-5.8,0-8c0,0,0.1-0.1,0.1-0.1c2.3-2.2,2.3-5.8,0-8c0,0-0.1-0.1-0.1-0.1c-2.3-2.2-2.3-5.8,0-8
							c0,0,0.1-0.1,0.1-0.1c2.3-2.2,2.3-5.8,0-8c0,0-0.1-0.1-0.1-0.1c-2.3-2.2-2.3-5.8,0-8c0,0,0.1-0.1,0.1-0.1c2.3-2.2,2.3-5.8,0-8
							l-0.1-0.1c-2.3-2.2-2.3-5.8,0-8c0,0,0.1-0.1,0.1-0.1c2.3-2.2,2.3-5.8,0-8c0,0-0.1-0.1-0.1-0.1c-2.3-2.2-2.3-5.8,0-8
							c2.2-2.1,4.4-4.3,4.4-4.3l4.7-0.5c0,0-2.2,2.2-4.4,4.3c-2.3,2.2-2.3,5.8,0,8c0,0,0.1,0.1,0.1,0.1c2.3,2.2,2.3,5.8,0,8
							c0,0-0.1,0.1-0.1,0.1c-2.3,2.2-2.3,5.8,0,8l0.1,0.1c2.3,2.2,2.3,5.8,0,8c0,0-0.1,0.1-0.1,0.1c-2.3,2.2-2.3,5.8,0,8
							c0,0,0.1,0.1,0.1,0.1c2.3,2.2,2.3,5.8,0,8c0,0-0.1,0.1-0.1,0.1c-2.3,2.2-2.3,5.8,0,8c0,0,0.1,0.1,0.1,0.1c2.3,2.2,2.3,5.8,0,8
							c0,0-0.1,0.1-0.1,0.1c-2.3,2.2-2.3,5.8,0,8c0,0,0.1,0.1,0.1,0.1c2.3,2.2,2.3,5.8,0,8c0,0-0.1,0.1-0.1,0.1
							c-2.3,2.2-2.3,5.8,0,8c0,0,0.1,0.1,0.1,0.1c2.3,2.2,2.3,5.8,0,8c0,0-0.1,0.1-0.1,0.1c-2.3,2.2-2.3,5.8,0,8
							c0,0,0.1,0.1,0.1,0.1c2.3,2.2,2.3,5.8,0,8c0,0-0.1,0.1-0.1,0.1c-2.3,2.2-2.3,5.8,0,8l0.1,0.1c2.3,2.2,2.3,5.8,0,8
							c0,0-0.1,0.1-0.1,0.1c-2.3,2.2-2.3,5.8,0,8c0,0,0.1,0.1,0.1,0.1c2.3,2.2,2.3,5.8,0,8c0,0-0.1,0.1-0.1,0.1
							c-2.3,2.2-2.3,5.8,0,8c0,0,0.1,0.1,0.1,0.1c2.3,2.2,2.3,5.8,0,8c0,0-0.1,0.1-0.1,0.1c-2.3,2.2-2.3,5.8,0,8
							c0,0,0.1,0.1,0.1,0.1c2.3,2.2,2.3,5.8,0,8c0,0-0.1,0.1-0.1,0.1c-2.3,2.2-2.3,5.8,0,8c0,0,0.1,0.1,0.1,0.1c2.3,2.2,2.3,5.8,0,8
							c0,0-0.1,0.1-0.1,0.1c-2.3,2.2-2.3,5.8,0,8c0,0,0.1,0.1,0.1,0.1c2.3,2.2,2.3,5.8,0,8c0,0-0.1,0.1-0.1,0.1
							c-2.3,2.2-2.3,5.8,0,8l4.4,4.3"/>
					</g>
				</g>
			</g>
			<g>
				<path class="st13" d="M630.5,355.9l-37.7,41.8c-3.5,3.9-3.2,9.9,0.7,13.4l4.6,4.2c3.9,3.5,9.8,3.2,13.3-0.7l37.8-41.8l-2.5-16
					L630.5,355.9z"/>
				<path class="st5" d="M648.8,373.3c4.7-5.2,4.3-13.1-0.9-17.8c-5.2-4.7-13.1-4.3-17.8,0.9c-4.7,5.2-4.3,13.1,0.9,17.8
					C636.2,378.8,644.1,378.4,648.8,373.3z M632.3,358.2l12.9-0.7l0.7,12.9l-12.9,0.7L632.3,358.2z"/>
				<path class="st5" d="M622.9,364.4c-4.7,5.2-4.3,13.1,0.9,17.8c5.2,4.7,13.1,4.3,17.8-0.9l4.4-4.9c-4.7,5.2-12.6,5.6-17.8,0.9
					c-5.2-4.7-5.6-12.6-0.9-17.8L622.9,364.4z"/>
				<path class="st5" d="M615.2,372.8c-4.7,5.2-4.3,13.1,0.9,17.8c5.2,4.7,13.1,4.3,17.8-0.9l4.4-4.9c-4.7,5.2-12.6,5.6-17.8,0.9
					c-5.2-4.7-5.6-12.6-0.9-17.8L615.2,372.8z"/>
				<path class="st5" d="M607.6,381.3c-4.7,5.2-4.3,13.1,0.9,17.8c5.2,4.7,13.1,4.3,17.8-0.9l4.4-4.9c-4.7,5.2-12.6,5.6-17.8,0.9
					c-5.2-4.7-5.6-12.6-0.9-17.8L607.6,381.3z"/>
				<path class="st5" d="M600,389.7c-4.7,5.2-4.3,13.1,0.9,17.8c5.2,4.7,13.1,4.3,17.8-0.9l4.4-4.9c-4.7,5.2-12.6,5.6-17.8,0.9
					c-5.2-4.7-5.6-12.6-0.9-17.8L600,389.7z"/>
				<path class="st5" d="M592.3,398.2c-4.7,5.2-4.3,13.1,0.9,17.8c5.2,4.7,13.1,4.3,17.8-0.9l4.4-4.9c-4.7,5.2-12.6,5.6-17.8,0.9
					c-5.2-4.7-5.6-12.6-0.9-17.8L592.3,398.2z"/>
				
					<rect x="637.3" y="362.5" transform="matrix(-0.9987 5.069514e-02 -5.069514e-02 -0.9987 1295.9116 695.8329)" class="st4" width="3.7" height="3.7"/>
			</g>
			<g>
				
					<ellipse transform="matrix(0.1611 -0.9869 0.9869 0.1611 12.302 957.3112)" class="st13" cx="569.3" cy="471.4" rx="18.5" ry="18.5"/>
				<g>
					<path class="st5" d="M568.6,524.1c27.9,0,50.5-22.6,50.5-50.5c0-27.9-22.6-50.5-50.5-50.5c-27.9,0-50.5,22.6-50.5,50.5
						C518.2,501.5,540.8,524.1,568.6,524.1z M569.2,434.7l36.8,36.8l-36.8,36.8l-36.8-36.8L569.2,434.7z"/>
					<polyline class="st14" points="584.1,502.3 614.8,471.6 568.6,425.4 523.6,470.5 555.3,502.2 					"/>
				</g>
				<g>
					<defs>
						<path id="SVGID_00000109718948029111193040000011197379289548703106_" d="M570,500.5c14.3,0,25.8,11.6,25.8,25.8
							s-11.6,25.8-25.8,25.8c-14.3,0-25.8-11.6-25.8-25.8C544.2,512.1,555.7,500.5,570,500.5z"/>
					</defs>
					<clipPath id="SVGID_00000121971599124832682460000002483328912405180558_">
						<use xlink:href="#SVGID_00000109718948029111193040000011197379289548703106_"  style="overflow:visible;"/>
					</clipPath>
					<g style="clip-path:url(#SVGID_00000121971599124832682460000002483328912405180558_);">
						<line class="st10" x1="544.2" y1="560.1" x2="544.2" y2="487.7"/>
						<line class="st10" x1="546.7" y1="560.1" x2="546.7" y2="487.7"/>
						<line class="st10" x1="549.2" y1="560.1" x2="549.2" y2="487.7"/>
						<line class="st10" x1="551.8" y1="560.1" x2="551.8" y2="487.7"/>
						<line class="st10" x1="554.3" y1="560.1" x2="554.3" y2="487.7"/>
						<line class="st10" x1="556.8" y1="560.1" x2="556.8" y2="487.7"/>
						<line class="st10" x1="559.3" y1="560.1" x2="559.3" y2="487.7"/>
						<line class="st10" x1="561.9" y1="560.1" x2="561.9" y2="487.7"/>
						<line class="st10" x1="564.4" y1="560.1" x2="564.4" y2="487.7"/>
						<line class="st10" x1="566.9" y1="560.1" x2="566.9" y2="487.7"/>
						<line class="st10" x1="569.5" y1="560.1" x2="569.5" y2="487.7"/>
						<line class="st10" x1="572" y1="560.1" x2="572" y2="487.7"/>
						<line class="st10" x1="574.5" y1="560.1" x2="574.5" y2="487.7"/>
						<line class="st10" x1="577" y1="560.1" x2="577" y2="487.7"/>
						<line class="st10" x1="579.6" y1="560.1" x2="579.6" y2="487.7"/>
						<line class="st10" x1="582.1" y1="560.1" x2="582.1" y2="487.7"/>
						<line class="st10" x1="584.6" y1="560.1" x2="584.6" y2="487.7"/>
						<line class="st10" x1="587.1" y1="560.1" x2="587.1" y2="487.7"/>
						<line class="st10" x1="589.7" y1="560.1" x2="589.7" y2="487.7"/>
						<line class="st10" x1="592.2" y1="560.1" x2="592.2" y2="487.7"/>
						<line class="st10" x1="594.7" y1="560.1" x2="594.7" y2="487.7"/>
						<line class="st10" x1="597.2" y1="560.1" x2="597.2" y2="487.7"/>
						<line class="st10" x1="599.8" y1="560.1" x2="599.8" y2="487.7"/>
					</g>
				</g>
				<g>
					<defs>
						<circle id="SVGID_00000042007237200938463100000014311604019609177486_" cx="469.3" cy="431.2" r="25.8"/>
					</defs>
					<clipPath id="SVGID_00000051371710646271615420000011950503931422681240_">
						<use xlink:href="#SVGID_00000042007237200938463100000014311604019609177486_"  style="overflow:visible;"/>
					</clipPath>
					<g style="clip-path:url(#SVGID_00000051371710646271615420000011950503931422681240_);">
						<line class="st10" x1="443.5" y1="465" x2="443.5" y2="392.6"/>
						<line class="st10" x1="446" y1="465" x2="446" y2="392.6"/>
						<line class="st10" x1="448.6" y1="465" x2="448.6" y2="392.6"/>
						<line class="st10" x1="451.1" y1="465" x2="451.1" y2="392.6"/>
						<line class="st10" x1="453.6" y1="465" x2="453.6" y2="392.6"/>
						<line class="st10" x1="456.2" y1="465" x2="456.2" y2="392.6"/>
						<line class="st10" x1="458.7" y1="465" x2="458.7" y2="392.6"/>
						<line class="st10" x1="461.2" y1="465" x2="461.2" y2="392.6"/>
						<line class="st10" x1="463.7" y1="465" x2="463.7" y2="392.6"/>
						<line class="st10" x1="466.3" y1="465" x2="466.3" y2="392.6"/>
						<line class="st10" x1="468.8" y1="465" x2="468.8" y2="392.6"/>
						<line class="st10" x1="471.3" y1="465" x2="471.3" y2="392.6"/>
						<line class="st10" x1="473.8" y1="465" x2="473.8" y2="392.6"/>
						<line class="st10" x1="476.4" y1="465" x2="476.4" y2="392.6"/>
						<line class="st10" x1="478.9" y1="465" x2="478.9" y2="392.6"/>
						<line class="st10" x1="481.4" y1="465" x2="481.4" y2="392.6"/>
						<line class="st10" x1="483.9" y1="465" x2="483.9" y2="392.6"/>
						<line class="st10" x1="486.5" y1="465" x2="486.5" y2="392.6"/>
						<line class="st10" x1="489" y1="465" x2="489" y2="392.6"/>
						<line class="st10" x1="491.5" y1="465" x2="491.5" y2="392.6"/>
						<line class="st10" x1="494" y1="465" x2="494" y2="392.6"/>
						<line class="st10" x1="496.6" y1="465" x2="496.6" y2="392.6"/>
						<line class="st10" x1="499.1" y1="465" x2="499.1" y2="392.6"/>
					</g>
				</g>
			</g>
			<g>
				<path class="st5" d="M559.1,378l41.8-43.6c6.7-6.7,6.7-17.7,0-24.4c-6.7-6.7-17.7-6.7-24.4,0L521,365.5l-8.9-8.9l55.6-55.6
					c11.7-11.7,30.6-11.7,42.2,0c11.7,11.7,11.7,30.6,0,42.2l-55.6,55.6L559.1,378z"/>
				<path class="st14" d="M533.6,343.3l33.9-33.4c0,0,18.2-23.4,37.7-4.3c19.1,19.5-4.3,37.7-4.3,37.7L567.5,378"/>
			</g>
			<g>
				<path class="st3" d="M530,423.5l42.4-42.4L530,338.6L487.5,381L530,423.5z M530,356.4l24.6,24.6L530,405.6L505.4,381L530,356.4z
					"/>
				<path class="st7" d="M522.6,373.9c4.3-4.3,11.3-4.3,15.6,0c4.3,4.3,4.3,11.3,0,15.6c-4.3,4.3-11.3,4.3-15.6,0
					C518.3,385.2,518.3,378.2,522.6,373.9z"/>
				<g>
					
						<rect x="562.2" y="379.8" transform="matrix(-0.7071 -0.7071 0.7071 -0.7071 692.8439 1049.7183)" class="st4" width="3.2" height="3.2"/>
					
						<rect x="555.5" y="386.5" transform="matrix(-0.7071 -0.7071 0.7071 -0.7071 676.6467 1056.4309)" class="st4" width="3.2" height="3.2"/>
					
						<rect x="548.8" y="393.2" transform="matrix(-0.7071 -0.7071 0.7071 -0.7071 660.4199 1063.1489)" class="st4" width="3.2" height="3.2"/>
					
						<rect x="542.1" y="399.9" transform="matrix(-0.7071 -0.7071 0.7071 -0.7071 644.2079 1069.8641)" class="st4" width="3.2" height="3.2"/>
					
						<rect x="535.4" y="406.6" transform="matrix(-0.7071 -0.7071 0.7071 -0.7071 627.9958 1076.5793)" class="st4" width="3.2" height="3.2"/>
					
						<rect x="521.9" y="406.6" transform="matrix(0.7071 -0.7071 0.7071 0.7071 -135.3045 489.7436)" class="st4" width="3.2" height="3.2"/>
					
						<rect x="515.2" y="399.9" transform="matrix(0.7071 -0.7071 0.7071 0.7071 -132.525 483.0121)" class="st4" width="3.2" height="3.2"/>
					
						<rect x="508.5" y="393.2" transform="matrix(0.7071 -0.7071 0.7071 0.7071 -129.7453 476.2827)" class="st4" width="3.2" height="3.2"/>
					
						<rect x="501.8" y="386.4" transform="matrix(0.7071 -0.7071 0.7071 0.7071 -126.9637 469.5677)" class="st4" width="3.2" height="3.2"/>
					
						<rect x="555.7" y="372.8" transform="matrix(0.7071 -0.7071 0.7071 0.7071 -101.5506 503.7078)" class="st4" width="3.2" height="3.2"/>
					
						<rect x="548.9" y="366.1" transform="matrix(0.7071 -0.7071 0.7071 0.7071 -98.7687 496.9944)" class="st4" width="3.2" height="3.2"/>
					
						<rect x="542.2" y="359.4" transform="matrix(0.7071 -0.7071 0.7071 0.7071 -95.9901 490.265)" class="st4" width="3.2" height="3.2"/>
					
						<rect x="535.5" y="352.7" transform="matrix(0.7071 -0.7071 0.7071 0.7071 -93.2085 483.5499)" class="st4" width="3.2" height="3.2"/>
					
						<rect x="528.6" y="413.3" transform="matrix(-0.7071 -0.7071 0.7071 -0.7071 611.769 1083.2965)" class="st4" width="3.2" height="3.2"/>
					
						<rect x="528.6" y="346.1" transform="matrix(-0.7071 -0.7071 0.7071 -0.7071 659.1988 968.4921)" class="st4" width="3.2" height="3.2"/>
					
						<rect x="521.9" y="352.8" transform="matrix(-0.7071 -0.7071 0.7071 -0.7071 643.0005 975.2048)" class="st4" width="3.2" height="3.2"/>
					
						<rect x="515.2" y="359.6" transform="matrix(-0.7071 -0.7071 0.7071 -0.7071 626.7747 981.9227)" class="st4" width="3.2" height="3.2"/>
					
						<rect x="508.4" y="366.3" transform="matrix(-0.7071 -0.7071 0.7071 -0.7071 610.5612 988.6382)" class="st4" width="3.2" height="3.2"/>
					
						<rect x="501.7" y="373" transform="matrix(-0.7071 -0.7071 0.7071 -0.7071 594.337 995.3553)" class="st4" width="3.2" height="3.2"/>
					
						<rect x="495" y="379.7" transform="matrix(-0.7071 -0.7071 0.7071 -0.7071 578.125 1002.0703)" class="st4" width="3.2" height="3.2"/>
				</g>
			</g>
			
				<ellipse transform="matrix(0.9257 -0.3783 0.3783 0.9257 -101.3508 297.5708)" class="st3" cx="706.7" cy="406.7" rx="18.9" ry="18.9"/>
			<polygon class="st3" points="637.7,320.7 640.2,325.3 644.8,327.9 640.2,330.4 637.7,335.1 635.1,330.4 630.5,327.9 635.1,325.3 
							"/>
			<polygon class="st3" points="662,479.6 664.5,484.3 669.1,486.8 664.5,489.3 662,494 659.4,489.3 654.8,486.8 659.4,484.3 			"/>
			<path class="st3" d="M565.1,349.6c0,2.6-2.1,4.7-4.7,4.7c-2.6,0-4.7-2.1-4.7-4.7c0-2.6,2.1-4.7,4.7-4.7
				C563,344.9,565.1,347,565.1,349.6z"/>
			<path class="st3" d="M580.6,334c0,2.6-2.1,4.7-4.7,4.7c-2.6,0-4.7-2.1-4.7-4.7c0-2.6,2.1-4.7,4.7-4.7
				C578.6,329.4,580.6,331.5,580.6,334z"/>
			<path class="st3" d="M596.2,318.5c0,2.6-2.1,4.7-4.7,4.7c-2.6,0-4.7-2.1-4.7-4.7c0-2.6,2.1-4.7,4.7-4.7
				C594.1,313.8,596.2,315.9,596.2,318.5z"/>
			<g>
				<path class="st13" d="M759.9,232.3c-5.5-5.5-14.3-5.5-19.8,0c-5.5,5.5-5.5,14.3,0,19.8c5.5,5.5,14.3,5.5,19.8,0
					C765.3,246.6,765.3,237.8,759.9,232.3z M741.7,250.5c-4.6-4.6-4.6-12,0-16.6c4.6-4.6,12-4.6,16.6,0c4.6,4.6,4.6,12,0,16.6
					C753.7,255.1,746.3,255.1,741.7,250.5z"/>
				<path class="st13" d="M759.9,247.9c-5.5-5.5-14.3-5.5-19.8,0c-5.5,5.5-5.5,14.3,0,19.8c5.5,5.5,14.3,5.5,19.8,0
					C765.3,262.2,765.3,253.4,759.9,247.9z M741.7,266.1c-4.6-4.6-4.6-12,0-16.6c4.6-4.6,12-4.6,16.6,0c4.6,4.6,4.6,12,0,16.6
					C753.7,270.7,746.3,270.7,741.7,266.1z"/>
			</g>
		</g>
	</g>
</g>
</svg>
