<?xml version="1.0" encoding="utf-8"?>
<!-- Generator: Adobe Illustrator 28.2.0, SVG Export Plug-In . SVG Version: 6.00 Build 0)  -->
<svg version="1.1" id="OBJECTS" xmlns="http://www.w3.org/2000/svg" xmlns:xlink="http://www.w3.org/1999/xlink" x="0px" y="0px"
	 viewBox="0 0 750 500" style="enable-background:new 0 0 750 500;" xml:space="preserve">
<style type="text/css">
	.st0{opacity:0.32;}
	.st1{clip-path:url(#SVGID_00000041257988732534610640000008335794853573953711_);}
	.st2{fill:#EB6A66;}
	.st3{fill:#F5B1AF;}
	.st4{fill:#F9F9F9;}
	.st5{fill:#724556;}
	.st6{clip-path:url(#SVGID_00000000923639400260420860000013389177624541370045_);}
	.st7{fill:#F5B4B3;}
	.st8{fill:#754959;}
	.st9{fill:#EA6460;}
	.st10{fill:#FFFFFF;}
	.st11{fill:none;stroke:#EB6A66;stroke-miterlimit:10;}
	.st12{clip-path:url(#SVGID_00000149363537659955244460000011792283982805084806_);}
	.st13{fill:none;stroke:#F5B1AF;stroke-miterlimit:10;}
	.st14{clip-path:url(#SVGID_00000051345381926795576440000003445282287110281400_);}
	.st15{fill:none;stroke:#EA6460;stroke-miterlimit:10;}
	.st16{clip-path:url(#SVGID_00000142133755834188908190000013298944338000664193_);}
	.st17{fill:none;stroke:#F9F9F9;stroke-miterlimit:10;}
	.st18{clip-path:url(#SVGID_00000004530375562440134030000007870238200549428877_);}
</style>
<g class="st0">
	<defs>
		<rect id="SVGID_1_" class="st0" width="750" height="500"/>
	</defs>
	<clipPath id="SVGID_00000091721739079241150280000004807663815555532958_">
		<use xlink:href="#SVGID_1_"  style="overflow:visible;"/>
	</clipPath>
	<g style="clip-path:url(#SVGID_00000091721739079241150280000004807663815555532958_);">
		<path class="st2" d="M288.6,35.1l-34.1,34.1c-9.3,9.3-24.4,9.3-33.7,0h0c-9.3-9.3-9.3-24.4,0-33.7l34.1-34.1L288.6,35.1z"/>
		<g>
			<path class="st3" d="M-14.3,227.7c0,12.7,10.3,23,23,23s23-10.3,23-23H-14.3z"/>
			<path class="st4" d="M-8.7,231c0,8.4,7.8,15.3,17.3,15.3s17.3-6.8,17.3-15.3H-8.7z"/>
			<path class="st3" d="M-3.9,233.6c0,5.5,5.5,10,12.4,10c6.8,0,12.4-4.5,12.4-10H-3.9z"/>
			<path class="st4" d="M1.6,236c0,2.9,2.9,5.3,6.5,5.3s6.5-2.4,6.5-5.3H1.6z"/>
		</g>
		<g>
			<path class="st5" d="M43.6-25L37.7-19c-3.1,3-8,3-11,0c-0.1-0.1-0.1-0.1-0.2-0.2c-3.1-3-8-3-11,0c-0.1,0.1-0.1,0.1-0.2,0.2
				c-3.1,3-8,3-11,0c-0.1-0.1-0.1-0.1-0.2-0.2c-3.1-3-8-3-11,0c-0.1,0.1-0.1,0.1-0.2,0.2c-3,3-8,3-11,0c-0.1-0.1-0.1-0.1-0.2-0.2
				c-3.1-3-8-3-11,0c-0.1,0.1-0.1,0.1-0.2,0.2c-3.1,3-8,3-11,0c-0.1-0.1-0.1-0.1-0.2-0.2c-3.1-3-8-3-11,0c-0.1,0.1-0.1,0.1-0.2,0.2
				c-3,3-8,3-11,0c-0.1-0.1-0.1-0.1-0.2-0.2c-3.1-3-8-3-11,0c-0.1,0.1-0.1,0.1-0.2,0.2c-3.1,3-8,3-11,0c-0.1-0.1-0.1-0.1-0.2-0.2
				c-3-3-8-3-11,0l-0.2,0.2c-3.1,3-8,3-11,0c-0.1-0.1-0.1-0.1-0.2-0.2c-3-3-8-3-11,0c-0.1,0.1-0.1,0.1-0.2,0.2c-3.1,3-8,3-11,0
				c-0.1-0.1-0.1-0.1-0.2-0.2c-3.1-3-8-3-11,0c-0.1,0.1-0.1,0.1-0.2,0.2c-3,3-8,3-11,0c-0.1-0.1-0.1-0.1-0.2-0.2c-3.1-3-8-3-11,0
				c-0.1,0.1-0.1,0.1-0.2,0.2c-3.1,3-8,3-11,0c-0.1-0.1-0.1-0.1-0.2-0.2c-3.1-3-8-3-11,0c-0.1,0.1-0.1,0.1-0.2,0.2c-3,3-8,3-11,0
				c-0.1-0.1-0.1-0.1-0.2-0.2c-3.1-3-8-3-11,0c-0.1,0.1-0.1,0.1-0.2,0.2c-3.1,3-8,3-11,0c-0.1-0.1-0.1-0.1-0.2-0.2c-3-3-8-3-11,0
				l-0.2,0.2c-3.1,3-8,3-11,0c-0.1-0.1-0.1-0.1-0.2-0.2c-3.1-3-8-3-11,0c-0.1,0.1-0.1,0.1-0.2,0.2c-3.1,3-8,3-11,0
				c-2.9-2.9-5.9-5.9-5.9-5.9l-0.1-5.8c0,0,3,3,5.9,5.9c3.1,3,8,3,11,0c0.1-0.1,0.1-0.1,0.2-0.2c3.1-3,8-3,11,0
				c0.1,0.1,0.1,0.1,0.2,0.2c3.1,3,8,3,11,0l0.2-0.2c3.1-3,8-3,11,0c0.1,0,0.1,0.1,0.2,0.2c3,3,8,3,11,0c0.1-0.1,0.1-0.1,0.2-0.2
				c3.1-3,8-3,11,0c0.1,0.1,0.1,0.1,0.2,0.2c3.1,3,8,3,11,0c0.1-0.1,0.1-0.1,0.2-0.2c3-3,8-3,11,0c0.1,0.1,0.1,0.1,0.2,0.2
				c3.1,3,8,3,11,0c0.1-0.1,0.1-0.1,0.2-0.2c3.1-3,8-3,11,0c0.1,0.1,0.1,0.1,0.2,0.2c3.1,3,8,3,11,0c0.1-0.1,0.1-0.1,0.2-0.2
				c3-3,8-3,11,0c0.1,0.1,0.1,0.1,0.2,0.2c3,3,8,3,11,0c0.1-0.1,0.1-0.1,0.2-0.2c3.1-3,8-3,11,0c0.1,0.1,0.1,0.1,0.2,0.2
				c3,3,8,3,11,0l0.2-0.2c3.1-3,8-3,11,0c0.1,0.1,0.1,0.1,0.2,0.2c3,3,8,3,11,0c0.1-0.1,0.1-0.1,0.2-0.2c3.1-3,8-3,11,0
				c0.1,0.1,0.1,0.1,0.2,0.2c3.1,3,8,3,11,0C-52-24.9-52-25-51.9-25c3.1-3,8-3,11,0c0.1,0.1,0.1,0.1,0.2,0.2c3.1,3,8,3,11,0
				c0.1-0.1,0.1-0.1,0.2-0.2c3.1-3,8-3,11,0c0.1,0.1,0.1,0.1,0.2,0.2c3.1,3,8,3,11,0c0.1-0.1,0.1-0.1,0.2-0.2c3-3,8-3,11,0
				C4-25,4.1-24.9,4.1-24.9c3.1,3,8,3,11,0c0.1-0.1,0.1-0.1,0.2-0.2c3.1-3,8-3,11,0c0.1,0.1,0.1,0.1,0.2,0.2c3.1,3,8,3,11,0l5.9-5.9
				"/>
			<path class="st5" d="M43.6-19.1l-5.9,5.9c-3.1,3-8,3-11,0c-0.1-0.1-0.1-0.1-0.2-0.2c-3.1-3-8-3-11,0c-0.1,0.1-0.1,0.1-0.2,0.2
				c-3.1,3-8,3-11,0c-0.1-0.1-0.1-0.1-0.2-0.2c-3.1-3-8-3-11,0c-0.1,0.1-0.1,0.1-0.2,0.2c-3,3-8,3-11,0c-0.1-0.1-0.1-0.1-0.2-0.2
				c-3-3-8-3-11,0c-0.1,0.1-0.1,0.1-0.2,0.2c-3.1,3-8,3-11,0c-0.1-0.1-0.1-0.1-0.2-0.2c-3.1-3-8-3-11,0c-0.1,0.1-0.1,0.1-0.2,0.2
				c-3,3-8,3-11,0c-0.1-0.1-0.1-0.1-0.2-0.2c-3.1-3-8-3-11,0c-0.1,0.1-0.1,0.1-0.2,0.2c-3.1,3-8,3-11,0c-0.1-0.1-0.1-0.1-0.2-0.2
				c-3-3-8-3-11,0l-0.2,0.2c-3.1,3-8,3-11,0c-0.1-0.1-0.1-0.1-0.2-0.2c-3.1-3-8-3-11,0c-0.1,0.1-0.1,0.1-0.2,0.2c-3.1,3-8,3-11,0
				c-0.1-0.1-0.1-0.1-0.2-0.2c-3.1-3-8-3-11,0c-0.1,0.1-0.1,0.1-0.2,0.2c-3,3-8,3-11,0c-0.1-0.1-0.1-0.1-0.2-0.2c-3.1-3-8-3-11,0
				c-0.1,0.1-0.1,0.1-0.2,0.2c-3.1,3-8,3-11,0c-0.1-0.1-0.1-0.1-0.2-0.2c-3.1-3-8-3-11,0c-0.1,0.1-0.1,0.1-0.2,0.2c-3,3-8,3-11,0
				c-0.1-0.1-0.1-0.1-0.2-0.2c-3.1-3-8-3-11,0c-0.1,0.1-0.1,0.1-0.2,0.2c-3.1,3-8,3-11,0c-0.1-0.1-0.1-0.1-0.2-0.2c-3-3-8-3-11,0
				l-0.2,0.2c-3.1,3-8,3-11,0c-0.1-0.1-0.1-0.1-0.2-0.2c-3.1-3-8-3-11,0c-0.1,0.1-0.1,0.1-0.2,0.2c-3.1,3-8,3-11,0
				c-2.9-2.9-5.9-5.9-5.9-5.9l0.1,5.8c0,0,3,3,5.9,5.9c3.1,3,8,3,11,0c0.1-0.1,0.1-0.1,0.2-0.2c3.1-3,8-3,11,0
				c0.1,0.1,0.1,0.1,0.2,0.2c3.1,3,8,3,11,0l0.2-0.2c3.1-3,8-3,11,0c0.1,0.1,0.1,0.1,0.2,0.2c3,3,8,3,11,0c0.1-0.1,0.1-0.1,0.2-0.2
				c3.1-3,8-3,11,0c0.1,0.1,0.1,0.1,0.2,0.2c3.1,3,8,3,11,0c0.1-0.1,0.1-0.1,0.2-0.2c3-3,8-3,11,0c0.1,0.1,0.1,0.1,0.2,0.2
				c3.1,3,8,3,11,0c0.1-0.1,0.1-0.1,0.2-0.2c3.1-3,8-3,11,0c0.1,0.1,0.1,0.1,0.2,0.2c3.1,3,8,3,11,0c0.1-0.1,0.1-0.1,0.2-0.2
				c3-3,8-3,11,0c0.1,0.1,0.1,0.1,0.2,0.2c3,3,8,3,11,0c0.1-0.1,0.1-0.1,0.2-0.2c3.1-3,8-3,11,0c0.1,0.1,0.1,0.1,0.2,0.2
				c3.1,3,8,3,11,0l0.2-0.2c3.1-3,8-3,11,0c0.1,0.1,0.1,0.1,0.2,0.2c3,3,8,3,11,0c0.1-0.1,0.1-0.1,0.2-0.2c3.1-3,8-3,11,0
				c0.1,0.1,0.1,0.1,0.2,0.2c3.1,3,8,3,11,0c0.1-0.1,0.1-0.1,0.2-0.2c3-3,8-3,11,0c0.1,0.1,0.1,0.1,0.2,0.2c3.1,3,8,3,11,0
				c0.1-0.1,0.1-0.1,0.2-0.2c3.1-3,8-3,11,0c0.1,0.1,0.1,0.1,0.2,0.2c3.1,3,8,3,11,0C-7-7.5-7-7.5-6.9-7.6c3-3,8-3,11,0
				c0.1,0.1,0.1,0.1,0.2,0.2c3.1,3,8,3,11,0c0.1-0.1,0.1-0.1,0.2-0.2c3.1-3,8-3,11,0c0.1,0.1,0.1,0.1,0.2,0.2c3,3,8,3,11,0l5.9-5.9"
				/>
			<path class="st5" d="M43.8-7.5l-5.9,5.9c-3.1,3-8,3-11,0c-0.1-0.1-0.1-0.1-0.2-0.2c-3.1-3-8-3-11,0c-0.1,0.1-0.1,0.1-0.2,0.2
				c-3.1,3-8,3-11,0C4.3-1.6,4.2-1.7,4.2-1.7c-3.1-3-8-3-11,0C-6.9-1.7-7-1.6-7-1.6c-3,3-8,3-11,0c-0.1-0.1-0.1-0.1-0.2-0.2
				c-3.1-3-8-3-11,0c-0.1,0.1-0.1,0.1-0.2,0.2c-3.1,3-8,3-11,0c-0.1-0.1-0.1-0.1-0.2-0.2c-3.1-3-8-3-11,0c-0.1,0.1-0.1,0.1-0.2,0.2
				c-3,3-8,3-11,0C-63-1.6-63-1.7-63.1-1.7c-3-3-8-3-11,0c-0.1,0.1-0.1,0.1-0.2,0.2c-3.1,3-8,3-11,0c-0.1-0.1-0.1-0.1-0.2-0.2
				c-3-3-8-3-11,0l-0.2,0.2c-3.1,3-8,3-11,0c-0.1-0.1-0.1-0.1-0.2-0.2c-3-3-8-3-11,0c-0.1,0.1-0.1,0.1-0.2,0.2c-3.1,3-8,3-11,0
				c-0.1-0.1-0.1-0.1-0.2-0.2c-3.1-3-8-3-11,0c-0.1,0.1-0.1,0.1-0.2,0.2c-3,3-8,3-11,0c-0.1-0.1-0.1-0.1-0.2-0.2c-3.1-3-8-3-11,0
				c-0.1,0.1-0.1,0.1-0.2,0.2c-3.1,3-8,3-11,0c-0.1-0.1-0.1-0.1-0.2-0.2c-3.1-3-8-3-11,0c-0.1,0.1-0.1,0.1-0.2,0.2c-3,3-8,3-11,0
				c-0.1-0.1-0.1-0.1-0.2-0.2c-3.1-3-8-3-11,0c-0.1,0.1-0.1,0.1-0.2,0.2c-3.1,3-8,3-11,0c-0.1,0-0.1-0.1-0.2-0.2c-3-3-8-3-11,0
				l-0.2,0.2c-3.1,3-8,3-11,0c-0.1-0.1-0.1-0.1-0.2-0.2c-3.1-3-8-3-11,0c-0.1,0.1-0.1,0.1-0.2,0.2c-3.1,3-8,3-11,0
				c-2.9-2.9-5.9-5.9-5.9-5.9l0.1,5.8c0,0,3,3,5.9,5.9c3.1,3,8,3,11,0c0.1-0.1,0.1-0.1,0.2-0.2c3.1-3,8-3,11,0
				c0.1,0.1,0.1,0.1,0.2,0.2c3.1,3,8,3,11,0l0.2-0.2c3.1-3,8-3,11,0c0.1,0.1,0.1,0.1,0.2,0.2c3,3,8,3,11,0c0.1-0.1,0.1-0.1,0.2-0.2
				c3.1-3,8-3,11,0c0.1,0.1,0.1,0.1,0.2,0.2c3.1,3,8,3,11,0c0.1-0.1,0.1-0.1,0.2-0.2c3-3,8-3,11,0c0.1,0.1,0.1,0.1,0.2,0.2
				c3.1,3,8,3,11,0c0.1-0.1,0.1-0.1,0.2-0.2c3.1-3,8-3,11,0c0.1,0.1,0.1,0.1,0.2,0.2c3.1,3,8,3,11,0c0.1-0.1,0.1-0.1,0.2-0.2
				c3.1-3,8-3,11,0c0.1,0.1,0.1,0.1,0.2,0.2c3.1,3,8,3,11,0c0.1-0.1,0.1-0.1,0.2-0.2c3.1-3,8-3,11,0c0.1,0.1,0.1,0.1,0.2,0.2
				c3,3,8,3,11,0l0.2-0.2c3.1-3,8-3,11,0c0.1,0.1,0.1,0.1,0.2,0.2c3,3,8,3,11,0c0.1-0.1,0.1-0.1,0.2-0.2c3.1-3,8-3,11,0
				c0.1,0.1,0.1,0.1,0.2,0.2c3.1,3,8,3,11,0c0.1-0.1,0.1-0.1,0.2-0.2c3-3,8-3,11,0c0.1,0.1,0.1,0.1,0.2,0.2c3.1,3,8,3,11,0
				c0.1-0.1,0.1-0.1,0.2-0.2c3.1-3,8-3,11,0c0.1,0.1,0.1,0.1,0.2,0.2c3.1,3,8,3,11,0c0.1-0.1,0.1-0.1,0.2-0.2c3-3,8-3,11,0
				c0.1,0.1,0.1,0.1,0.2,0.2c3,3,8,3,11,0c0.1-0.1,0.1-0.1,0.2-0.2c3.1-3,8-3,11,0c0.1,0.1,0.1,0.1,0.2,0.2c3,3,8,3,11,0l5.9-5.9"/>
			<path class="st5" d="M43.9,10L38,15.9c-3.1,3-8,3-11,0c-0.1-0.1-0.1-0.1-0.2-0.2c-3.1-3-8-3-11,0c-0.1,0.1-0.1,0.1-0.2,0.2
				c-3.1,3-8,3-11,0c-0.1-0.1-0.1-0.1-0.2-0.2c-3.1-3-8-3-11,0c-0.1,0.1-0.1,0.1-0.2,0.2c-3.1,3-8,3-11,0c-0.1-0.1-0.1-0.1-0.2-0.2
				c-3.1-3-8-3-11,0c-0.1,0.1-0.1,0.1-0.2,0.2c-3.1,3-8,3-11,0c-0.1-0.1-0.1-0.1-0.2-0.2c-3.1-3-8-3-11,0c-0.1,0.1-0.1,0.1-0.2,0.2
				c-3,3-8,3-11,0c-0.1-0.1-0.1-0.1-0.2-0.2c-3-3-8-3-11,0c-0.1,0.1-0.1,0.1-0.2,0.2c-3.1,3-8,3-11,0c-0.1-0.1-0.1-0.1-0.2-0.2
				c-3-3-8-3-11,0l-0.2,0.2c-3.1,3-8,3-11,0c-0.1-0.1-0.1-0.1-0.2-0.2c-3.1-3-8-3-11,0c-0.1,0.1-0.1,0.1-0.2,0.2c-3.1,3-8,3-11,0
				c-0.1-0.1-0.1-0.1-0.2-0.2c-3.1-3-8-3-11,0c-0.1,0.1-0.1,0.1-0.2,0.2c-3,3-8,3-11,0c-0.1-0.1-0.1-0.1-0.2-0.2c-3.1-3-8-3-11,0
				c-0.1,0.1-0.1,0.1-0.2,0.2c-3.1,3-8,3-11,0c-0.1-0.1-0.1-0.1-0.2-0.2c-3.1-3-8-3-11,0c-0.1,0.1-0.1,0.1-0.2,0.2c-3,3-8,3-11,0
				c-0.1-0.1-0.1-0.1-0.2-0.2c-3.1-3-8-3-11,0c-0.1,0.1-0.1,0.1-0.2,0.2c-3.1,3-8,3-11,0c-0.1-0.1-0.1-0.1-0.2-0.2c-3-3-8-3-11,0
				l-0.2,0.2c-3.1,3-8,3-11,0c-0.1-0.1-0.1-0.1-0.2-0.2c-3.1-3-8-3-11,0c-0.1,0.1-0.1,0.1-0.2,0.2c-3.1,3-8,3-11,0
				c-2.9-2.9-5.9-5.9-5.9-5.9l-0.1-5.8c0,0,3,3,5.9,5.9c3.1,3,8,3,11,0c0.1-0.1,0.1-0.1,0.2-0.2c3.1-3,8-3,11,0
				c0.1,0.1,0.1,0.1,0.2,0.2c3.1,3,8,3,11,0l0.2-0.2c3.1-3,8-3,11,0c0.1,0.1,0.1,0.1,0.2,0.2c3,3,8,3,11,0c0.1-0.1,0.1-0.1,0.2-0.2
				c3.1-3,8-3,11,0c0.1,0.1,0.1,0.1,0.2,0.2c3.1,3,8,3,11,0c0.1-0.1,0.1-0.1,0.2-0.2c3.1-3,8-3,11,0c0.1,0.1,0.1,0.1,0.2,0.2
				c3.1,3,8,3,11,0c0.1-0.1,0.1-0.1,0.2-0.2c3.1-3,8-3,11,0c0.1,0.1,0.1,0.1,0.2,0.2c3.1,3,8,3,11,0c0.1-0.1,0.1-0.1,0.2-0.2
				c3-3,8-3,11,0c0.1,0.1,0.1,0.1,0.2,0.2c3,3,8,3,11,0c0.1-0.1,0.1-0.1,0.2-0.2c3.1-3,8-3,11,0c0.1,0.1,0.1,0.1,0.2,0.2
				c3.1,3,8,3,11,0l0.2-0.2c3.1-3,8-3,11,0c0.1,0.1,0.1,0.1,0.2,0.2c3,3,8,3,11,0c0.1-0.1,0.1-0.1,0.2-0.2c3.1-3,8-3,11,0
				c0.1,0.1,0.1,0.1,0.2,0.2c3.1,3,8,3,11,0c0.1-0.1,0.1-0.1,0.2-0.2c3-3,8-3,11,0c0.1,0.1,0.1,0.1,0.2,0.2c3,3,8,3,11,0
				c0.1-0.1,0.1-0.1,0.2-0.2c3.1-3,8-3,11,0C-18.1,10-18,10-18,10.1c3.1,3,8,3,11,0C-6.9,10-6.8,10-6.7,9.9c3-3,8-3,11,0
				C4.4,10,4.4,10,4.5,10.1c3.1,3,8,3,11,0c0.1-0.1,0.1-0.1,0.2-0.2c3.1-3,8-3,11,0c0.1,0.1,0.1,0.1,0.2,0.2c3.1,3,8,3,11,0l5.9-5.9
				"/>
			<path class="st5" d="M44,15.8l-5.9,5.9c-3.1,3-8,3-11,0c-0.1-0.1-0.1-0.1-0.2-0.2c-3-3-8-3-11,0c-0.1,0.1-0.1,0.1-0.2,0.2
				c-3.1,3-8,3-11,0c-0.1-0.1-0.1-0.1-0.2-0.2c-3.1-3-8-3-11,0c-0.1,0.1-0.1,0.1-0.2,0.2c-3.1,3-8,3-11,0c-0.1-0.1-0.1-0.1-0.2-0.2
				c-3.1-3-8-3-11,0c-0.1,0.1-0.1,0.1-0.2,0.2c-3.1,3-8,3-11,0c-0.1-0.1-0.1-0.1-0.2-0.2c-3.1-3-8-3-11,0c-0.1,0.1-0.1,0.1-0.2,0.2
				c-3.1,3-8,3-11,0c-0.1-0.1-0.1-0.1-0.2-0.2c-3.1-3-8-3-11,0c-0.1,0.1-0.1,0.1-0.2,0.2c-3.1,3-8,3-11,0c-0.1-0.1-0.1-0.1-0.2-0.2
				c-3-3-8-3-11,0l-0.2,0.2c-3.1,3-8,3-11,0c-0.1-0.1-0.1-0.1-0.2-0.2c-3-3-8-3-11,0c-0.1,0.1-0.1,0.1-0.2,0.2c-3.1,3-8,3-11,0
				c-0.1-0.1-0.1-0.1-0.2-0.2c-3.1-3-8-3-11,0c-0.1,0.1-0.1,0.1-0.2,0.2c-3,3-8,3-11,0c-0.1-0.1-0.1-0.1-0.2-0.2c-3.1-3-8-3-11,0
				c-0.1,0.1-0.1,0.1-0.2,0.2c-3.1,3-8,3-11,0c-0.1-0.1-0.1-0.1-0.2-0.2c-3.1-3-8-3-11,0c-0.1,0.1-0.1,0.1-0.2,0.2c-3,3-8,3-11,0
				c-0.1-0.1-0.1-0.1-0.2-0.2c-3.1-3-8-3-11,0c-0.1,0.1-0.1,0.1-0.2,0.2c-3.1,3-8,3-11,0c-0.1-0.1-0.1-0.1-0.2-0.1c-3-3-8-3-11,0
				l-0.2,0.2c-3.1,3-8,3-11,0c-0.1-0.1-0.1-0.1-0.2-0.2c-3.1-3-8-3-11,0c-0.1,0.1-0.1,0.1-0.2,0.2c-3.1,3-8,3-11,0
				c-2.9-2.9-5.9-5.9-5.9-5.9l0.1,5.8c0,0,3,3,5.9,5.9c3.1,3,8,3,11,0c0.1-0.1,0.1-0.1,0.2-0.2c3.1-3,8-3,11,0
				c0.1,0.1,0.1,0.1,0.2,0.2c3.1,3,8,3,11,0l0.2-0.2c3.1-3,8-3,11,0c0.1,0,0.1,0.1,0.2,0.2c3,3,8,3,11,0c0.1-0.1,0.1-0.1,0.2-0.2
				c3.1-3,8-3,11,0c0.1,0.1,0.1,0.1,0.2,0.2c3.1,3,8,3,11,0c0.1-0.1,0.1-0.1,0.2-0.2c3-3,8-3,11,0c0.1,0.1,0.1,0.1,0.2,0.2
				c3.1,3,8,3,11,0c0.1-0.1,0.1-0.1,0.2-0.2c3.1-3,8-3,11,0c0.1,0.1,0.1,0.1,0.2,0.2c3.1,3,8,3,11,0c0.1-0.1,0.1-0.1,0.2-0.2
				c3.1-3,8-3,11,0c0.1,0.1,0.1,0.1,0.2,0.2c3.1,3,8,3,11,0c0.1-0.1,0.1-0.1,0.2-0.2c3.1-3,8-3,11,0c0.1,0.1,0.1,0.1,0.2,0.2
				c3.1,3,8,3,11,0l0.2-0.2c3.1-3,8-3,11,0c0.1,0.1,0.1,0.1,0.2,0.2c3,3,8,3,11,0c0.1-0.1,0.1-0.1,0.2-0.2c3.1-3,8-3,11,0
				c0.1,0.1,0.1,0.1,0.2,0.2c3.1,3,8,3,11,0c0.1-0.1,0.1-0.1,0.2-0.2c3-3,8-3,11,0c0.1,0.1,0.1,0.1,0.2,0.2c3,3,8,3,11,0
				c0.1-0.1,0.1-0.1,0.2-0.2c3.1-3,8-3,11,0c0.1,0.1,0.1,0.1,0.2,0.2c3.1,3,8,3,11,0c0.1-0.1,0.1-0.1,0.2-0.2c3-3,8-3,11,0
				c0.1,0.1,0.1,0.1,0.2,0.2c3.1,3,8,3,11,0c0.1-0.1,0.1-0.1,0.2-0.2c3.1-3,8-3,11,0c0.1,0.1,0.1,0.1,0.2,0.2c3.1,3,8,3,11,0
				l5.9-5.9"/>
			<path class="st5" d="M44.1,27.5l-5.9,5.9c-3.1,3-8,3-11,0c-0.1-0.1-0.1-0.1-0.2-0.2c-3-3-8-3-11,0c-0.1,0.1-0.1,0.1-0.2,0.2
				c-3.1,3-8,3-11,0c-0.1-0.1-0.1-0.1-0.2-0.2c-3.1-3-8-3-11,0c-0.1,0.1-0.1,0.1-0.2,0.2c-3.1,3-8,3-11,0c-0.1-0.1-0.1-0.1-0.2-0.2
				c-3.1-3-8-3-11,0c-0.1,0.1-0.1,0.1-0.2,0.2c-3.1,3-8,3-11,0c-0.1-0.1-0.1-0.1-0.2-0.2c-3.1-3-8-3-11,0c-0.1,0.1-0.1,0.1-0.2,0.2
				c-3,3-8,3-11,0c-0.1-0.1-0.1-0.1-0.2-0.2c-3.1-3-8-3-11,0c-0.1,0.1-0.1,0.1-0.2,0.2c-3.1,3-8,3-11,0c-0.1-0.1-0.1-0.1-0.2-0.2
				c-3-3-8-3-11,0l-0.2,0.2c-3.1,3-8,3-11,0c-0.1-0.1-0.1-0.1-0.2-0.2c-3.1-3-8-3-11,0c-0.1,0.1-0.1,0.1-0.2,0.2c-3.1,3-8,3-11,0
				c-0.1-0.1-0.1-0.1-0.2-0.2c-3.1-3-8-3-11,0c-0.1,0.1-0.1,0.1-0.2,0.2c-3,3-8,3-11,0c-0.1-0.1-0.1-0.1-0.2-0.2c-3.1-3-8-3-11,0
				c-0.1,0.1-0.1,0.1-0.2,0.2c-3.1,3-8,3-11,0c-0.1-0.1-0.1-0.1-0.2-0.2c-3.1-3-8-3-11,0c-0.1,0.1-0.1,0.1-0.2,0.2c-3,3-8,3-11,0
				c-0.1-0.1-0.1-0.1-0.2-0.2c-3.1-3-8-3-11,0c-0.1,0.1-0.1,0.1-0.2,0.2c-3.1,3-8,3-11,0c-0.1-0.1-0.1-0.1-0.2-0.2c-3-3-8-3-11,0
				l-0.2,0.2c-3.1,3-8,3-11,0c-0.1-0.1-0.1-0.1-0.2-0.2c-3.1-3-8-3-11,0c-0.1,0.1-0.1,0.1-0.2,0.2c-3.1,3-8,3-11,0
				c-2.9-2.9-5.9-5.9-5.9-5.9l0.1,5.8c0,0,3,3,5.9,5.9c3.1,3,8,3,11,0c0.1-0.1,0.1-0.1,0.2-0.2c3.1-3,8-3,11,0
				c0.1,0.1,0.1,0.1,0.2,0.2c3,3,8,3,11,0l0.2-0.2c3.1-3,8-3,11,0c0.1,0,0.1,0.1,0.2,0.2c3,3,8,3,11,0c0.1-0.1,0.1-0.1,0.2-0.2
				c3.1-3,8-3,11,0c0.1,0.1,0.1,0.1,0.2,0.2c3.1,3,8,3,11,0c0.1-0.1,0.1-0.1,0.2-0.2c3.1-3,8-3,11,0c0.1,0.1,0.1,0.1,0.2,0.2
				c3.1,3,8,3,11,0c0.1-0.1,0.1-0.1,0.2-0.2c3.1-3,8-3,11,0c0.1,0.1,0.1,0.1,0.2,0.2c3.1,3,8,3,11,0c0.1-0.1,0.1-0.1,0.2-0.2
				c3.1-3,8-3,11,0c0.1,0.1,0.1,0.1,0.2,0.2c3.1,3,8,3,11,0c0.1-0.1,0.1-0.1,0.2-0.2c3.1-3,8-3,11,0c0.1,0.1,0.1,0.1,0.2,0.2
				c3.1,3,8,3,11,0l0.2-0.2c3.1-3,8-3,11,0c0.1,0.1,0.1,0.1,0.2,0.2c3,3,8,3,11,0c0.1-0.1,0.1-0.1,0.2-0.2c3.1-3,8-3,11,0
				c0.1,0.1,0.1,0.1,0.2,0.2c3.1,3,8,3,11,0c0.1-0.1,0.1-0.1,0.2-0.2c3-3,8-3,11,0c0.1,0.1,0.1,0.1,0.2,0.2c3.1,3,8,3,11,0
				c0.1-0.1,0.1-0.1,0.2-0.2c3.1-3,8-3,11,0c0.1,0.1,0.1,0.1,0.2,0.2c3.1,3,8,3,11,0c0.1-0.1,0.1-0.1,0.2-0.2c3-3,8-3,11,0
				c0.1,0.1,0.1,0.1,0.2,0.2c3.1,3,8,3,11,0c0.1-0.1,0.1-0.1,0.2-0.2c3.1-3,8-3,11,0c0.1,0.1,0.1,0.1,0.2,0.2c3.1,3,8,3,11,0
				l5.9-5.9"/>
			<path class="st5" d="M44.9,45.3L39,51.2c-3.1,3-8,3-11,0c-0.1-0.1-0.1-0.1-0.2-0.2c-3.1-3-8-3-11,0c-0.1,0.1-0.1,0.1-0.2,0.2
				c-3.1,3-8,3-11,0c-0.1-0.1-0.1-0.1-0.2-0.2c-3.1-3-8-3-11,0c-0.1,0.1-0.1,0.1-0.2,0.2c-3,3-8,3-11,0c-0.1-0.1-0.1-0.1-0.2-0.2
				c-3.1-3-8-3-11,0c-0.1,0.1-0.1,0.1-0.2,0.2c-3.1,3-8,3-11,0c-0.1-0.1-0.1-0.1-0.2-0.2c-3.1-3-8-3-11,0c-0.1,0.1-0.1,0.1-0.2,0.2
				c-3,3-8,3-11,0c-0.1-0.1-0.1-0.1-0.2-0.2c-3.1-3-8-3-11,0c-0.1,0.1-0.1,0.1-0.2,0.2c-3.1,3-8,3-11,0c-0.1-0.1-0.1-0.1-0.2-0.2
				c-3-3-8-3-11,0l-0.2,0.2c-3.1,3-8,3-11,0c-0.1-0.1-0.1-0.1-0.2-0.2c-3.1-3-8-3-11,0c-0.1,0.1-0.1,0.1-0.2,0.2c-3.1,3-8,3-11,0
				c-0.1-0.1-0.1-0.1-0.2-0.2c-3.1-3-8-3-11,0c-0.1,0.1-0.1,0.1-0.2,0.2c-3.1,3-8,3-11,0c-0.1-0.1-0.1-0.1-0.2-0.2c-3.1-3-8-3-11,0
				c-0.1,0.1-0.1,0.1-0.2,0.2c-3.1,3-8,3-11,0c-0.1-0.1-0.1-0.1-0.2-0.2c-3.1-3-8-3-11,0c-0.1,0.1-0.1,0.1-0.2,0.2c-3.1,3-8,3-11,0
				c-0.1-0.1-0.1-0.1-0.2-0.2c-3.1-3-8-3-11,0c-0.1,0.1-0.1,0.1-0.2,0.2c-3.1,3-8,3-11,0c-0.1-0.1-0.1-0.1-0.2-0.2c-3-3-8-3-11,0
				l-0.2,0.2c-3.1,3-8,3-11,0c-0.1-0.1-0.1-0.1-0.2-0.2c-3.1-3-8-3-11,0c-0.1,0.1-0.1,0.1-0.2,0.2c-3.1,3-8,3-11,0
				c-2.9-2.9-5.9-5.9-5.9-5.9l-0.7-6.2c0,0,3,3,5.9,5.9c3,3,8,3,11,0c0.1-0.1,0.1-0.1,0.2-0.2c3.1-3,8-3,11,0
				c0.1,0.1,0.1,0.1,0.2,0.2c3.1,3,8,3,11,0l0.2-0.2c3.1-3,8-3,11,0c0.1,0.1,0.1,0.1,0.2,0.2c3,3,8,3,11,0c0.1-0.1,0.1-0.1,0.2-0.2
				c3.1-3,8-3,11,0c0.1,0.1,0.1,0.1,0.2,0.2c3.1,3,8,3,11,0c0.1-0.1,0.1-0.1,0.2-0.2c3-3,8-3,11,0c0.1,0.1,0.1,0.1,0.2,0.2
				c3.1,3,8,3,11,0c0.1-0.1,0.1-0.1,0.2-0.2c3.1-3,8-3,11,0c0.1,0.1,0.1,0.1,0.2,0.2c3.1,3,8,3,11,0c0.1-0.1,0.1-0.1,0.2-0.2
				c3-3,8-3,11,0c0.1,0.1,0.1,0.1,0.2,0.2c3.1,3,8,3,11,0c0.1-0.1,0.1-0.1,0.2-0.2c3.1-3,8-3,11,0c0.1,0.1,0.1,0.1,0.2,0.2
				c3.1,3,8,3,11,0l0.2-0.2c3.1-3,8-3,11,0c0.1,0.1,0.1,0.1,0.2,0.2c3,3,8,3,11,0c0.1-0.1,0.1-0.1,0.2-0.2c3.1-3,8-3,11,0
				c0.1,0.1,0.1,0.1,0.2,0.2c3.1,3,8,3,11,0c0.1-0.1,0.1-0.1,0.2-0.2c3-3,8-3,11,0c0.1,0.1,0.1,0.1,0.2,0.2c3.1,3,8,3,11,0
				c0.1-0.1,0.1-0.1,0.2-0.2c3.1-3,8-3,11,0c0.1,0.1,0.1,0.1,0.2,0.2c3.1,3,8,3,11,0c0.1-0.1,0.1-0.1,0.2-0.2c3-3,8-3,11,0
				C4.7,44.9,4.8,45,4.8,45c3,3,8,3,11,0c0.1-0.1,0.1-0.1,0.2-0.2c3.1-3,8-3,11,0c0.1,0.1,0.1,0.1,0.2,0.2c3,3,8,3,11,0l5.9-5.9"/>
		</g>
		<g>
			<defs>
				
					<rect id="SVGID_00000104681192872686007550000011837353456730332803_" x="261.1" y="-31.3" transform="matrix(0.7071 -0.7071 0.7071 0.7071 92.4157 208.1742)" width="72.8" height="47.7"/>
			</defs>
			<clipPath id="SVGID_00000140004322510190020260000014018667000703383730_">
				<use xlink:href="#SVGID_00000104681192872686007550000011837353456730332803_"  style="overflow:visible;"/>
			</clipPath>
			<g style="clip-path:url(#SVGID_00000140004322510190020260000014018667000703383730_);">
				<path class="st7" d="M217.2,37.8h5.8c3,0,5.4-2.4,5.4-5.4c0-0.1,0-0.1,0-0.2c0-3,2.4-5.4,5.4-5.4c0.1,0,0.1,0,0.2,0
					c3,0,5.4-2.4,5.4-5.4c0-0.1,0-0.1,0-0.2c0-3,2.4-5.4,5.4-5.4c0.1,0,0.1,0,0.2,0c3,0,5.4-2.4,5.4-5.4c0-0.1,0-0.1,0-0.2
					c0-3,2.4-5.4,5.4-5.4c0.1,0,0.1,0,0.2,0c3,0,5.4-2.4,5.4-5.4c0-0.1,0-0.1,0-0.2c0-3,2.4-5.4,5.4-5.4c0,0,0.1,0,0.1,0
					c3,0,5.4-2.4,5.4-5.4c0-0.1,0-0.1,0-0.2c0-3,2.4-5.4,5.4-5.4c0.1,0,0.1,0,0.2,0c3,0,5.4-2.4,5.4-5.4c0-0.1,0-0.1,0-0.2
					c0-3,2.4-5.4,5.4-5.4l0.2,0c3,0,5.4-2.4,5.4-5.4c0-0.1,0-0.1,0-0.2c0-3,2.4-5.4,5.4-5.4c0.1,0,0.1,0,0.2,0c3,0,5.4-2.4,5.4-5.4
					c0-0.1,0-0.1,0-0.2c0-3,2.4-5.4,5.4-5.4c0,0,0.1,0,0.1,0c3,0,5.4-2.4,5.4-5.4c0-0.1,0-0.1,0-0.2c0-3,2.4-5.4,5.4-5.4
					c0.1,0,0.1,0,0.2,0c3,0,5.4-2.4,5.4-5.4c0-0.1,0-0.1,0-0.2c0-3,2.4-5.4,5.4-5.4c0.1,0,0.1,0,0.2,0c3,0,5.4-2.4,5.4-5.4
					c0-0.1,0-0.1,0-0.2c0-3,2.4-5.4,5.4-5.4c0.1,0,0.1,0,0.2,0c3,0,5.4-2.4,5.4-5.4c0,0,0-0.1,0-0.1c0-3,2.4-5.4,5.4-5.4l0.2,0
					c3,0,5.4-2.4,5.4-5.4c0-0.1,0-0.1,0-0.2c0-3,2.4-5.4,5.4-5.4c0.1,0,0.1,0,0.2,0c3,0,5.4-2.4,5.4-5.4c0-2.9,0-5.8,0-5.8l-2.8-2.9
					c0,0,0,2.9,0,5.8c0,3-2.4,5.4-5.4,5.4c-0.1,0-0.1,0-0.2,0c-3,0-5.4,2.4-5.4,5.4c0,0.1,0,0.1,0,0.2c0,3-2.4,5.4-5.4,5.4h-0.2
					c-3,0-5.4,2.4-5.4,5.4c0,0,0,0.1,0,0.1c0,3-2.4,5.4-5.4,5.4c-0.1,0-0.1,0-0.2,0c-3,0-5.4,2.4-5.4,5.4c0,0.1,0,0.1,0,0.2
					c0,3-2.4,5.4-5.4,5.4c-0.1,0-0.1,0-0.2,0c-3,0-5.4,2.4-5.4,5.4c0,0.1,0,0.1,0,0.2c0,3-2.4,5.4-5.4,5.4c-0.1,0-0.1,0-0.2,0
					c-3,0-5.4,2.4-5.4,5.4c0,0.1,0,0.1,0,0.2c0,3-2.4,5.4-5.4,5.4c0,0-0.1,0-0.1,0c-3,0-5.4,2.4-5.4,5.4c0,0.1,0,0.1,0,0.2
					c0,3-2.4,5.4-5.4,5.4c-0.1,0-0.1,0-0.2,0c-3,0-5.4,2.4-5.4,5.4c0,0.1,0,0.1,0,0.2c0,3-2.4,5.4-5.4,5.4h-0.2
					c-3,0-5.4,2.4-5.4,5.4c0,0.1,0,0.1,0,0.2c0,3-2.4,5.4-5.4,5.4c-0.1,0-0.1,0-0.2,0c-3,0-5.4,2.4-5.4,5.4c0,0.1,0,0.1,0,0.2
					c0,3-2.4,5.4-5.4,5.4c0,0-0.1,0-0.1,0c-3,0-5.4,2.4-5.4,5.4c0,0.1,0,0.1,0,0.2c0,3-2.4,5.4-5.4,5.4c-0.1,0-0.1,0-0.2,0
					c-3,0-5.4,2.4-5.4,5.4c0,0.1,0,0.1,0,0.2c0,3-2.4,5.4-5.4,5.4c-0.1,0-0.1,0-0.2,0c-3,0-5.4,2.4-5.4,5.4c0,0.1,0,0.1,0,0.2
					c0,3-2.4,5.4-5.4,5.4c-0.1,0-0.1,0-0.2,0c-3,0-5.4,2.4-5.4,5.4c0,0.1,0,0.1,0,0.2c0,3-2.4,5.4-5.4,5.4h-5.8"/>
				<path class="st7" d="M220,40.7l5.8,0c3,0,5.4-2.4,5.4-5.4c0-0.1,0-0.1,0-0.2c0-3,2.4-5.4,5.4-5.4c0.1,0,0.1,0,0.2,0
					c3,0,5.4-2.4,5.4-5.4c0-0.1,0-0.1,0-0.2c0-3,2.4-5.4,5.4-5.4c0.1,0,0.1,0,0.2,0c3,0,5.4-2.4,5.4-5.4c0-0.1,0-0.1,0-0.2
					c0-3,2.4-5.4,5.4-5.4c0.1,0,0.1,0,0.2,0c3,0,5.4-2.4,5.4-5.4c0-0.1,0-0.1,0-0.2c0-3,2.4-5.4,5.4-5.4c0,0,0.1,0,0.1,0
					c3,0,5.4-2.4,5.4-5.4c0-0.1,0-0.1,0-0.2c0-3,2.4-5.4,5.4-5.4c0.1,0,0.1,0,0.2,0c3,0,5.4-2.4,5.4-5.4c0-0.1,0-0.1,0-0.2
					c0-3,2.4-5.4,5.4-5.4l0.2,0c3,0,5.4-2.4,5.4-5.4c0-0.1,0-0.1,0-0.2c0-3,2.4-5.4,5.4-5.4c0.1,0,0.1,0,0.2,0c3,0,5.4-2.4,5.4-5.4
					c0-0.1,0-0.1,0-0.2c0-3,2.4-5.4,5.4-5.4c0,0,0.1,0,0.1,0c3,0,5.4-2.4,5.4-5.4c0-0.1,0-0.1,0-0.2c0-3,2.4-5.4,5.4-5.4
					c0.1,0,0.1,0,0.2,0c3,0,5.4-2.4,5.4-5.4c0-0.1,0-0.1,0-0.2c0-3,2.4-5.4,5.4-5.4c0.1,0,0.1,0,0.2,0c3,0,5.4-2.4,5.4-5.4
					c0-0.1,0-0.1,0-0.2c0-3,2.4-5.4,5.4-5.4c0.1,0,0.1,0,0.2,0c3,0,5.4-2.4,5.4-5.4c0,0,0-0.1,0-0.1c0-3,2.4-5.4,5.4-5.4l0.2,0
					c3,0,5.4-2.4,5.4-5.4c0-0.1,0-0.1,0-0.2c0-3,2.4-5.4,5.4-5.4c0.1,0,0.1,0,0.2,0c3,0,5.4-2.4,5.4-5.4c0-2.9,0-5.8,0-5.8l2.8,2.9
					c0,0,0,2.9,0,5.8c0,3-2.4,5.4-5.4,5.4c-0.1,0-0.1,0-0.2,0c-3,0-5.4,2.4-5.4,5.4c0,0.1,0,0.1,0,0.2c0,3-2.4,5.4-5.4,5.4H361
					c-3,0-5.4,2.4-5.4,5.4c0,0,0,0.1,0,0.1c0,3-2.4,5.4-5.4,5.4c-0.1,0-0.1,0-0.2,0c-3,0-5.4,2.4-5.4,5.4c0,0.1,0,0.1,0,0.2
					c0,3-2.4,5.4-5.4,5.4c-0.1,0-0.1,0-0.2,0c-3,0-5.4,2.4-5.4,5.4c0,0.1,0,0.1,0,0.2c0,3-2.4,5.4-5.4,5.4c-0.1,0-0.1,0-0.2,0
					c-3,0-5.4,2.4-5.4,5.4c0,0.1,0,0.1,0,0.2c0,3-2.4,5.4-5.4,5.4c0,0-0.1,0-0.1,0c-3,0-5.4,2.4-5.4,5.4c0,0.1,0,0.1,0,0.2
					c0,3-2.4,5.4-5.4,5.4c-0.1,0-0.1,0-0.2,0c-3,0-5.4,2.4-5.4,5.4c0,0.1,0,0.1,0,0.2c0,3-2.4,5.4-5.4,5.4h-0.2
					c-3,0-5.4,2.4-5.4,5.4c0,0.1,0,0.1,0,0.2c0,3-2.4,5.4-5.4,5.4c-0.1,0-0.1,0-0.2,0c-3,0-5.4,2.4-5.4,5.4c0,0.1,0,0.1,0,0.2
					c0,3-2.4,5.4-5.4,5.4c0,0-0.1,0-0.1,0c-3,0-5.4,2.4-5.4,5.4c0,0.1,0,0.1,0,0.2c0,3-2.4,5.4-5.4,5.4c-0.1,0-0.1,0-0.2,0
					c-3,0-5.4,2.4-5.4,5.4c0,0.1,0,0.1,0,0.2c0,3-2.4,5.4-5.4,5.4c-0.1,0-0.1,0-0.2,0c-3,0-5.4,2.4-5.4,5.4c0,0.1,0,0.1,0,0.2
					c0,3-2.4,5.4-5.4,5.4c-0.1,0-0.1,0-0.2,0c-3,0-5.4,2.4-5.4,5.4c0,0.1,0,0.1,0,0.2c0,3-2.4,5.4-5.4,5.4h-5.8"/>
				<path class="st7" d="M225.7,46.5h5.8c3,0,5.4-2.4,5.4-5.4c0-0.1,0-0.1,0-0.2c0-3,2.4-5.4,5.4-5.4c0.1,0,0.1,0,0.2,0
					c3,0,5.4-2.4,5.4-5.4c0-0.1,0-0.1,0-0.2c0-3,2.4-5.4,5.4-5.4c0.1,0,0.1,0,0.2,0c3,0,5.4-2.4,5.4-5.4c0-0.1,0-0.1,0-0.2
					c0-3,2.4-5.4,5.4-5.4c0.1,0,0.1,0,0.2,0c3,0,5.4-2.4,5.4-5.4c0-0.1,0-0.1,0-0.2c0-3,2.4-5.4,5.4-5.4c0,0,0.1,0,0.1,0
					c3,0,5.4-2.4,5.4-5.4c0-0.1,0-0.1,0-0.2c0-3,2.4-5.4,5.4-5.4c0.1,0,0.1,0,0.2,0c3,0,5.4-2.4,5.4-5.4c0-0.1,0-0.1,0-0.2
					c0-3,2.4-5.4,5.4-5.4h0.2c3,0,5.4-2.4,5.4-5.4c0-0.1,0-0.1,0-0.2c0-3,2.4-5.4,5.4-5.4c0.1,0,0.1,0,0.2,0c3,0,5.4-2.4,5.4-5.4
					c0-0.1,0-0.1,0-0.2c0-3,2.4-5.4,5.4-5.4c0,0,0.1,0,0.1,0c3,0,5.4-2.4,5.4-5.4c0-0.1,0-0.1,0-0.2c0-3,2.4-5.4,5.4-5.4
					c0.1,0,0.1,0,0.2,0c3,0,5.4-2.4,5.4-5.4c0-0.1,0-0.1,0-0.2c0-3,2.4-5.4,5.4-5.4c0.1,0,0.1,0,0.2,0c3,0,5.4-2.4,5.4-5.4
					c0-0.1,0-0.1,0-0.2c0-3,2.4-5.4,5.4-5.4c0.1,0,0.1,0,0.2,0c3,0,5.4-2.4,5.4-5.4c0,0,0-0.1,0-0.1c0-3,2.4-5.4,5.4-5.4l0.2,0
					c3,0,5.4-2.4,5.4-5.4c0-0.1,0-0.1,0-0.2c0-3,2.4-5.4,5.4-5.4c0.1,0,0.1,0,0.2,0c3,0,5.4-2.4,5.4-5.4c0-2.9,0-5.8,0-5.8l2.8,2.9
					c0,0,0,2.9,0,5.8c0,3-2.4,5.4-5.4,5.4c-0.1,0-0.1,0-0.2,0c-3,0-5.4,2.4-5.4,5.4c0,0.1,0,0.1,0,0.2c0,3-2.4,5.4-5.4,5.4h-0.2
					c-3,0-5.4,2.4-5.4,5.4c0,0,0,0.1,0,0.1c0,3-2.4,5.4-5.4,5.4c-0.1,0-0.1,0-0.2,0c-3,0-5.4,2.4-5.4,5.4c0,0.1,0,0.1,0,0.2
					c0,3-2.4,5.4-5.4,5.4c-0.1,0-0.1,0-0.2,0c-3,0-5.4,2.4-5.4,5.4c0,0.1,0,0.1,0,0.2c0,3-2.4,5.4-5.4,5.4c-0.1,0-0.1,0-0.2,0
					c-3,0-5.4,2.4-5.4,5.4c0,0.1,0,0.1,0,0.2c0,3-2.4,5.4-5.4,5.4c0,0-0.1,0-0.1,0c-3,0-5.4,2.4-5.4,5.4c0,0.1,0,0.1,0,0.2
					c0,3-2.4,5.4-5.4,5.4c-0.1,0-0.1,0-0.2,0c-3,0-5.4,2.4-5.4,5.4c0,0.1,0,0.1,0,0.2c0,3-2.4,5.4-5.4,5.4l-0.2,0
					c-3,0-5.4,2.4-5.4,5.4c0,0.1,0,0.1,0,0.2c0,3-2.4,5.4-5.4,5.4c-0.1,0-0.1,0-0.2,0c-3,0-5.4,2.4-5.4,5.4c0,0.1,0,0.1,0,0.2
					c0,3-2.4,5.4-5.4,5.4c0,0-0.1,0-0.1,0c-3,0-5.4,2.4-5.4,5.4c0,0.1,0,0.1,0,0.2c0,3-2.4,5.4-5.4,5.4c-0.1,0-0.1,0-0.2,0
					c-3,0-5.4,2.4-5.4,5.4c0,0.1,0,0.1,0,0.2c0,3-2.4,5.4-5.4,5.4c-0.1,0-0.1,0-0.2,0c-3,0-5.4,2.4-5.4,5.4c0,0.1,0,0.1,0,0.2
					c0,3-2.4,5.4-5.4,5.4c-0.1,0-0.1,0-0.2,0c-3,0-5.4,2.4-5.4,5.4c0,0.1,0,0.1,0,0.2c0,3-2.4,5.4-5.4,5.4h-5.8"/>
				<path class="st7" d="M234.2,55.2h5.8c3,0,5.4-2.4,5.4-5.4c0-0.1,0-0.1,0-0.2c0-3,2.4-5.4,5.4-5.4c0.1,0,0.1,0,0.2,0
					c3,0,5.4-2.4,5.4-5.4c0-0.1,0-0.1,0-0.2c0-3,2.4-5.4,5.4-5.4c0.1,0,0.1,0,0.2,0c3,0,5.4-2.4,5.4-5.4c0-0.1,0-0.1,0-0.2
					c0-3,2.4-5.4,5.4-5.4c0.1,0,0.1,0,0.2,0c3,0,5.4-2.4,5.4-5.4c0-0.1,0-0.1,0-0.2c0-3,2.4-5.4,5.4-5.4c0,0,0.1,0,0.1,0
					c3,0,5.4-2.4,5.4-5.4c0-0.1,0-0.1,0-0.2c0-3,2.4-5.4,5.4-5.4c0.1,0,0.1,0,0.2,0c3,0,5.4-2.4,5.4-5.4c0-0.1,0-0.1,0-0.2
					c0-3,2.4-5.4,5.4-5.4h0.2c3,0,5.4-2.4,5.4-5.4c0-0.1,0-0.1,0-0.2c0-3,2.4-5.4,5.4-5.4c0.1,0,0.1,0,0.2,0c3,0,5.4-2.4,5.4-5.4
					c0-0.1,0-0.1,0-0.2c0-3,2.4-5.4,5.4-5.4c0,0,0.1,0,0.1,0c3,0,5.4-2.4,5.4-5.4c0-0.1,0-0.1,0-0.2c0-3,2.4-5.4,5.4-5.4
					c0.1,0,0.1,0,0.2,0c3,0,5.4-2.4,5.4-5.4c0-0.1,0-0.1,0-0.2c0-3,2.4-5.4,5.4-5.4c0.1,0,0.1,0,0.2,0c3,0,5.4-2.4,5.4-5.4
					c0-0.1,0-0.1,0-0.2c0-3,2.4-5.4,5.4-5.4c0.1,0,0.1,0,0.2,0c3,0,5.4-2.4,5.4-5.4c0,0,0-0.1,0-0.1c0-3,2.4-5.4,5.4-5.4l0.2,0
					c3,0,5.4-2.4,5.4-5.4c0-0.1,0-0.1,0-0.2c0-3,2.4-5.4,5.4-5.4c0.1,0,0.1,0,0.2,0c3,0,5.4-2.4,5.4-5.4c0-2.9,0-5.8,0-5.8l-2.8-2.9
					c0,0,0,2.9,0,5.8c0,3-2.4,5.4-5.4,5.4c-0.1,0-0.1,0-0.2,0c-3,0-5.4,2.4-5.4,5.4c0,0.1,0,0.1,0,0.2c0,3-2.4,5.4-5.4,5.4l-0.2,0
					c-3,0-5.4,2.4-5.4,5.4c0,0,0,0.1,0,0.1c0,3-2.4,5.4-5.4,5.4c-0.1,0-0.1,0-0.2,0c-3,0-5.4,2.4-5.4,5.4c0,0.1,0,0.1,0,0.2
					c0,3-2.4,5.4-5.4,5.4c-0.1,0-0.1,0-0.2,0c-3,0-5.4,2.4-5.4,5.4c0,0.1,0,0.1,0,0.2c0,3-2.4,5.4-5.4,5.4c-0.1,0-0.1,0-0.2,0
					c-3,0-5.4,2.4-5.4,5.4c0,0.1,0,0.1,0,0.2c0,3-2.4,5.4-5.4,5.4c0,0-0.1,0-0.1,0c-3,0-5.4,2.4-5.4,5.4c0,0.1,0,0.1,0,0.2
					c0,3-2.4,5.4-5.4,5.4c-0.1,0-0.1,0-0.2,0c-3,0-5.4,2.4-5.4,5.4c0,0.1,0,0.1,0,0.2c0,3-2.4,5.4-5.4,5.4h-0.2
					c-3,0-5.4,2.4-5.4,5.4c0,0.1,0,0.1,0,0.2c0,3-2.4,5.4-5.4,5.4c-0.1,0-0.1,0-0.2,0c-3,0-5.4,2.4-5.4,5.4c0,0.1,0,0.1,0,0.2
					c0,3-2.4,5.4-5.4,5.4c0,0-0.1,0-0.1,0c-3,0-5.4,2.4-5.4,5.4c0,0.1,0,0.1,0,0.2c0,3-2.4,5.4-5.4,5.4c-0.1,0-0.1,0-0.2,0
					c-3,0-5.4,2.4-5.4,5.4c0,0.1,0,0.1,0,0.2c0,3-2.4,5.4-5.4,5.4c-0.1,0-0.1,0-0.2,0c-3,0-5.4,2.4-5.4,5.4c0,0.1,0,0.1,0,0.2
					c0,3-2.4,5.4-5.4,5.4c-0.1,0-0.1,0-0.2,0c-3,0-5.4,2.4-5.4,5.4c0,0.1,0,0.1,0,0.2c0,3-2.4,5.4-5.4,5.4h-5.8"/>
				<path class="st7" d="M237.1,58.1h5.8c3,0,5.4-2.4,5.4-5.4c0-0.1,0-0.1,0-0.2c0-3,2.4-5.4,5.4-5.4c0.1,0,0.1,0,0.2,0
					c3,0,5.4-2.4,5.4-5.4c0-0.1,0-0.1,0-0.2c0-3,2.4-5.4,5.4-5.4c0.1,0,0.1,0,0.2,0c3,0,5.4-2.4,5.4-5.4c0-0.1,0-0.1,0-0.2
					c0-3,2.4-5.4,5.4-5.4c0.1,0,0.1,0,0.2,0c3,0,5.4-2.4,5.4-5.4c0-0.1,0-0.1,0-0.2c0-3,2.4-5.4,5.4-5.4c0,0,0.1,0,0.1,0
					c3,0,5.4-2.4,5.4-5.4c0-0.1,0-0.1,0-0.2c0-3,2.4-5.4,5.4-5.4c0.1,0,0.1,0,0.2,0c3,0,5.4-2.4,5.4-5.4c0-0.1,0-0.1,0-0.2
					c0-3,2.4-5.4,5.4-5.4h0.2c3,0,5.4-2.4,5.4-5.4c0-0.1,0-0.1,0-0.2c0-3,2.4-5.4,5.4-5.4c0.1,0,0.1,0,0.2,0c3,0,5.4-2.4,5.4-5.4
					c0-0.1,0-0.1,0-0.2c0-3,2.4-5.4,5.4-5.4c0,0,0.1,0,0.1,0c3,0,5.4-2.4,5.4-5.4c0-0.1,0-0.1,0-0.2c0-3,2.4-5.4,5.4-5.4
					c0.1,0,0.1,0,0.2,0c3,0,5.4-2.4,5.4-5.4c0-0.1,0-0.1,0-0.2c0-3,2.4-5.4,5.4-5.4c0.1,0,0.1,0,0.2,0c3,0,5.4-2.4,5.4-5.4
					c0-0.1,0-0.1,0-0.2c0-3,2.4-5.4,5.4-5.4c0.1,0,0.1,0,0.2,0c3,0,5.4-2.4,5.4-5.4c0,0,0-0.1,0-0.1c0-3,2.4-5.4,5.4-5.4l0.2,0
					c3,0,5.4-2.4,5.4-5.4c0-0.1,0-0.1,0-0.2c0-3,2.4-5.4,5.4-5.4c0.1,0,0.1,0,0.2,0c3,0,5.4-2.4,5.4-5.4c0-2.9,0-5.8,0-5.8l2.8,2.9
					c0,0,0,2.9,0,5.8c0,3-2.4,5.4-5.4,5.4c-0.1,0-0.1,0-0.2,0c-3,0-5.4,2.4-5.4,5.4c0,0.1,0,0.1,0,0.2c0,3-2.4,5.4-5.4,5.4l-0.2,0
					c-3,0-5.4,2.4-5.4,5.4c0,0,0,0.1,0,0.1c0,3-2.4,5.4-5.4,5.4c-0.1,0-0.1,0-0.2,0c-3,0-5.4,2.4-5.4,5.4c0,0.1,0,0.1,0,0.2
					c0,3-2.4,5.4-5.4,5.4c-0.1,0-0.1,0-0.2,0c-3,0-5.4,2.4-5.4,5.4c0,0.1,0,0.1,0,0.2c0,3-2.4,5.4-5.4,5.4c-0.1,0-0.1,0-0.2,0
					c-3,0-5.4,2.4-5.4,5.4c0,0.1,0,0.1,0,0.2c0,3-2.4,5.4-5.4,5.4c0,0-0.1,0-0.1,0c-3,0-5.4,2.4-5.4,5.4c0,0.1,0,0.1,0,0.2
					c0,3-2.4,5.4-5.4,5.4c-0.1,0-0.1,0-0.2,0c-3,0-5.4,2.4-5.4,5.4c0,0.1,0,0.1,0,0.2c0,3-2.4,5.4-5.4,5.4h-0.2
					c-3,0-5.4,2.4-5.4,5.4c0,0.1,0,0.1,0,0.2c0,3-2.4,5.4-5.4,5.4c-0.1,0-0.1,0-0.2,0c-3,0-5.4,2.4-5.4,5.4c0,0.1,0,0.1,0,0.2
					c0,3-2.4,5.4-5.4,5.4c0,0-0.1,0-0.1,0c-3,0-5.4,2.4-5.4,5.4c0,0.1,0,0.1,0,0.2c0,3-2.4,5.4-5.4,5.4c-0.1,0-0.1,0-0.2,0
					c-3,0-5.4,2.4-5.4,5.4c0,0.1,0,0.1,0,0.2c0,3-2.4,5.4-5.4,5.4c-0.1,0-0.1,0-0.2,0c-3,0-5.4,2.4-5.4,5.4c0,0.1,0,0.1,0,0.2
					c0,3-2.4,5.4-5.4,5.4c-0.1,0-0.1,0-0.2,0c-3,0-5.4,2.4-5.4,5.4c0,0.1,0,0.1,0,0.2c0,3-2.4,5.4-5.4,5.4l-5.8,0"/>
				<path class="st7" d="M242.8,63.9h5.8c3,0,5.4-2.4,5.4-5.4c0-0.1,0-0.1,0-0.2c0-3,2.4-5.4,5.4-5.4c0.1,0,0.1,0,0.2,0
					c3,0,5.4-2.4,5.4-5.4c0-0.1,0-0.1,0-0.2c0-3,2.4-5.4,5.4-5.4c0.1,0,0.1,0,0.2,0c3,0,5.4-2.4,5.4-5.4c0-0.1,0-0.1,0-0.2
					c0-3,2.4-5.4,5.4-5.4c0.1,0,0.1,0,0.2,0c3,0,5.4-2.4,5.4-5.4c0-0.1,0-0.1,0-0.2c0-3,2.4-5.4,5.4-5.4c0,0,0.1,0,0.1,0
					c3,0,5.4-2.4,5.4-5.4c0-0.1,0-0.1,0-0.2c0-3,2.4-5.4,5.4-5.4c0.1,0,0.1,0,0.2,0c3,0,5.4-2.4,5.4-5.4c0-0.1,0-0.1,0-0.2
					c0-3,2.4-5.4,5.4-5.4h0.2c3,0,5.4-2.4,5.4-5.4c0-0.1,0-0.1,0-0.2c0-3,2.4-5.4,5.4-5.4c0.1,0,0.1,0,0.2,0c3,0,5.4-2.4,5.4-5.4
					c0-0.1,0-0.1,0-0.2c0-3,2.4-5.4,5.4-5.4c0,0,0.1,0,0.1,0c3,0,5.4-2.4,5.4-5.4c0-0.1,0-0.1,0-0.2c0-3,2.4-5.4,5.4-5.4
					c0.1,0,0.1,0,0.2,0c3,0,5.4-2.4,5.4-5.4c0-0.1,0-0.1,0-0.2c0-3,2.4-5.4,5.4-5.4c0.1,0,0.1,0,0.2,0c3,0,5.4-2.4,5.4-5.4
					c0-0.1,0-0.1,0-0.2c0-3,2.4-5.4,5.4-5.4c0.1,0,0.1,0,0.2,0c3,0,5.4-2.4,5.4-5.4c0,0,0-0.1,0-0.1c0-3,2.4-5.4,5.4-5.4h0.2
					c3,0,5.4-2.4,5.4-5.4c0-0.1,0-0.1,0-0.2c0-3,2.4-5.4,5.4-5.4c0.1,0,0.1,0,0.2,0c3,0,5.4-2.4,5.4-5.4c0-2.9,0-5.8,0-5.8l2.8,2.9
					c0,0,0,2.9,0,5.8c0,3-2.4,5.4-5.4,5.4c-0.1,0-0.1,0-0.2,0c-3,0-5.4,2.4-5.4,5.4c0,0.1,0,0.1,0,0.2c0,3-2.4,5.4-5.4,5.4l-0.2,0
					c-3,0-5.4,2.4-5.4,5.4c0,0,0,0.1,0,0.1c0,3-2.4,5.4-5.4,5.4c-0.1,0-0.1,0-0.2,0c-3,0-5.4,2.4-5.4,5.4c0,0.1,0,0.1,0,0.2
					c0,3-2.4,5.4-5.4,5.4c-0.1,0-0.1,0-0.2,0c-3,0-5.4,2.4-5.4,5.4c0,0.1,0,0.1,0,0.2c0,3-2.4,5.4-5.4,5.4c-0.1,0-0.1,0-0.2,0
					c-3,0-5.4,2.4-5.4,5.4c0,0.1,0,0.1,0,0.2c0,3-2.4,5.4-5.4,5.4c0,0-0.1,0-0.1,0c-3,0-5.4,2.4-5.4,5.4c0,0.1,0,0.1,0,0.2
					c0,3-2.4,5.4-5.4,5.4c-0.1,0-0.1,0-0.2,0c-3,0-5.4,2.4-5.4,5.4c0,0.1,0,0.1,0,0.2c0,3-2.4,5.4-5.4,5.4l-0.2,0
					c-3,0-5.4,2.4-5.4,5.4c0,0.1,0,0.1,0,0.2c0,3-2.4,5.4-5.4,5.4c-0.1,0-0.1,0-0.2,0c-3,0-5.4,2.4-5.4,5.4c0,0.1,0,0.1,0,0.2
					c0,3-2.4,5.4-5.4,5.4c0,0-0.1,0-0.1,0c-3,0-5.4,2.4-5.4,5.4c0,0.1,0,0.1,0,0.2c0,3-2.4,5.4-5.4,5.4c-0.1,0-0.1,0-0.2,0
					c-3,0-5.4,2.4-5.4,5.4c0,0.1,0,0.1,0,0.2c0,3-2.4,5.4-5.4,5.4c-0.1,0-0.1,0-0.2,0c-3,0-5.4,2.4-5.4,5.4c0,0.1,0,0.1,0,0.2
					c0,3-2.4,5.4-5.4,5.4c-0.1,0-0.1,0-0.2,0c-3,0-5.4,2.4-5.4,5.4c0,0.1,0,0.1,0,0.2c0,3-2.4,5.4-5.4,5.4l-5.8,0"/>
				<path class="st7" d="M251.2,73.1h5.8c3,0,5.4-2.4,5.4-5.4c0-0.1,0-0.1,0-0.2c0-3,2.4-5.4,5.4-5.4c0.1,0,0.1,0,0.2,0
					c3,0,5.4-2.4,5.4-5.4c0-0.1,0-0.1,0-0.2c0-3,2.4-5.4,5.4-5.4c0.1,0,0.1,0,0.2,0c3,0,5.4-2.4,5.4-5.4c0-0.1,0-0.1,0-0.2
					c0-3,2.4-5.4,5.4-5.4c0.1,0,0.1,0,0.2,0c3,0,5.4-2.4,5.4-5.4c0-0.1,0-0.1,0-0.2c0-3,2.4-5.4,5.4-5.4c0,0,0.1,0,0.1,0
					c3,0,5.4-2.4,5.4-5.4c0-0.1,0-0.1,0-0.2c0-3,2.4-5.4,5.4-5.4c0.1,0,0.1,0,0.2,0c3,0,5.4-2.4,5.4-5.4c0-0.1,0-0.1,0-0.2
					c0-3,2.4-5.4,5.4-5.4l0.2,0c3,0,5.4-2.4,5.4-5.4c0-0.1,0-0.1,0-0.2c0-3,2.4-5.4,5.4-5.4c0.1,0,0.1,0,0.2,0c3,0,5.4-2.4,5.4-5.4
					c0-0.1,0-0.1,0-0.2c0-3,2.4-5.4,5.4-5.4c0,0,0.1,0,0.1,0c3,0,5.4-2.4,5.4-5.4c0-0.1,0-0.1,0-0.2c0-3,2.4-5.4,5.4-5.4
					c0.1,0,0.1,0,0.2,0c3,0,5.4-2.4,5.4-5.4c0-0.1,0-0.1,0-0.2c0-3,2.4-5.4,5.4-5.4c0.1,0,0.1,0,0.2,0c3,0,5.4-2.4,5.4-5.4
					c0-0.1,0-0.1,0-0.2c0-3,2.4-5.4,5.4-5.4c0.1,0,0.1,0,0.2,0c3,0,5.4-2.4,5.4-5.4c0,0,0-0.1,0-0.1c0-3,2.4-5.4,5.4-5.4h0.2
					c3,0,5.4-2.4,5.4-5.4c0-0.1,0-0.1,0-0.2c0-3,2.4-5.4,5.4-5.4c0.1,0,0.1,0,0.2,0c3,0,5.4-2.4,5.4-5.4c0-2.9,0-5.8,0-5.8l-2.7-3.4
					c0,0,0,2.9,0,5.8c0,3-2.4,5.4-5.4,5.4c-0.1,0-0.1,0-0.2,0c-3,0-5.4,2.4-5.4,5.4c0,0.1,0,0.1,0,0.2c0,3-2.4,5.4-5.4,5.4h-0.2
					c-3,0-5.4,2.4-5.4,5.4c0,0,0,0.1,0,0.1c0,3-2.4,5.4-5.4,5.4c-0.1,0-0.1,0-0.2,0c-3,0-5.4,2.4-5.4,5.4c0,0.1,0,0.1,0,0.2
					c0,3-2.4,5.4-5.4,5.4c-0.1,0-0.1,0-0.2,0c-3,0-5.4,2.4-5.4,5.4c0,0.1,0,0.1,0,0.2c0,3-2.4,5.4-5.4,5.4c-0.1,0-0.1,0-0.2,0
					c-3,0-5.4,2.4-5.4,5.4c0,0.1,0,0.1,0,0.2c0,3-2.4,5.4-5.4,5.4c0,0-0.1,0-0.1,0c-3,0-5.4,2.4-5.4,5.4c0,0.1,0,0.1,0,0.2
					c0,3-2.4,5.4-5.4,5.4c-0.1,0-0.1,0-0.2,0c-3,0-5.4,2.4-5.4,5.4c0,0.1,0,0.1,0,0.2c0,3-2.4,5.4-5.4,5.4h-0.2
					c-3,0-5.4,2.4-5.4,5.4c0,0.1,0,0.1,0,0.2c0,3-2.4,5.4-5.4,5.4c-0.1,0-0.1,0-0.2,0c-3,0-5.4,2.4-5.4,5.4c0,0.1,0,0.1,0,0.2
					c0,3-2.4,5.4-5.4,5.4c0,0-0.1,0-0.1,0c-3,0-5.4,2.4-5.4,5.4c0,0.1,0,0.1,0,0.2c0,3-2.4,5.4-5.4,5.4c-0.1,0-0.1,0-0.2,0
					c-3,0-5.4,2.4-5.4,5.4c0,0.1,0,0.1,0,0.2c0,3-2.4,5.4-5.4,5.4c-0.1,0-0.1,0-0.2,0c-3,0-5.4,2.4-5.4,5.4c0,0.1,0,0.1,0,0.2
					c0,3-2.4,5.4-5.4,5.4c-0.1,0-0.1,0-0.2,0c-3,0-5.4,2.4-5.4,5.4c0,0.1,0,0.1,0,0.2c0,3-2.4,5.4-5.4,5.4h-5.8"/>
			</g>
		</g>
		<path class="st3" d="M43.3-11.6v65h65v-65H43.3z M94.6,39.7H56.9V2h37.6V39.7z"/>
		<path class="st2" d="M-89.5,228.4c25.3,0,45.9-20.5,45.9-45.9s-20.5-45.9-45.9-45.9V228.4z"/>
		<g>
			<rect x="-97.1" y="136.6" class="st7" width="3.4" height="91.8"/>
			<rect x="-105.3" y="136.6" class="st7" width="3.4" height="91.8"/>
			<rect x="-113.6" y="136.6" class="st7" width="3.4" height="91.8"/>
			<rect x="-121.9" y="136.6" class="st7" width="3.4" height="91.8"/>
			<rect x="-130.2" y="136.6" class="st7" width="3.4" height="91.8"/>
			<rect x="-138.5" y="136.6" class="st7" width="3.4" height="91.8"/>
		</g>
		<g>
			<rect x="-10.6" y="153.5" class="st3" width="2.8" height="75.7"/>
			<rect x="-3.5" y="153.5" class="st3" width="2.8" height="75.7"/>
			<rect x="3.7" y="153.5" class="st3" width="2.8" height="75.7"/>
			<rect x="10.9" y="153.5" class="st3" width="2.8" height="75.7"/>
			<rect x="18" y="153.5" class="st3" width="2.8" height="75.7"/>
			<rect x="25.2" y="153.5" class="st3" width="2.8" height="75.7"/>
		</g>
		<g>
			<g>
				
					<rect x="341" y="42.7" transform="matrix(-0.7071 0.7071 -0.7071 -0.7071 634.5251 -126.878)" class="st8" width="5" height="50.6"/>
				
					<rect x="332" y="51.8" transform="matrix(-0.7071 0.7071 -0.7071 -0.7071 625.4509 -104.9917)" class="st8" width="5" height="50.6"/>
				
					<rect x="322.9" y="60.8" transform="matrix(-0.7071 0.7071 -0.7071 -0.7071 616.3845 -83.0932)" class="st8" width="5" height="50.6"/>
				
					<rect x="313.8" y="69.9" transform="matrix(-0.7071 0.7071 -0.7071 -0.7071 607.3154 -61.1991)" class="st8" width="5" height="50.6"/>
				
					<rect x="304.7" y="79" transform="matrix(-0.7071 0.7071 -0.7071 -0.7071 598.2465 -39.3047)" class="st8" width="5" height="50.6"/>
				
					<rect x="295.7" y="88" transform="matrix(-0.7071 0.7071 -0.7071 -0.7071 589.1794 -17.4062)" class="st8" width="5" height="50.6"/>
			</g>
			<g>
				
					<rect x="396.5" y="-12.8" transform="matrix(-0.7071 0.7071 -0.7071 -0.7071 689.9723 -260.7631)" class="st8" width="5" height="50.6"/>
				
					<rect x="387.4" y="-3.7" transform="matrix(-0.7071 0.7071 -0.7071 -0.7071 680.9108 -238.8605)" class="st8" width="5" height="50.6"/>
				
					<rect x="378.3" y="5.4" transform="matrix(-0.7071 0.7071 -0.7071 -0.7071 671.8383 -216.9701)" class="st8" width="5" height="50.6"/>
				
					<rect x="369.3" y="14.4" transform="matrix(-0.7071 0.7071 -0.7071 -0.7071 662.7693 -195.0759)" class="st8" width="5" height="50.6"/>
				
					<rect x="360.2" y="23.5" transform="matrix(-0.7071 0.7071 -0.7071 -0.7071 653.7003 -173.1814)" class="st8" width="5" height="50.6"/>
				
					<rect x="351.1" y="32.6" transform="matrix(-0.7071 0.7071 -0.7071 -0.7071 644.6345 -151.2827)" class="st8" width="5" height="50.6"/>
			</g>
		</g>
		<path class="st9" d="M206.9,132.2l-36.3,36.3l36.3,36.3l36.3-36.3L206.9,132.2z M192.3,183.7v-29.2h29.2v29.2H192.3z"/>
		<ellipse transform="matrix(0.1602 -0.9871 0.9871 0.1602 42.6021 91.3456)" class="st9" cx="75" cy="20.6" rx="11.9" ry="11.9"/>
		<g>
			<path class="st3" d="M-13.6,64.5c0,2-1.6,3.5-3.5,3.5c-2,0-3.5-1.6-3.5-3.5c0-2,1.6-3.5,3.5-3.5C-15.2,60.9-13.6,62.5-13.6,64.5z
				"/>
			<path class="st3" d="M10.8,64.5c0,2-1.6,3.5-3.5,3.5c-2,0-3.5-1.6-3.5-3.5c0-2,1.6-3.5,3.5-3.5C9.2,60.9,10.8,62.5,10.8,64.5z"/>
			<path class="st3" d="M35.2,64.5c0,2-1.6,3.5-3.5,3.5c-2,0-3.5-1.6-3.5-3.5c0-2,1.6-3.5,3.5-3.5C33.6,60.9,35.2,62.5,35.2,64.5z"
				/>
			<path class="st3" d="M59.6,64.5c0,2-1.6,3.5-3.5,3.5c-2,0-3.5-1.6-3.5-3.5c0-2,1.6-3.5,3.5-3.5C58,60.9,59.6,62.5,59.6,64.5z"/>
			<path class="st3" d="M83.9,64.5c0,2-1.6,3.5-3.5,3.5c-2,0-3.5-1.6-3.5-3.5c0-2,1.6-3.5,3.5-3.5C82.4,60.9,83.9,62.5,83.9,64.5z"
				/>
			<path class="st3" d="M108.3,64.5c0,2-1.6,3.5-3.5,3.5s-3.5-1.6-3.5-3.5c0-2,1.6-3.5,3.5-3.5S108.3,62.5,108.3,64.5z"/>
		</g>
		<g>
			<circle class="st3" cx="49.6" cy="163.1" r="3.5"/>
			<circle class="st3" cx="49.6" cy="187.5" r="3.5"/>
			<circle class="st3" cx="49.6" cy="211.9" r="3.5"/>
			<circle class="st3" cx="49.6" cy="236.3" r="3.5"/>
			<path class="st3" d="M49.6,264.3c-2,0-3.5-1.6-3.5-3.5c0-2,1.6-3.5,3.5-3.5c2,0,3.5,1.6,3.5,3.5
				C53.1,262.7,51.6,264.3,49.6,264.3z"/>
			<circle class="st3" cx="49.6" cy="285.1" r="3.5"/>
		</g>
		<g>
			<circle class="st3" cx="-158" cy="241.3" r="3.5"/>
			<circle class="st3" cx="-133.7" cy="241.3" r="3.5"/>
			<circle class="st3" cx="-109.3" cy="241.3" r="3.5"/>
			<circle class="st3" cx="-84.9" cy="241.3" r="3.5"/>
			<path class="st3" d="M-56.9,241.3c0,2-1.6,3.5-3.5,3.5c-2,0-3.5-1.6-3.5-3.5c0-2,1.6-3.5,3.5-3.5
				C-58.5,237.8-56.9,239.3-56.9,241.3z"/>
			<circle class="st3" cx="-36.1" cy="241.3" r="3.5"/>
		</g>
		<g>
			<g>
				<path class="st2" d="M118.6,329.1c1.4,1.4,1.4,3.6,0,5c-1.4,1.4-3.6,1.4-5,0c-1.4-1.4-1.4-3.6,0-5
					C115,327.7,117.2,327.7,118.6,329.1z"/>
				<path class="st2" d="M135.9,311.8c1.4,1.4,1.4,3.6,0,5c-1.4,1.4-3.6,1.4-5,0c-1.4-1.4-1.4-3.6,0-5
					C132.2,310.4,134.5,310.4,135.9,311.8z"/>
				<path class="st2" d="M153.1,294.6c1.4,1.4,1.4,3.6,0,5c-1.4,1.4-3.6,1.4-5,0c-1.4-1.4-1.4-3.6,0-5
					C149.5,293.2,151.7,293.2,153.1,294.6z"/>
				<path class="st2" d="M170.4,277.3c1.4,1.4,1.4,3.6,0,5c-1.4,1.4-3.6,1.4-5,0c-1.4-1.4-1.4-3.6,0-5
					C166.7,275.9,169,275.9,170.4,277.3z"/>
				<path class="st2" d="M187.6,260.1c1.4,1.4,1.4,3.6,0,5c-1.4,1.4-3.6,1.4-5,0c-1.4-1.4-1.4-3.6,0-5
					C184,258.7,186.2,258.7,187.6,260.1z"/>
				<path class="st2" d="M204.9,242.8c1.4,1.4,1.4,3.6,0,5c-1.4,1.4-3.6,1.4-5,0c-1.4-1.4-1.4-3.6,0-5
					C201.2,241.4,203.5,241.4,204.9,242.8z"/>
			</g>
			<g>
				<path class="st10" d="M266.9,158.3l-37.7,41.8c-3.5,3.9-3.2,9.9,0.7,13.4l4.6,4.2c3.9,3.5,9.8,3.2,13.3-0.7l37.8-41.8l-2.5-16
					L266.9,158.3z"/>
				<path class="st9" d="M285.2,175.7c4.7-5.2,4.3-13.1-0.9-17.8c-5.2-4.7-13.1-4.3-17.8,0.9c-4.7,5.2-4.3,13.1,0.9,17.8
					S280.5,180.9,285.2,175.7z M268.7,160.7l12.9-0.7l0.7,12.9l-12.9,0.7L268.7,160.7z"/>
				<path class="st9" d="M259.2,166.8c-4.7,5.2-4.3,13.1,0.9,17.8c5.2,4.7,13.1,4.3,17.8-0.9l4.4-4.9c-4.7,5.2-12.6,5.6-17.8,0.9
					c-5.2-4.7-5.6-12.6-0.9-17.8L259.2,166.8z"/>
				<path class="st9" d="M251.6,175.3c-4.7,5.2-4.3,13.1,0.9,17.8c5.2,4.7,13.1,4.3,17.8-0.9l4.4-4.9c-4.7,5.2-12.6,5.6-17.8,0.9
					c-5.2-4.7-5.6-12.6-0.9-17.8L251.6,175.3z"/>
				<path class="st9" d="M244,183.7c-4.7,5.2-4.3,13.1,0.9,17.8c5.2,4.7,13.1,4.3,17.8-0.9l4.4-4.9c-4.7,5.2-12.6,5.6-17.8,0.9
					c-5.2-4.7-5.6-12.6-0.9-17.8L244,183.7z"/>
				<path class="st9" d="M236.3,192.2c-4.7,5.2-4.3,13.1,0.9,17.8c5.2,4.7,13.1,4.3,17.8-0.9l4.4-4.9c-4.7,5.2-12.6,5.6-17.8,0.9
					c-5.2-4.7-5.6-12.6-0.9-17.8L236.3,192.2z"/>
				<path class="st9" d="M228.7,200.6c-4.7,5.2-4.3,13.1,0.9,17.8c5.2,4.7,13.1,4.3,17.8-0.9l4.4-4.9c-4.7,5.2-12.6,5.6-17.8,0.9
					c-5.2-4.7-5.6-12.6-0.9-17.8L228.7,200.6z"/>
				
					<rect x="273.6" y="164.9" transform="matrix(-0.9987 5.072220e-02 -5.072220e-02 -0.9987 559.1163 319.3885)" class="st4" width="3.7" height="3.7"/>
			</g>
		</g>
		<path class="st8" d="M199.8,90.2c20.3,20.3,53.1,20.3,73.4,0l96.6-96.6l-15.5-15.5l-96.6,96.6c-11.7,11.7-30.7,11.7-42.4,0
			c-11.7-11.7-11.7-30.7,0-42.4l96.6-96.6l-15.5-15.5l-96.6,96.6C179.5,37.1,179.5,70,199.8,90.2z M275.3,72.8c-1-1-1-2.5,0-3.5
			c1-1,2.5-1,3.5,0c1,1,1,2.5,0,3.5C277.8,73.8,276.3,73.8,275.3,72.8z M287.4,60.8c-1-1-1-2.5,0-3.5c1-1,2.5-1,3.5,0
			c1,1,1,2.5,0,3.5C289.9,61.8,288.3,61.8,287.4,60.8z M299.4,48.8c-1-1-1-2.5,0-3.5c1-1,2.5-1,3.5,0c1,1,1,2.5,0,3.5
			S300.4,49.7,299.4,48.8z M339,9.2c1,1,1,2.5,0,3.5c-1,1-2.5,1-3.5,0c-1-1-1-2.5,0-3.5C336.5,8.2,338,8.2,339,9.2z M326.9,21.2
			c1,1,1,2.5,0,3.5c-1,1-2.5,1-3.5,0c-1-1-1-2.5,0-3.5C324.4,20.2,326,20.2,326.9,21.2z M314.9,33.2c1,1,1,2.5,0,3.5
			c-1,1-2.5,1-3.5,0c-1-1-1-2.5,0-3.5C312.4,32.3,313.9,32.3,314.9,33.2z"/>
		<g>
			
				<ellipse transform="matrix(0.1602 -0.9871 0.9871 0.1602 -335.0883 325.6486)" class="st2" cx="23.8" cy="359.7" rx="32.3" ry="32.3"/>
			<g>
				
					<ellipse transform="matrix(0.2298 -0.9732 0.9732 0.2298 -331.7641 300.2875)" class="st11" cx="23.8" cy="359.7" rx="40.4" ry="40.4"/>
				<circle class="st11" cx="23.8" cy="359.7" r="48.2"/>
			</g>
			<circle class="st7" cx="23.8" cy="359.7" r="14.7"/>
		</g>
		<g>
			<circle class="st2" cx="439.7" cy="-42" r="38.7"/>
			<g>
				
					<ellipse transform="matrix(0.2322 -0.9727 0.9727 0.2322 378.4364 395.4377)" class="st11" cx="439.7" cy="-42" rx="48.3" ry="48.3"/>
				
					<ellipse transform="matrix(0.7071 -0.7071 0.7071 0.7071 158.5092 298.5871)" class="st11" cx="439.7" cy="-42" rx="57.7" ry="57.7"/>
			</g>
			
				<ellipse transform="matrix(0.7071 -0.7071 0.7071 0.7071 158.5092 298.5871)" class="st7" cx="439.7" cy="-42" rx="17.6" ry="17.6"/>
		</g>
		<g>
			<path class="st2" d="M171.3,85.9c-7.7,0-14,6.3-14,14s6.3,14,14,14c7.7,0,14-6.3,14-14S179,85.9,171.3,85.9z M171.3,111.6
				c-6.5,0-11.7-5.2-11.7-11.7c0-6.5,5.2-11.7,11.7-11.7c6.5,0,11.7,5.2,11.7,11.7C183,106.4,177.8,111.6,171.3,111.6z"/>
			<path class="st2" d="M182.4,97c-7.7,0-14,6.3-14,14c0,7.7,6.3,14,14,14s14-6.3,14-14C196.3,103.2,190.1,97,182.4,97z
				 M182.4,122.7c-6.5,0-11.7-5.2-11.7-11.7c0-6.5,5.2-11.7,11.7-11.7c6.5,0,11.7,5.2,11.7,11.7
				C194.1,117.4,188.8,122.7,182.4,122.7z"/>
		</g>
		<path class="st3" d="M-71.1,94.6l-4.2-1.1c-1.9-0.5-2.6-2.9-1.1-4.3l3.1-3c1.9-1.8,0.1-5-2.5-4.3l-4.2,1.2
			c-1.9,0.5-3.7-1.2-3.1-3.1l1.2-4.2c0.7-2.5-2.4-4.4-4.3-2.5l-3,3.1c-1.4,1.4-3.8,0.8-4.3-1.1l-1.1-4.2c-0.6-2.6-4.3-2.6-4.9,0
			l-1.1,4.2c-0.5,1.9-2.9,2.6-4.3,1.1l-3-3.1c-1.8-1.9-5-0.1-4.3,2.5l1.2,4.2c0.5,1.9-1.2,3.7-3.1,3.1l-4.2-1.2
			c-2.5-0.7-4.4,2.4-2.5,4.3l3.1,3c1.4,1.4,0.8,3.8-1.1,4.3l-4.2,1.1c-2.6,0.6-2.6,4.3,0,4.9l4.2,1.1c1.9,0.5,2.6,2.9,1.1,4.3
			l-3.1,3c-1.9,1.8-0.1,5,2.5,4.3l4.2-1.2c1.9-0.5,3.7,1.2,3.1,3.1l-1.2,4.2c-0.7,2.5,2.4,4.4,4.3,2.5l3-3.1
			c1.4-1.4,3.8-0.8,4.3,1.1l1.1,4.2c0.6,2.6,4.3,2.6,4.9,0l1.1-4.2c0.5-1.9,2.9-2.6,4.3-1.1l3,3.1c1.8,1.9,5,0.1,4.3-2.5l-1.2-4.2
			c-0.5-1.9,1.2-3.7,3.1-3.1l4.2,1.2c2.5,0.7,4.4-2.4,2.5-4.3l-3.1-3c-1.4-1.4-0.8-3.8,1.1-4.3l4.2-1.1
			C-68.6,98.8-68.6,95.2-71.1,94.6z M-81.6,97.5l-16,16l-16-16l16-16L-81.6,97.5z"/>
		<path class="st3" d="M274.4,135.5l-2.5-0.6c-1.1-0.3-1.5-1.7-0.7-2.5l1.8-1.8c1.1-1.1,0-2.9-1.4-2.5l-2.4,0.7
			c-1.1,0.3-2.1-0.7-1.8-1.8l0.7-2.4c0.4-1.5-1.4-2.5-2.5-1.4l-1.8,1.8c-0.8,0.8-2.2,0.5-2.5-0.7l-0.6-2.5c-0.4-1.5-2.5-1.5-2.9,0
			l-0.6,2.5c-0.3,1.1-1.7,1.5-2.5,0.7l-1.8-1.8c-1.1-1.1-2.9,0-2.5,1.4l0.7,2.4c0.3,1.1-0.7,2.1-1.8,1.8l-2.4-0.7
			c-1.5-0.4-2.5,1.4-1.4,2.5l1.8,1.8c0.8,0.8,0.5,2.2-0.7,2.5l-2.5,0.6c-1.5,0.4-1.5,2.5,0,2.9l2.5,0.6c1.1,0.3,1.5,1.7,0.7,2.5
			l-1.8,1.8c-1.1,1.1,0,2.9,1.4,2.5l2.4-0.7c1.1-0.3,2.1,0.7,1.8,1.8l-0.7,2.4c-0.4,1.5,1.4,2.5,2.5,1.4l1.8-1.8
			c0.8-0.8,2.2-0.5,2.5,0.7l0.6,2.5c0.4,1.5,2.5,1.5,2.9,0l0.6-2.5c0.3-1.1,1.7-1.5,2.5-0.7l1.8,1.8c1.1,1.1,2.9,0,2.5-1.4l-0.7-2.4
			c-0.3-1.1,0.7-2.1,1.8-1.8l2.4,0.7c1.5,0.4,2.5-1.4,1.4-2.5l-1.8-1.8c-0.8-0.8-0.5-2.2,0.7-2.5l2.5-0.6
			C275.9,138,275.9,135.9,274.4,135.5z"/>
		<g>
			<defs>
				<circle id="SVGID_00000006695204280719728830000007034875378902440597_" cx="-53.4" cy="177.9" r="30.2"/>
			</defs>
			<clipPath id="SVGID_00000054968977727617847230000015576867602256810128_">
				<use xlink:href="#SVGID_00000006695204280719728830000007034875378902440597_"  style="overflow:visible;"/>
			</clipPath>
			<g style="clip-path:url(#SVGID_00000054968977727617847230000015576867602256810128_);">
				<line class="st13" x1="-92.9" y1="147.7" x2="-8.3" y2="147.7"/>
				<line class="st13" x1="-92.9" y1="150.7" x2="-8.3" y2="150.7"/>
				<line class="st13" x1="-92.9" y1="153.6" x2="-8.3" y2="153.6"/>
				<line class="st13" x1="-92.9" y1="156.6" x2="-8.3" y2="156.6"/>
				<line class="st13" x1="-92.9" y1="159.5" x2="-8.3" y2="159.5"/>
				<line class="st13" x1="-92.9" y1="162.5" x2="-8.3" y2="162.5"/>
				<line class="st13" x1="-92.9" y1="165.4" x2="-8.3" y2="165.4"/>
				<line class="st13" x1="-92.9" y1="168.4" x2="-8.3" y2="168.4"/>
				<line class="st13" x1="-92.9" y1="171.3" x2="-8.3" y2="171.3"/>
				<line class="st13" x1="-92.9" y1="174.3" x2="-8.3" y2="174.3"/>
				<line class="st13" x1="-92.9" y1="177.2" x2="-8.3" y2="177.2"/>
				<line class="st13" x1="-92.9" y1="180.2" x2="-8.3" y2="180.2"/>
				<line class="st13" x1="-92.9" y1="183.2" x2="-8.3" y2="183.2"/>
				<line class="st13" x1="-92.9" y1="186.1" x2="-8.3" y2="186.1"/>
				<line class="st13" x1="-92.9" y1="189.1" x2="-8.3" y2="189.1"/>
				<line class="st13" x1="-92.9" y1="192" x2="-8.3" y2="192"/>
				<line class="st13" x1="-92.9" y1="195" x2="-8.3" y2="195"/>
				<line class="st13" x1="-92.9" y1="197.9" x2="-8.3" y2="197.9"/>
				<line class="st13" x1="-92.9" y1="200.9" x2="-8.3" y2="200.9"/>
				<line class="st13" x1="-92.9" y1="203.8" x2="-8.3" y2="203.8"/>
				<line class="st13" x1="-92.9" y1="206.8" x2="-8.3" y2="206.8"/>
				<line class="st13" x1="-92.9" y1="209.7" x2="-8.3" y2="209.7"/>
				<line class="st13" x1="-92.9" y1="212.7" x2="-8.3" y2="212.7"/>
			</g>
		</g>
		<g>
			<defs>
				
					<ellipse id="SVGID_00000150813055429211854020000004744218371173302933_" transform="matrix(0.7071 -0.7071 0.7071 0.7071 36.593 129.3186)" cx="174.4" cy="20.5" rx="44.6" ry="44.6"/>
			</defs>
			<clipPath id="SVGID_00000013165046370682410730000011520388494782894774_">
				<use xlink:href="#SVGID_00000150813055429211854020000004744218371173302933_"  style="overflow:visible;"/>
			</clipPath>
			<g style="clip-path:url(#SVGID_00000013165046370682410730000011520388494782894774_);">
				<line class="st15" x1="116.2" y1="-24.1" x2="241" y2="-24.1"/>
				<line class="st15" x1="116.2" y1="-19.7" x2="241" y2="-19.7"/>
				<line class="st15" x1="116.2" y1="-15.4" x2="241" y2="-15.4"/>
				<line class="st15" x1="116.2" y1="-11" x2="241" y2="-11"/>
				<line class="st15" x1="116.2" y1="-6.6" x2="241" y2="-6.6"/>
				<line class="st15" x1="116.2" y1="-2.3" x2="241" y2="-2.3"/>
				<line class="st15" x1="116.2" y1="2.1" x2="241" y2="2.1"/>
				<line class="st15" x1="116.2" y1="6.4" x2="241" y2="6.4"/>
				<line class="st15" x1="116.2" y1="10.8" x2="241" y2="10.8"/>
				<line class="st15" x1="116.2" y1="15.2" x2="241" y2="15.2"/>
				<line class="st15" x1="116.2" y1="19.5" x2="241" y2="19.5"/>
				<line class="st15" x1="116.2" y1="23.9" x2="241" y2="23.9"/>
				<line class="st15" x1="116.2" y1="28.2" x2="241" y2="28.2"/>
				<line class="st15" x1="116.2" y1="32.6" x2="241" y2="32.6"/>
				<line class="st15" x1="116.2" y1="37" x2="241" y2="37"/>
				<line class="st15" x1="116.2" y1="41.3" x2="241" y2="41.3"/>
				<line class="st15" x1="116.2" y1="45.7" x2="241" y2="45.7"/>
				<line class="st15" x1="116.2" y1="50.1" x2="241" y2="50.1"/>
				<line class="st15" x1="116.2" y1="54.4" x2="241" y2="54.4"/>
				<line class="st15" x1="116.2" y1="58.8" x2="241" y2="58.8"/>
				<line class="st15" x1="116.2" y1="63.1" x2="241" y2="63.1"/>
				<line class="st15" x1="116.2" y1="67.5" x2="241" y2="67.5"/>
				<line class="st15" x1="116.2" y1="71.9" x2="241" y2="71.9"/>
			</g>
		</g>
		<g>
			<path class="st8" d="M4.9,309c0,1-0.8,1.8-1.8,1.8c-1,0-1.8-0.8-1.8-1.8c0-1,0.8-1.8,1.8-1.8C4.1,307.2,4.9,308,4.9,309z"/>
			<circle class="st8" cx="-12" cy="317.6" r="1.8"/>
			<path class="st8" d="M-24.3,334.8c0,1-0.8,1.8-1.8,1.8s-1.8-0.8-1.8-1.8c0-1,0.8-1.8,1.8-1.8S-24.3,333.8-24.3,334.8z"/>
			<path class="st8" d="M-28.8,357.6c0,1-0.8,1.8-1.8,1.8c-1,0-1.8-0.8-1.8-1.8c0-1,0.8-1.8,1.8-1.8
				C-29.6,355.8-28.8,356.6-28.8,357.6z"/>
			<path class="st8" d="M-26.1,378.3c0,1-0.8,1.8-1.8,1.8s-1.8-0.8-1.8-1.8c0-1,0.8-1.8,1.8-1.8S-26.1,377.3-26.1,378.3z"/>
			<path class="st8" d="M-13,398.3c0,1-0.8,1.8-1.8,1.8s-1.8-0.8-1.8-1.8c0-1,0.8-1.8,1.8-1.8S-13,397.4-13,398.3z"/>
			<path class="st8" d="M4.9,410.4c0,1-0.8,1.8-1.8,1.8c-1,0-1.8-0.8-1.8-1.8c0-1,0.8-1.8,1.8-1.8C4.1,408.6,4.9,409.4,4.9,410.4z"
				/>
			<path class="st8" d="M43.1,309c0,1,0.8,1.8,1.8,1.8c1,0,1.8-0.8,1.8-1.8c0-1-0.8-1.8-1.8-1.8C43.9,307.2,43.1,308,43.1,309z"/>
			<path class="st8" d="M58.3,317.6c0,1,0.8,1.8,1.8,1.8s1.8-0.8,1.8-1.8c0-1-0.8-1.8-1.8-1.8S58.3,316.6,58.3,317.6z"/>
			<circle class="st8" cx="74.1" cy="334.8" r="1.8"/>
			<path class="st8" d="M76.8,357.6c0,1,0.8,1.8,1.8,1.8c1,0,1.8-0.8,1.8-1.8c0-1-0.8-1.8-1.8-1.8C77.6,355.8,76.8,356.6,76.8,357.6
				z"/>
			<path class="st8" d="M74.1,378.3c0,1,0.8,1.8,1.8,1.8c1,0,1.8-0.8,1.8-1.8c0-1-0.8-1.8-1.8-1.8C74.9,376.5,74.1,377.3,74.1,378.3
				z"/>
			<path class="st8" d="M61,398.3c0,1,0.8,1.8,1.8,1.8s1.8-0.8,1.8-1.8c0-1-0.8-1.8-1.8-1.8S61,397.4,61,398.3z"/>
			<path class="st8" d="M43.1,410.4c0,1,0.8,1.8,1.8,1.8c1,0,1.8-0.8,1.8-1.8c0-1-0.8-1.8-1.8-1.8C43.9,408.6,43.1,409.4,43.1,410.4
				z"/>
			<path class="st8" d="M25.6,415.3c0,1-0.8,1.8-1.8,1.8c-1,0-1.8-0.8-1.8-1.8c0-1,0.8-1.8,1.8-1.8
				C24.8,413.5,25.6,414.3,25.6,415.3z"/>
			<path class="st8" d="M25.6,305.5c0,1-0.8,1.8-1.8,1.8c-1,0-1.8-0.8-1.8-1.8c0-1,0.8-1.8,1.8-1.8
				C24.8,303.7,25.6,304.5,25.6,305.5z"/>
		</g>
		<g>
			
				<ellipse transform="matrix(0.7071 -0.7071 0.7071 0.7071 -48.1096 -55.7777)" class="st4" cx="-91.4" cy="30.2" rx="22.7" ry="22.7"/>
			<path class="st9" d="M-91.4,0.9c-15.7,0-28.4,12.7-28.4,28.4c0,15.7,12.7,28.4,28.4,28.4S-63,45-63,29.3
				C-63,13.6-75.7,0.9-91.4,0.9z M-91.7,51.3l-20.7-20.7l20.7-20.7L-71,30.6L-91.7,51.3z"/>
		</g>
		<g>
			
				<ellipse transform="matrix(0.8309 -0.5565 0.5565 0.8309 -107.4173 83.5986)" class="st4" cx="83.8" cy="218.5" rx="11.2" ry="11.2"/>
			<path class="st9" d="M88.3,204.7c-7.4-2.4-15.3,1.6-17.7,9c-2.4,7.4,1.6,15.3,9,17.7c7.4,2.4,15.3-1.6,17.7-9
				C99.7,215.1,95.7,207.2,88.3,204.7z M80.4,228.4l-6.6-12.9l12.9-6.6l6.6,12.9L80.4,228.4z"/>
		</g>
		<g>
			<rect x="47.9" y="44.8" class="st4" width="3.5" height="3.5"/>
			<rect x="47.9" y="34.5" class="st4" width="3.5" height="3.5"/>
			<rect x="47.9" y="24.2" class="st4" width="3.5" height="3.5"/>
			<rect x="47.9" y="13.9" class="st4" width="3.5" height="3.5"/>
			<rect x="47.9" y="3.6" class="st4" width="3.5" height="3.5"/>
			
				<rect x="58.2" y="-6.7" transform="matrix(-1.836970e-16 1 -1 -1.836970e-16 55.0081 -64.8569)" class="st4" width="3.5" height="3.5"/>
			
				<rect x="68.5" y="-6.7" transform="matrix(-1.836970e-16 1 -1 -1.836970e-16 65.2897 -75.1385)" class="st4" width="3.5" height="3.5"/>
			
				<rect x="78.8" y="-6.7" transform="matrix(-1.836970e-16 1 -1 -1.836970e-16 75.5712 -85.42)" class="st4" width="3.5" height="3.5"/>
			
				<rect x="89" y="-6.7" transform="matrix(-1.836970e-16 1 -1 -1.836970e-16 85.8528 -95.7016)" class="st4" width="3.5" height="3.5"/>
			
				<rect x="58.2" y="45" transform="matrix(-1.836970e-16 1 -1 -1.836970e-16 106.6915 -13.1735)" class="st4" width="3.5" height="3.5"/>
			
				<rect x="68.5" y="45" transform="matrix(-1.836970e-16 1 -1 -1.836970e-16 116.9731 -23.4551)" class="st4" width="3.5" height="3.5"/>
			
				<rect x="78.8" y="45" transform="matrix(-1.836970e-16 1 -1 -1.836970e-16 127.2546 -33.7366)" class="st4" width="3.5" height="3.5"/>
			
				<rect x="89" y="45" transform="matrix(-1.836970e-16 1 -1 -1.836970e-16 137.5362 -44.0182)" class="st4" width="3.5" height="3.5"/>
			<rect x="47.9" y="-6.7" class="st4" width="3.5" height="3.5"/>
			<rect x="99.4" y="44.8" class="st4" width="3.5" height="3.5"/>
			<rect x="99.4" y="34.5" class="st4" width="3.5" height="3.5"/>
			<rect x="99.4" y="24.2" class="st4" width="3.5" height="3.5"/>
			<rect x="99.4" y="13.9" class="st4" width="3.5" height="3.5"/>
			<rect x="99.4" y="3.6" class="st4" width="3.5" height="3.5"/>
			<rect x="99.4" y="-6.7" class="st4" width="3.5" height="3.5"/>
		</g>
		<g>
			<polygon class="st5" points="160.8,191.3 163.1,191.3 165.4,191.3 165.4,193.6 165.4,196 163.1,195.9 160.8,196 160.8,193.6 			
				"/>
			<polygon class="st5" points="165.3,195.9 167.7,195.9 170,195.9 170,198.2 170,200.5 167.7,200.5 165.3,200.5 165.3,198.2 			"/>
			<polygon class="st5" points="169.9,200.5 172.3,200.5 174.6,200.5 174.6,202.8 174.6,205.1 172.3,205.1 169.9,205.1 169.9,202.8 
							"/>
			<polygon class="st5" points="174.5,205.1 176.8,205.1 179.2,205.1 179.2,207.4 179.2,209.7 176.8,209.7 174.5,209.7 174.5,207.4 
							"/>
			<polygon class="st5" points="179.1,209.6 181.4,209.6 183.8,209.6 183.8,212 183.8,214.3 181.4,214.3 179.1,214.3 179.1,212 			
				"/>
			<polygon class="st5" points="183.7,214.2 186,214.2 188.4,214.2 188.3,216.6 188.4,218.9 186,218.9 183.7,218.9 183.7,216.6 			
				"/>
		</g>
		<g>
			<polygon class="st5" points="-53.4,58.4 -50.2,61.7 -46.8,65 -50.2,68.3 -53.4,71.6 -56.7,68.3 -60,65 -56.7,61.7 			"/>
			<polygon class="st5" points="-53.4,71.4 -50.2,74.7 -46.8,78 -50.2,81.3 -53.4,84.6 -56.7,81.3 -60,78 -56.7,74.7 			"/>
			<polygon class="st5" points="-53.4,84.4 -50.2,87.7 -46.8,91 -50.2,94.3 -53.4,97.6 -56.7,94.3 -60,91 -56.7,87.7 			"/>
			<polygon class="st5" points="-53.4,97.4 -50.2,100.7 -46.8,104 -50.2,107.2 -53.4,110.6 -56.7,107.2 -60,104 -56.7,100.7 			"/>
			<polygon class="st5" points="-53.4,110.3 -50.2,113.6 -46.8,116.9 -50.2,120.2 -53.4,123.5 -56.7,120.2 -60,116.9 -56.7,113.6 
							"/>
			<polygon class="st5" points="-53.4,123.3 -50.2,126.6 -46.8,129.9 -50.2,133.2 -53.4,136.5 -56.7,133.2 -60,129.9 -56.7,126.6 
							"/>
		</g>
		<g>
			<defs>
				<polygon id="SVGID_00000003082456275380141720000000541709184695728017_" points="31.6,79.5 -11.1,79.5 -32.4,116.5 
					-11.1,153.5 31.6,153.5 53,116.5 				"/>
			</defs>
			<clipPath id="SVGID_00000166673941825055994990000011829545130718880388_">
				<use xlink:href="#SVGID_00000003082456275380141720000000541709184695728017_"  style="overflow:visible;"/>
			</clipPath>
			<g style="clip-path:url(#SVGID_00000166673941825055994990000011829545130718880388_);">
				<g>
					<path class="st9" d="M21.7,222.1l-4.2-4c-2.2-2.1-2.2-5.5,0-7.6c0,0,0.1-0.1,0.1-0.1c2.2-2.1,2.2-5.5,0-7.6
						c0,0-0.1-0.1-0.1-0.1c-2.2-2.1-2.2-5.5,0-7.6c0,0,0.1-0.1,0.1-0.1c2.2-2.1,2.2-5.5,0-7.6c0,0-0.1-0.1-0.1-0.1
						c-2.2-2.1-2.2-5.5,0-7.6c0,0,0.1-0.1,0.1-0.1c2.2-2.1,2.2-5.5,0-7.6c0,0-0.1-0.1-0.1-0.1c-2.2-2.1-2.2-5.5,0-7.6
						c0,0,0.1-0.1,0.1-0.1c2.2-2.1,2.2-5.5,0-7.6c0,0-0.1-0.1-0.1-0.1c-2.2-2.1-2.2-5.5,0-7.6c0,0,0.1-0.1,0.1-0.1
						c2.2-2.1,2.2-5.5,0-7.6c0,0-0.1-0.1-0.1-0.1c-2.2-2.1-2.2-5.5,0-7.6c0,0,0.1-0.1,0.1-0.1c2.2-2.1,2.2-5.5,0-7.6l-0.1-0.1
						c-2.2-2.1-2.2-5.5,0-7.6c0,0,0.1-0.1,0.1-0.1c2.2-2.1,2.2-5.5,0-7.6c0,0-0.1-0.1-0.1-0.1c-2.2-2.1-2.2-5.5,0-7.6
						c0,0,0.1-0.1,0.1-0.1c2.2-2.1,2.2-5.5,0-7.6c0,0-0.1-0.1-0.1-0.1c-2.2-2.1-2.2-5.5,0-7.6c0,0,0.1-0.1,0.1-0.1
						c2.2-2.1,2.2-5.5,0-7.6c0,0-0.1-0.1-0.1-0.1c-2.2-2.1-2.2-5.5,0-7.6c0,0,0.1-0.1,0.1-0.1c2.2-2.1,2.2-5.5,0-7.6
						c0,0-0.1-0.1-0.1-0.1c-2.2-2.1-2.2-5.5,0-7.6c0,0,0.1-0.1,0.1-0.1c2.2-2.1,2.2-5.5,0-7.6c0,0-0.1-0.1-0.1-0.1
						c-2.2-2.1-2.2-5.5,0-7.6c0,0,0.1-0.1,0.1-0.1c2.2-2.1,2.2-5.5,0-7.6l-0.1-0.1c-2.2-2.1-2.2-5.5,0-7.6c0,0,0.1-0.1,0.1-0.1
						c2.2-2.1,2.2-5.5,0-7.6c0,0-0.1-0.1-0.1-0.1c-2.2-2.1-2.2-5.5,0-7.6c2.1-2,4.2-4,4.2-4l4.1,0c0,0-2.1,2-4.2,4
						c-2.2,2.1-2.2,5.5,0,7.6c0,0,0.1,0.1,0.1,0.1c2.2,2.1,2.2,5.5,0,7.6c0,0-0.1,0.1-0.1,0.1c-2.2,2.1-2.2,5.5,0,7.6l0.1,0.1
						c2.2,2.1,2.2,5.5,0,7.6c0,0-0.1,0.1-0.1,0.1c-2.2,2.1-2.2,5.5,0,7.6c0,0,0.1,0.1,0.1,0.1c2.2,2.1,2.2,5.5,0,7.6
						c0,0-0.1,0.1-0.1,0.1c-2.2,2.1-2.2,5.5,0,7.6c0,0,0.1,0.1,0.1,0.1c2.2,2.1,2.2,5.5,0,7.6c0,0-0.1,0.1-0.1,0.1
						c-2.2,2.1-2.2,5.5,0,7.6c0,0,0.1,0.1,0.1,0.1c2.2,2.1,2.2,5.5,0,7.6c0,0-0.1,0.1-0.1,0.1c-2.2,2.1-2.2,5.5,0,7.6
						c0,0,0.1,0.1,0.1,0.1c2.2,2.1,2.2,5.5,0,7.6c0,0-0.1,0.1-0.1,0.1c-2.2,2.1-2.2,5.5,0,7.6c0,0,0.1,0.1,0.1,0.1
						c2.2,2.1,2.2,5.5,0,7.6c0,0-0.1,0.1-0.1,0.1c-2.2,2.1-2.2,5.5,0,7.6l0.1,0.1c2.2,2.1,2.2,5.5,0,7.6c0,0-0.1,0.1-0.1,0.1
						c-2.2,2.1-2.2,5.5,0,7.6c0,0,0.1,0.1,0.1,0.1c2.2,2.1,2.2,5.5,0,7.6c0,0-0.1,0.1-0.1,0.1c-2.2,2.1-2.2,5.5,0,7.6
						c0,0,0.1,0.1,0.1,0.1c2.2,2.1,2.2,5.5,0,7.6c0,0-0.1,0.1-0.1,0.1c-2.2,2.1-2.2,5.5,0,7.6c0,0,0.1,0.1,0.1,0.1
						c2.2,2.1,2.2,5.5,0,7.6c0,0-0.1,0.1-0.1,0.1c-2.2,2.1-2.2,5.5,0,7.6c0,0,0.1,0.1,0.1,0.1c2.2,2.1,2.2,5.5,0,7.6
						c0,0-0.1,0.1-0.1,0.1c-2.2,2.1-2.2,5.5,0,7.6c0,0,0.1,0.1,0.1,0.1c2.2,2.1,2.2,5.5,0,7.6c0,0-0.1,0.1-0.1,0.1
						c-2.2,2.1-2.2,5.5,0,7.6l4.2,4"/>
					<path class="st9" d="M17.6,222.2l-4.2-4c-2.2-2.1-2.2-5.5,0-7.6c0,0,0.1-0.1,0.1-0.1c2.2-2.1,2.2-5.5,0-7.6
						c0,0-0.1-0.1-0.1-0.1c-2.2-2.1-2.2-5.5,0-7.6c0,0,0.1-0.1,0.1-0.1c2.2-2.1,2.2-5.5,0-7.6c0,0-0.1-0.1-0.1-0.1
						c-2.2-2.1-2.2-5.5,0-7.6c0,0,0.1-0.1,0.1-0.1c2.2-2.1,2.2-5.5,0-7.6c0,0-0.1-0.1-0.1-0.1c-2.2-2.1-2.2-5.5,0-7.6
						c0,0,0.1-0.1,0.1-0.1c2.2-2.1,2.2-5.5,0-7.6c0,0-0.1-0.1-0.1-0.1c-2.2-2.1-2.2-5.5,0-7.6c0,0,0.1-0.1,0.1-0.1
						c2.2-2.1,2.2-5.5,0-7.6c0,0-0.1-0.1-0.1-0.1c-2.2-2.1-2.2-5.5,0-7.6c0,0,0.1-0.1,0.1-0.1c2.2-2.1,2.2-5.5,0-7.6l-0.1-0.1
						c-2.2-2.1-2.2-5.5,0-7.6c0,0,0.1-0.1,0.1-0.1c2.2-2.1,2.2-5.5,0-7.6c0,0-0.1-0.1-0.1-0.1c-2.2-2.1-2.2-5.5,0-7.6
						c0,0,0.1-0.1,0.1-0.1c2.2-2.1,2.2-5.5,0-7.6c0,0-0.1-0.1-0.1-0.1c-2.2-2.1-2.2-5.5,0-7.6c0,0,0.1-0.1,0.1-0.1
						c2.2-2.1,2.2-5.5,0-7.6c0,0-0.1-0.1-0.1-0.1c-2.2-2.1-2.2-5.5,0-7.6c0,0,0.1-0.1,0.1-0.1c2.2-2.1,2.2-5.5,0-7.6
						c0,0-0.1-0.1-0.1-0.1c-2.2-2.1-2.2-5.5,0-7.6c0,0,0.1-0.1,0.1-0.1c2.2-2.1,2.2-5.5,0-7.6c0,0-0.1-0.1-0.1-0.1
						c-2.2-2.1-2.2-5.5,0-7.6c0,0,0.1-0.1,0.1-0.1c2.2-2.1,2.2-5.5,0-7.6l-0.1-0.1c-2.2-2.1-2.2-5.5,0-7.6c0,0,0.1-0.1,0.1-0.1
						c2.2-2.1,2.2-5.5,0-7.6c0,0-0.1-0.1-0.1-0.1c-2.2-2.1-2.2-5.5,0-7.6c2.1-2,4.2-4,4.2-4l-4.1,0c0,0-2.1,2-4.2,4
						c-2.2,2.1-2.2,5.5,0,7.6c0,0,0.1,0.1,0.1,0.1c2.2,2.1,2.2,5.5,0,7.6c0,0-0.1,0.1-0.1,0.1c-2.2,2.1-2.2,5.5,0,7.6l0.1,0.1
						c2.2,2.1,2.2,5.5,0,7.6c0,0-0.1,0.1-0.1,0.1c-2.2,2.1-2.2,5.5,0,7.6c0,0,0.1,0.1,0.1,0.1c2.2,2.1,2.2,5.5,0,7.6
						c0,0-0.1,0.1-0.1,0.1c-2.2,2.1-2.2,5.5,0,7.6c0,0,0.1,0.1,0.1,0.1c2.2,2.1,2.2,5.5,0,7.6c0,0-0.1,0.1-0.1,0.1
						c-2.2,2.1-2.2,5.5,0,7.6c0,0,0.1,0.1,0.1,0.1c2.2,2.1,2.2,5.5,0,7.6c0,0-0.1,0.1-0.1,0.1c-2.2,2.1-2.2,5.5,0,7.6
						c0,0,0.1,0.1,0.1,0.1c2.2,2.1,2.2,5.5,0,7.6c0,0-0.1,0.1-0.1,0.1c-2.2,2.1-2.2,5.5,0,7.6c0,0,0.1,0.1,0.1,0.1
						c2.2,2.1,2.2,5.5,0,7.6c0,0-0.1,0.1-0.1,0.1c-2.2,2.1-2.2,5.5,0,7.6l0.1,0.1c2.2,2.1,2.2,5.5,0,7.6c0,0-0.1,0.1-0.1,0.1
						c-2.2,2.1-2.2,5.5,0,7.6c0,0,0.1,0.1,0.1,0.1c2.2,2.1,2.2,5.5,0,7.6c0,0-0.1,0.1-0.1,0.1c-2.2,2.1-2.2,5.5,0,7.6
						c0,0,0.1,0.1,0.1,0.1c2.2,2.1,2.2,5.5,0,7.6c0,0-0.1,0.1-0.1,0.1c-2.2,2.1-2.2,5.5,0,7.6c0,0,0.1,0.1,0.1,0.1
						c2.2,2.1,2.2,5.5,0,7.6c0,0-0.1,0.1-0.1,0.1c-2.2,2.1-2.2,5.5,0,7.6c0,0,0.1,0.1,0.1,0.1c2.2,2.1,2.2,5.5,0,7.6
						c0,0-0.1,0.1-0.1,0.1c-2.2,2.1-2.2,5.5,0,7.6c0,0,0.1,0.1,0.1,0.1c2.2,2.1,2.2,5.5,0,7.6c0,0-0.1,0.1-0.1,0.1
						c-2.2,2.1-2.2,5.5,0,7.6l4.2,4"/>
					<path class="st9" d="M9.3,222.2l-4.2-4c-2.2-2.1-2.2-5.5,0-7.6c0,0,0.1-0.1,0.1-0.1c2.2-2.1,2.2-5.5,0-7.6c0,0-0.1-0.1-0.1-0.1
						c-2.2-2.1-2.2-5.5,0-7.6c0,0,0.1-0.1,0.1-0.1c2.2-2.1,2.2-5.5,0-7.6c0,0-0.1-0.1-0.1-0.1c-2.2-2.1-2.2-5.5,0-7.6
						c0,0,0.1-0.1,0.1-0.1c2.2-2.1,2.2-5.5,0-7.6c0,0-0.1-0.1-0.1-0.1c-2.2-2.1-2.2-5.5,0-7.6c0,0,0.1-0.1,0.1-0.1
						c2.2-2.1,2.2-5.5,0-7.6c0,0-0.1-0.1-0.1-0.1c-2.2-2.1-2.2-5.5,0-7.6c0,0,0.1-0.1,0.1-0.1c2.2-2.1,2.2-5.5,0-7.6
						c0,0-0.1-0.1-0.1-0.1c-2.2-2.1-2.2-5.5,0-7.6c0,0,0.1-0.1,0.1-0.1c2.2-2.1,2.2-5.5,0-7.6l-0.1-0.1c-2.2-2.1-2.2-5.5,0-7.6
						c0,0,0.1-0.1,0.1-0.1c2.2-2.1,2.2-5.5,0-7.6c0,0-0.1-0.1-0.1-0.1c-2.2-2.1-2.2-5.5,0-7.6c0,0,0.1-0.1,0.1-0.1
						c2.2-2.1,2.2-5.5,0-7.6c0,0-0.1-0.1-0.1-0.1C3,93.5,3,90.1,5.2,88c0,0,0.1-0.1,0.1-0.1c2.2-2.1,2.2-5.5,0-7.6
						c0,0-0.1-0.1-0.1-0.1c-2.2-2.1-2.2-5.5,0-7.6c0,0,0.1-0.1,0.1-0.1c2.2-2.1,2.2-5.5,0-7.6c0,0-0.1-0.1-0.1-0.1
						c-2.2-2.1-2.2-5.5,0-7.6c0,0,0.1-0.1,0.1-0.1c2.2-2.1,2.2-5.5,0-7.6c0,0-0.1-0.1-0.1-0.1C3,47.5,3,44.1,5.2,42
						c0,0,0.1-0.1,0.1-0.1c2.2-2.1,2.2-5.5,0-7.6l-0.1-0.1c-2.2-2.1-2.2-5.5,0-7.6c0,0,0.1-0.1,0.1-0.1c2.2-2.1,2.2-5.5,0-7.6
						c0,0-0.1-0.1-0.1-0.1c-2.2-2.1-2.2-5.5,0-7.6c2.1-2,4.2-4,4.2-4l-4.1,0c0,0-2.1,2-4.2,4c-2.2,2.1-2.2,5.5,0,7.6
						c0,0,0.1,0.1,0.1,0.1c2.2,2.1,2.2,5.5,0,7.6c0,0-0.1,0.1-0.1,0.1c-2.2,2.1-2.2,5.5,0,7.6l0.1,0.1c2.2,2.1,2.2,5.5,0,7.6
						C1.1,42,1.1,42,1,42c-2.2,2.1-2.2,5.5,0,7.6c0,0,0.1,0.1,0.1,0.1c2.2,2.1,2.2,5.5,0,7.6c0,0-0.1,0.1-0.1,0.1
						c-2.2,2.1-2.2,5.5,0,7.6c0,0,0.1,0.1,0.1,0.1c2.2,2.1,2.2,5.5,0,7.6c0,0-0.1,0.1-0.1,0.1c-2.2,2.1-2.2,5.5,0,7.6
						c0,0,0.1,0.1,0.1,0.1c2.2,2.1,2.2,5.5,0,7.6C1.1,88,1.1,88,1,88c-2.2,2.1-2.2,5.5,0,7.6c0,0,0.1,0.1,0.1,0.1
						c2.2,2.1,2.2,5.5,0,7.6c0,0-0.1,0.1-0.1,0.1c-2.2,2.1-2.2,5.5,0,7.6c0,0,0.1,0.1,0.1,0.1c2.2,2.1,2.2,5.5,0,7.6
						c0,0-0.1,0.1-0.1,0.1c-2.2,2.1-2.2,5.5,0,7.6l0.1,0.1c2.2,2.1,2.2,5.5,0,7.6c0,0-0.1,0.1-0.1,0.1c-2.2,2.1-2.2,5.5,0,7.6
						c0,0,0.1,0.1,0.1,0.1c2.2,2.1,2.2,5.5,0,7.6c0,0-0.1,0.1-0.1,0.1c-2.2,2.1-2.2,5.5,0,7.6c0,0,0.1,0.1,0.1,0.1
						c2.2,2.1,2.2,5.5,0,7.6c0,0-0.1,0.1-0.1,0.1c-2.2,2.1-2.2,5.5,0,7.6c0,0,0.1,0.1,0.1,0.1c2.2,2.1,2.2,5.5,0,7.6
						c0,0-0.1,0.1-0.1,0.1c-2.2,2.1-2.2,5.5,0,7.6c0,0,0.1,0.1,0.1,0.1c2.2,2.1,2.2,5.5,0,7.6c0,0-0.1,0.1-0.1,0.1
						c-2.2,2.1-2.2,5.5,0,7.6c0,0,0.1,0.1,0.1,0.1c2.2,2.1,2.2,5.5,0,7.6c0,0-0.1,0.1-0.1,0.1c-2.2,2.1-2.2,5.5,0,7.6l4.2,4"/>
					<path class="st9" d="M-3,222.4l-4.2-4c-2.2-2.1-2.2-5.5,0-7.6c0,0,0.1-0.1,0.1-0.1c2.2-2.1,2.2-5.5,0-7.6c0,0-0.1-0.1-0.1-0.1
						c-2.2-2.1-2.2-5.5,0-7.6c0,0,0.1-0.1,0.1-0.1c2.2-2.1,2.2-5.5,0-7.6c0,0-0.1-0.1-0.1-0.1c-2.2-2.1-2.2-5.5,0-7.6
						c0,0,0.1-0.1,0.1-0.1c2.2-2.1,2.2-5.5,0-7.6c0,0-0.1-0.1-0.1-0.1c-2.2-2.1-2.2-5.5,0-7.6c0,0,0.1-0.1,0.1-0.1
						c2.2-2.1,2.2-5.5,0-7.6c0,0-0.1-0.1-0.1-0.1c-2.2-2.1-2.2-5.5,0-7.6c0,0,0.1-0.1,0.1-0.1c2.2-2.1,2.2-5.5,0-7.6
						c0,0-0.1-0.1-0.1-0.1c-2.2-2.1-2.2-5.5,0-7.6c0,0,0.1-0.1,0.1-0.1c2.2-2.1,2.2-5.5,0-7.6l-0.1-0.1c-2.2-2.1-2.2-5.5,0-7.6
						c0,0,0.1-0.1,0.1-0.1c2.2-2.1,2.2-5.5,0-7.6c0,0-0.1-0.1-0.1-0.1c-2.2-2.1-2.2-5.5,0-7.6c0,0,0.1-0.1,0.1-0.1
						c2.2-2.1,2.2-5.5,0-7.6c0,0-0.1-0.1-0.1-0.1c-2.2-2.1-2.2-5.5,0-7.6c0,0,0.1-0.1,0.1-0.1c2.2-2.1,2.2-5.5,0-7.6
						c0,0-0.1-0.1-0.1-0.1c-2.2-2.1-2.2-5.5,0-7.6c0,0,0.1-0.1,0.1-0.1c2.2-2.1,2.2-5.5,0-7.6c0,0-0.1-0.1-0.1-0.1
						c-2.2-2.1-2.2-5.5,0-7.6c0,0,0.1-0.1,0.1-0.1c2.2-2.1,2.2-5.5,0-7.6c0,0-0.1-0.1-0.1-0.1c-2.2-2.1-2.2-5.5,0-7.6
						c0,0,0.1-0.1,0.1-0.1c2.2-2.1,2.2-5.5,0-7.6l-0.1-0.1c-2.2-2.1-2.2-5.5,0-7.6c0,0,0.1-0.1,0.1-0.1c2.2-2.1,2.2-5.5,0-7.6
						c0,0-0.1-0.1-0.1-0.1c-2.2-2.1-2.2-5.5,0-7.6c2.1-2,4.2-4,4.2-4l4.1,0c0,0-2.1,2-4.2,4c-2.2,2.1-2.2,5.5,0,7.6
						c0,0,0.1,0.1,0.1,0.1c2.2,2.1,2.2,5.5,0,7.6c0,0-0.1,0.1-0.1,0.1c-2.2,2.1-2.2,5.5,0,7.6l0.1,0.1c2.2,2.1,2.2,5.5,0,7.6
						c0,0-0.1,0.1-0.1,0.1c-2.2,2.1-2.2,5.5,0,7.6c0,0,0.1,0.1,0.1,0.1c2.2,2.1,2.2,5.5,0,7.6c0,0-0.1,0.1-0.1,0.1
						c-2.2,2.1-2.2,5.5,0,7.6c0,0,0.1,0.1,0.1,0.1c2.2,2.1,2.2,5.5,0,7.6c0,0-0.1,0.1-0.1,0.1c-2.2,2.1-2.2,5.5,0,7.6
						c0,0,0.1,0.1,0.1,0.1c2.2,2.1,2.2,5.5,0,7.6c0,0-0.1,0.1-0.1,0.1c-2.2,2.1-2.2,5.5,0,7.6c0,0,0.1,0.1,0.1,0.1
						c2.2,2.1,2.2,5.5,0,7.6c0,0-0.1,0.1-0.1,0.1c-2.2,2.1-2.2,5.5,0,7.6c0,0,0.1,0.1,0.1,0.1c2.2,2.1,2.2,5.5,0,7.6
						c0,0-0.1,0.1-0.1,0.1c-2.2,2.1-2.2,5.5,0,7.6l0.1,0.1c2.2,2.1,2.2,5.5,0,7.6c0,0-0.1,0.1-0.1,0.1c-2.2,2.1-2.2,5.5,0,7.6
						c0,0,0.1,0.1,0.1,0.1c2.2,2.1,2.2,5.5,0,7.6c0,0-0.1,0.1-0.1,0.1c-2.2,2.1-2.2,5.5,0,7.6c0,0,0.1,0.1,0.1,0.1
						c2.2,2.1,2.2,5.5,0,7.6c0,0-0.1,0.1-0.1,0.1c-2.2,2.1-2.2,5.5,0,7.6c0,0,0.1,0.1,0.1,0.1c2.2,2.1,2.2,5.5,0,7.6
						c0,0-0.1,0.1-0.1,0.1c-2.2,2.1-2.2,5.5,0,7.6c0,0,0.1,0.1,0.1,0.1c2.2,2.1,2.2,5.5,0,7.6c0,0-0.1,0.1-0.1,0.1
						c-2.2,2.1-2.2,5.5,0,7.6c0,0,0.1,0.1,0.1,0.1c2.2,2.1,2.2,5.5,0,7.6c0,0-0.1,0.1-0.1,0.1c-2.2,2.1-2.2,5.5,0,7.6l4.2,4"/>
					<path class="st9" d="M-7.2,222.4l-4.2-4c-2.2-2.1-2.2-5.5,0-7.6c0,0,0.1-0.1,0.1-0.1c2.2-2.1,2.2-5.5,0-7.6
						c0,0-0.1-0.1-0.1-0.1c-2.2-2.1-2.2-5.5,0-7.6c0,0,0.1-0.1,0.1-0.1c2.2-2.1,2.2-5.5,0-7.6c0,0-0.1-0.1-0.1-0.1
						c-2.2-2.1-2.2-5.5,0-7.6c0,0,0.1-0.1,0.1-0.1c2.2-2.1,2.2-5.5,0-7.6c0,0-0.1-0.1-0.1-0.1c-2.2-2.1-2.2-5.5,0-7.6
						c0,0,0.1-0.1,0.1-0.1c2.2-2.1,2.2-5.5,0-7.6c0,0-0.1-0.1-0.1-0.1c-2.2-2.1-2.2-5.5,0-7.6c0,0,0.1-0.1,0.1-0.1
						c2.2-2.1,2.2-5.5,0-7.6c0,0-0.1-0.1-0.1-0.1c-2.2-2.1-2.2-5.5,0-7.6c0,0,0.1-0.1,0.1-0.1c2.2-2.1,2.2-5.5,0-7.6l-0.1-0.1
						c-2.2-2.1-2.2-5.5,0-7.6c0,0,0.1-0.1,0.1-0.1c2.2-2.1,2.2-5.5,0-7.6c0,0-0.1-0.1-0.1-0.1c-2.2-2.1-2.2-5.5,0-7.6
						c0,0,0.1-0.1,0.1-0.1c2.2-2.1,2.2-5.5,0-7.6c0,0-0.1-0.1-0.1-0.1c-2.2-2.1-2.2-5.5,0-7.6c0,0,0.1-0.1,0.1-0.1
						c2.2-2.1,2.2-5.5,0-7.6c0,0-0.1-0.1-0.1-0.1c-2.2-2.1-2.2-5.5,0-7.6c0,0,0.1-0.1,0.1-0.1c2.2-2.1,2.2-5.5,0-7.6
						c0,0-0.1-0.1-0.1-0.1c-2.2-2.1-2.2-5.5,0-7.6c0,0,0.1-0.1,0.1-0.1c2.2-2.1,2.2-5.5,0-7.6c0,0-0.1-0.1-0.1-0.1
						c-2.2-2.1-2.2-5.5,0-7.6c0,0,0.1-0.1,0.1-0.1c2.2-2.1,2.2-5.5,0-7.6l-0.1-0.1c-2.2-2.1-2.2-5.5,0-7.6c0,0,0.1-0.1,0.1-0.1
						c2.2-2.1,2.2-5.5,0-7.6c0,0-0.1-0.1-0.1-0.1c-2.2-2.1-2.2-5.5,0-7.6c2.1-2,4.2-4,4.2-4l-4.1,0c0,0-2.1,2-4.2,4
						c-2.2,2.1-2.2,5.5,0,7.6c0,0,0.1,0.1,0.1,0.1c2.2,2.1,2.2,5.5,0,7.6c0,0-0.1,0.1-0.1,0.1c-2.2,2.1-2.2,5.5,0,7.6l0.1,0.1
						c2.2,2.1,2.2,5.5,0,7.6c0,0-0.1,0.1-0.1,0.1c-2.2,2.1-2.2,5.5,0,7.6c0,0,0.1,0.1,0.1,0.1c2.2,2.1,2.2,5.5,0,7.6
						c0,0-0.1,0.1-0.1,0.1c-2.2,2.1-2.2,5.5,0,7.6c0,0,0.1,0.1,0.1,0.1c2.2,2.1,2.2,5.5,0,7.6c0,0-0.1,0.1-0.1,0.1
						c-2.2,2.1-2.2,5.5,0,7.6c0,0,0.1,0.1,0.1,0.1c2.2,2.1,2.2,5.5,0,7.6c0,0-0.1,0.1-0.1,0.1c-2.2,2.1-2.2,5.5,0,7.6
						c0,0,0.1,0.1,0.1,0.1c2.2,2.1,2.2,5.5,0,7.6c0,0-0.1,0.1-0.1,0.1c-2.2,2.1-2.2,5.5,0,7.6c0,0,0.1,0.1,0.1,0.1
						c2.2,2.1,2.2,5.5,0,7.6c0,0-0.1,0.1-0.1,0.1c-2.2,2.1-2.2,5.5,0,7.6l0.1,0.1c2.2,2.1,2.2,5.5,0,7.6c0,0-0.1,0.1-0.1,0.1
						c-2.2,2.1-2.2,5.5,0,7.6c0,0,0.1,0.1,0.1,0.1c2.2,2.1,2.2,5.5,0,7.6c0,0-0.1,0.1-0.1,0.1c-2.2,2.1-2.2,5.5,0,7.6
						c0,0,0.1,0.1,0.1,0.1c2.2,2.1,2.2,5.5,0,7.6c0,0-0.1,0.1-0.1,0.1c-2.2,2.1-2.2,5.5,0,7.6c0,0,0.1,0.1,0.1,0.1
						c2.2,2.1,2.2,5.5,0,7.6c0,0-0.1,0.1-0.1,0.1c-2.2,2.1-2.2,5.5,0,7.6c0,0,0.1,0.1,0.1,0.1c2.2,2.1,2.2,5.5,0,7.6
						c0,0-0.1,0.1-0.1,0.1c-2.2,2.1-2.2,5.5,0,7.6c0,0,0.1,0.1,0.1,0.1c2.2,2.1,2.2,5.5,0,7.6c0,0-0.1,0.1-0.1,0.1
						c-2.2,2.1-2.2,5.5,0,7.6l4.2,4"/>
					<path class="st9" d="M-15.4,222.5l-4.2-4c-2.2-2.1-2.2-5.5,0-7.6c0,0,0.1-0.1,0.1-0.1c2.2-2.1,2.2-5.5,0-7.6
						c0,0-0.1-0.1-0.1-0.1c-2.2-2.1-2.2-5.5,0-7.6c0,0,0.1-0.1,0.1-0.1c2.2-2.1,2.2-5.5,0-7.6c0,0-0.1-0.1-0.1-0.1
						c-2.2-2.1-2.2-5.5,0-7.6c0,0,0.1-0.1,0.1-0.1c2.2-2.1,2.2-5.5,0-7.6c0,0-0.1-0.1-0.1-0.1c-2.2-2.1-2.2-5.5,0-7.6
						c0,0,0.1-0.1,0.1-0.1c2.2-2.1,2.2-5.5,0-7.6c0,0-0.1-0.1-0.1-0.1c-2.2-2.1-2.2-5.5,0-7.6c0,0,0.1-0.1,0.1-0.1
						c2.2-2.1,2.2-5.5,0-7.6c0,0-0.1-0.1-0.1-0.1c-2.2-2.1-2.2-5.5,0-7.6c0,0,0.1-0.1,0.1-0.1c2.2-2.1,2.2-5.5,0-7.6l-0.1-0.1
						c-2.2-2.1-2.2-5.5,0-7.6c0,0,0.1-0.1,0.1-0.1c2.2-2.1,2.2-5.5,0-7.6c0,0-0.1-0.1-0.1-0.1c-2.2-2.1-2.2-5.5,0-7.6
						c0,0,0.1-0.1,0.1-0.1c2.2-2.1,2.2-5.5,0-7.6c0,0-0.1-0.1-0.1-0.1c-2.2-2.1-2.2-5.5,0-7.6c0,0,0.1-0.1,0.1-0.1
						c2.2-2.1,2.2-5.5,0-7.6c0,0-0.1-0.1-0.1-0.1c-2.2-2.1-2.2-5.5,0-7.6c0,0,0.1-0.1,0.1-0.1c2.2-2.1,2.2-5.5,0-7.6
						c0,0-0.1-0.1-0.1-0.1c-2.2-2.1-2.2-5.5,0-7.6c0,0,0.1-0.1,0.1-0.1c2.2-2.1,2.2-5.5,0-7.6c0,0-0.1-0.1-0.1-0.1
						c-2.2-2.1-2.2-5.5,0-7.6c0,0,0.1-0.1,0.1-0.1c2.2-2.1,2.2-5.5,0-7.6l-0.1-0.1c-2.2-2.1-2.2-5.5,0-7.6c0,0,0.1-0.1,0.1-0.1
						c2.2-2.1,2.2-5.5,0-7.6c0,0-0.1-0.1-0.1-0.1c-2.2-2.1-2.2-5.5,0-7.6c2.1-2,4.2-4,4.2-4l-4.1,0c0,0-2.1,2-4.2,4
						c-2.2,2.1-2.2,5.5,0,7.6c0,0,0.1,0.1,0.1,0.1c2.2,2.1,2.2,5.5,0,7.6c0,0-0.1,0.1-0.1,0.1c-2.2,2.1-2.2,5.5,0,7.6l0.1,0.1
						c2.2,2.1,2.2,5.5,0,7.6c0,0-0.1,0.1-0.1,0.1c-2.2,2.1-2.2,5.5,0,7.6c0,0,0.1,0.1,0.1,0.1c2.2,2.1,2.2,5.5,0,7.6
						c0,0-0.1,0.1-0.1,0.1c-2.2,2.1-2.2,5.5,0,7.6c0,0,0.1,0.1,0.1,0.1c2.2,2.1,2.2,5.5,0,7.6c0,0-0.1,0.1-0.1,0.1
						c-2.2,2.1-2.2,5.5,0,7.6c0,0,0.1,0.1,0.1,0.1c2.2,2.1,2.2,5.5,0,7.6c0,0-0.1,0.1-0.1,0.1c-2.2,2.1-2.2,5.5,0,7.6
						c0,0,0.1,0.1,0.1,0.1c2.2,2.1,2.2,5.5,0,7.6c0,0-0.1,0.1-0.1,0.1c-2.2,2.1-2.2,5.5,0,7.6c0,0,0.1,0.1,0.1,0.1
						c2.2,2.1,2.2,5.5,0,7.6c0,0-0.1,0.1-0.1,0.1c-2.2,2.1-2.2,5.5,0,7.6l0.1,0.1c2.2,2.1,2.2,5.5,0,7.6c0,0-0.1,0.1-0.1,0.1
						c-2.2,2.1-2.2,5.5,0,7.6c0,0,0.1,0.1,0.1,0.1c2.2,2.1,2.2,5.5,0,7.6c0,0-0.1,0.1-0.1,0.1c-2.2,2.1-2.2,5.5,0,7.6
						c0,0,0.1,0.1,0.1,0.1c2.2,2.1,2.2,5.5,0,7.6c0,0-0.1,0.1-0.1,0.1c-2.2,2.1-2.2,5.5,0,7.6c0,0,0.1,0.1,0.1,0.1
						c2.2,2.1,2.2,5.5,0,7.6c0,0-0.1,0.1-0.1,0.1c-2.2,2.1-2.2,5.5,0,7.6c0,0,0.1,0.1,0.1,0.1c2.2,2.1,2.2,5.5,0,7.6
						c0,0-0.1,0.1-0.1,0.1c-2.2,2.1-2.2,5.5,0,7.6c0,0,0.1,0.1,0.1,0.1c2.2,2.1,2.2,5.5,0,7.6c0,0-0.1,0.1-0.1,0.1
						c-2.2,2.1-2.2,5.5,0,7.6l4.2,4"/>
					<path class="st9" d="M-28.1,223.1l-4.2-4c-2.2-2.1-2.2-5.5,0-7.6c0,0,0.1-0.1,0.1-0.1c2.2-2.1,2.2-5.5,0-7.6
						c0,0-0.1-0.1-0.1-0.1c-2.2-2.1-2.2-5.5,0-7.6c0,0,0.1-0.1,0.1-0.1c2.2-2.1,2.2-5.5,0-7.6c0,0-0.1-0.1-0.1-0.1
						c-2.2-2.1-2.2-5.5,0-7.6c0,0,0.1-0.1,0.1-0.1c2.2-2.1,2.2-5.5,0-7.6c0,0-0.1-0.1-0.1-0.1c-2.2-2.1-2.2-5.5,0-7.6
						c0,0,0.1-0.1,0.1-0.1c2.2-2.1,2.2-5.5,0-7.6c0,0-0.1-0.1-0.1-0.1c-2.2-2.1-2.2-5.5,0-7.6c0,0,0.1-0.1,0.1-0.1
						c2.2-2.1,2.2-5.5,0-7.6c0,0-0.1-0.1-0.1-0.1c-2.2-2.1-2.2-5.5,0-7.6c0,0,0.1-0.1,0.1-0.1c2.2-2.1,2.2-5.5,0-7.6l-0.1-0.1
						c-2.2-2.1-2.2-5.5,0-7.6c0,0,0.1-0.1,0.1-0.1c2.2-2.1,2.2-5.5,0-7.6c0,0-0.1-0.1-0.1-0.1c-2.2-2.1-2.2-5.5,0-7.6
						c0,0,0.1-0.1,0.1-0.1c2.2-2.1,2.2-5.5,0-7.6c0,0-0.1-0.1-0.1-0.1c-2.2-2.1-2.2-5.5,0-7.6c0,0,0.1-0.1,0.1-0.1
						c2.2-2.1,2.2-5.5,0-7.6c0,0-0.1-0.1-0.1-0.1c-2.2-2.1-2.2-5.5,0-7.6c0,0,0.1-0.1,0.1-0.1c2.2-2.1,2.2-5.5,0-7.6
						c0,0-0.1-0.1-0.1-0.1c-2.2-2.1-2.2-5.5,0-7.6c0,0,0.1-0.1,0.1-0.1c2.2-2.1,2.2-5.5,0-7.6c0,0-0.1-0.1-0.1-0.1
						c-2.2-2.1-2.2-5.5,0-7.6c0,0,0.1-0.1,0.1-0.1c2.2-2.1,2.2-5.5,0-7.6l-0.1-0.1c-2.2-2.1-2.2-5.5,0-7.6c0,0,0.1-0.1,0.1-0.1
						c2.2-2.1,2.2-5.5,0-7.6c0,0-0.1-0.1-0.1-0.1c-2.2-2.1-2.2-5.5,0-7.6c2.1-2,4.2-4,4.2-4l4.4-0.5c0,0-2.1,2-4.2,4
						c-2.2,2.1-2.2,5.5,0,7.6c0,0,0.1,0.1,0.1,0.1c2.2,2.1,2.2,5.5,0,7.6c0,0-0.1,0.1-0.1,0.1c-2.2,2.1-2.2,5.5,0,7.6l0.1,0.1
						c2.2,2.1,2.2,5.5,0,7.6c0,0-0.1,0.1-0.1,0.1c-2.2,2.1-2.2,5.5,0,7.6c0,0,0.1,0.1,0.1,0.1c2.2,2.1,2.2,5.5,0,7.6
						c0,0-0.1,0.1-0.1,0.1c-2.2,2.1-2.2,5.5,0,7.6c0,0,0.1,0.1,0.1,0.1c2.2,2.1,2.2,5.5,0,7.6c0,0-0.1,0.1-0.1,0.1
						c-2.2,2.1-2.2,5.5,0,7.6c0,0,0.1,0.1,0.1,0.1c2.2,2.1,2.2,5.5,0,7.6c0,0-0.1,0.1-0.1,0.1c-2.2,2.1-2.2,5.5,0,7.6
						c0,0,0.1,0.1,0.1,0.1c2.2,2.1,2.2,5.5,0,7.6c0,0-0.1,0.1-0.1,0.1c-2.2,2.1-2.2,5.5,0,7.6c0,0,0.1,0.1,0.1,0.1
						c2.2,2.1,2.2,5.5,0,7.6c0,0-0.1,0.1-0.1,0.1c-2.2,2.1-2.2,5.5,0,7.6l0.1,0.1c2.2,2.1,2.2,5.5,0,7.6c0,0-0.1,0.1-0.1,0.1
						c-2.2,2.1-2.2,5.5,0,7.6c0,0,0.1,0.1,0.1,0.1c2.2,2.1,2.2,5.5,0,7.6c0,0-0.1,0.1-0.1,0.1c-2.2,2.1-2.2,5.5,0,7.6
						c0,0,0.1,0.1,0.1,0.1c2.2,2.1,2.2,5.5,0,7.6c0,0-0.1,0.1-0.1,0.1c-2.2,2.1-2.2,5.5,0,7.6c0,0,0.1,0.1,0.1,0.1
						c2.2,2.1,2.2,5.5,0,7.6c0,0-0.1,0.1-0.1,0.1c-2.2,2.1-2.2,5.5,0,7.6c0,0,0.1,0.1,0.1,0.1c2.2,2.1,2.2,5.5,0,7.6
						c0,0-0.1,0.1-0.1,0.1c-2.2,2.1-2.2,5.5,0,7.6c0,0,0.1,0.1,0.1,0.1c2.2,2.1,2.2,5.5,0,7.6c0,0-0.1,0.1-0.1,0.1
						c-2.2,2.1-2.2,5.5,0,7.6l4.2,4"/>
				</g>
				<g>
					<path class="st9" d="M80.1,222.1l-4.2-4c-2.2-2.1-2.2-5.5,0-7.6c0,0,0.1-0.1,0.1-0.1c2.2-2.1,2.2-5.5,0-7.6
						c0,0-0.1-0.1-0.1-0.1c-2.2-2.1-2.2-5.5,0-7.6c0,0,0.1-0.1,0.1-0.1c2.2-2.1,2.2-5.5,0-7.6c0,0-0.1-0.1-0.1-0.1
						c-2.2-2.1-2.2-5.5,0-7.6c0,0,0.1-0.1,0.1-0.1c2.2-2.1,2.2-5.5,0-7.6c0,0-0.1-0.1-0.1-0.1c-2.2-2.1-2.2-5.5,0-7.6
						c0,0,0.1-0.1,0.1-0.1c2.2-2.1,2.2-5.5,0-7.6c0,0-0.1-0.1-0.1-0.1c-2.2-2.1-2.2-5.5,0-7.6c0,0,0.1-0.1,0.1-0.1
						c2.2-2.1,2.2-5.5,0-7.6c0,0-0.1-0.1-0.1-0.1c-2.2-2.1-2.2-5.5,0-7.6c0,0,0.1-0.1,0.1-0.1c2.2-2.1,2.2-5.5,0-7.6l-0.1-0.1
						c-2.2-2.1-2.2-5.5,0-7.6c0,0,0.1-0.1,0.1-0.1c2.2-2.1,2.2-5.5,0-7.6c0,0-0.1-0.1-0.1-0.1c-2.2-2.1-2.2-5.5,0-7.6
						c0,0,0.1-0.1,0.1-0.1c2.2-2.1,2.2-5.5,0-7.6c0,0-0.1-0.1-0.1-0.1c-2.2-2.1-2.2-5.5,0-7.6c0,0,0.1-0.1,0.1-0.1
						c2.2-2.1,2.2-5.5,0-7.6c0,0-0.1-0.1-0.1-0.1c-2.2-2.1-2.2-5.5,0-7.6c0,0,0.1-0.1,0.1-0.1c2.2-2.1,2.2-5.5,0-7.6
						c0,0-0.1-0.1-0.1-0.1c-2.2-2.1-2.2-5.5,0-7.6c0,0,0.1-0.1,0.1-0.1c2.2-2.1,2.2-5.5,0-7.6c0,0-0.1-0.1-0.1-0.1
						c-2.2-2.1-2.2-5.5,0-7.6c0,0,0.1-0.1,0.1-0.1c2.2-2.1,2.2-5.5,0-7.6l-0.1-0.1c-2.2-2.1-2.2-5.5,0-7.6c0,0,0.1-0.1,0.1-0.1
						c2.2-2.1,2.2-5.5,0-7.6c0,0-0.1-0.1-0.1-0.1c-2.2-2.1-2.2-5.5,0-7.6c2.1-2,4.2-4,4.2-4l4.1,0c0,0-2.1,2-4.2,4
						c-2.2,2.1-2.2,5.5,0,7.6c0,0,0.1,0.1,0.1,0.1c2.2,2.1,2.2,5.5,0,7.6c0,0-0.1,0.1-0.1,0.1c-2.2,2.1-2.2,5.5,0,7.6l0.1,0.1
						c2.2,2.1,2.2,5.5,0,7.6c0,0-0.1,0.1-0.1,0.1c-2.2,2.1-2.2,5.5,0,7.6c0,0,0.1,0.1,0.1,0.1c2.2,2.1,2.2,5.5,0,7.6
						c0,0-0.1,0.1-0.1,0.1c-2.2,2.1-2.2,5.5,0,7.6c0,0,0.1,0.1,0.1,0.1c2.2,2.1,2.2,5.5,0,7.6c0,0-0.1,0.1-0.1,0.1
						c-2.2,2.1-2.2,5.5,0,7.6c0,0,0.1,0.1,0.1,0.1c2.2,2.1,2.2,5.5,0,7.6c0,0-0.1,0.1-0.1,0.1c-2.2,2.1-2.2,5.5,0,7.6
						c0,0,0.1,0.1,0.1,0.1c2.2,2.1,2.2,5.5,0,7.6c0,0-0.1,0.1-0.1,0.1c-2.2,2.1-2.2,5.5,0,7.6c0,0,0.1,0.1,0.1,0.1
						c2.2,2.1,2.2,5.5,0,7.6c0,0-0.1,0.1-0.1,0.1c-2.2,2.1-2.2,5.5,0,7.6l0.1,0.1c2.2,2.1,2.2,5.5,0,7.6c0,0-0.1,0.1-0.1,0.1
						c-2.2,2.1-2.2,5.5,0,7.6c0,0,0.1,0.1,0.1,0.1c2.2,2.1,2.2,5.5,0,7.6c0,0-0.1,0.1-0.1,0.1c-2.2,2.1-2.2,5.5,0,7.6
						c0,0,0.1,0.1,0.1,0.1c2.2,2.1,2.2,5.5,0,7.6c0,0-0.1,0.1-0.1,0.1c-2.2,2.1-2.2,5.5,0,7.6c0,0,0.1,0.1,0.1,0.1
						c2.2,2.1,2.2,5.5,0,7.6c0,0-0.1,0.1-0.1,0.1c-2.2,2.1-2.2,5.5,0,7.6c0,0,0.1,0.1,0.1,0.1c2.2,2.1,2.2,5.5,0,7.6
						c0,0-0.1,0.1-0.1,0.1c-2.2,2.1-2.2,5.5,0,7.6c0,0,0.1,0.1,0.1,0.1c2.2,2.1,2.2,5.5,0,7.6c0,0-0.1,0.1-0.1,0.1
						c-2.2,2.1-2.2,5.5,0,7.6l4.2,4"/>
					<path class="st9" d="M75.9,222.2l-4.2-4c-2.2-2.1-2.2-5.5,0-7.6c0,0,0.1-0.1,0.1-0.1c2.2-2.1,2.2-5.5,0-7.6
						c0,0-0.1-0.1-0.1-0.1c-2.2-2.1-2.2-5.5,0-7.6c0,0,0.1-0.1,0.1-0.1c2.2-2.1,2.2-5.5,0-7.6c0,0-0.1-0.1-0.1-0.1
						c-2.2-2.1-2.2-5.5,0-7.6c0,0,0.1-0.1,0.1-0.1c2.2-2.1,2.2-5.5,0-7.6c0,0-0.1-0.1-0.1-0.1c-2.2-2.1-2.2-5.5,0-7.6
						c0,0,0.1-0.1,0.1-0.1c2.2-2.1,2.2-5.5,0-7.6c0,0-0.1-0.1-0.1-0.1c-2.2-2.1-2.2-5.5,0-7.6c0,0,0.1-0.1,0.1-0.1
						c2.2-2.1,2.2-5.5,0-7.6c0,0-0.1-0.1-0.1-0.1c-2.2-2.1-2.2-5.5,0-7.6c0,0,0.1-0.1,0.1-0.1c2.2-2.1,2.2-5.5,0-7.6l-0.1-0.1
						c-2.2-2.1-2.2-5.5,0-7.6c0,0,0.1-0.1,0.1-0.1c2.2-2.1,2.2-5.5,0-7.6c0,0-0.1-0.1-0.1-0.1c-2.2-2.1-2.2-5.5,0-7.6
						c0,0,0.1-0.1,0.1-0.1c2.2-2.1,2.2-5.5,0-7.6c0,0-0.1-0.1-0.1-0.1c-2.2-2.1-2.2-5.5,0-7.6c0,0,0.1-0.1,0.1-0.1
						c2.2-2.1,2.2-5.5,0-7.6c0,0-0.1-0.1-0.1-0.1c-2.2-2.1-2.2-5.5,0-7.6c0,0,0.1-0.1,0.1-0.1c2.2-2.1,2.2-5.5,0-7.6
						c0,0-0.1-0.1-0.1-0.1c-2.2-2.1-2.2-5.5,0-7.6c0,0,0.1-0.1,0.1-0.1c2.2-2.1,2.2-5.5,0-7.6c0,0-0.1-0.1-0.1-0.1
						c-2.2-2.1-2.2-5.5,0-7.6c0,0,0.1-0.1,0.1-0.1c2.2-2.1,2.2-5.5,0-7.6l-0.1-0.1c-2.2-2.1-2.2-5.5,0-7.6c0,0,0.1-0.1,0.1-0.1
						c2.2-2.1,2.2-5.5,0-7.6c0,0-0.1-0.1-0.1-0.1c-2.2-2.1-2.2-5.5,0-7.6c2.1-2,4.2-4,4.2-4l-4.1,0c0,0-2.1,2-4.2,4
						c-2.2,2.1-2.2,5.5,0,7.6c0,0,0.1,0.1,0.1,0.1c2.2,2.1,2.2,5.5,0,7.6c0,0-0.1,0.1-0.1,0.1c-2.2,2.1-2.2,5.5,0,7.6l0.1,0.1
						c2.2,2.1,2.2,5.5,0,7.6c0,0-0.1,0.1-0.1,0.1c-2.2,2.1-2.2,5.5,0,7.6c0,0,0.1,0.1,0.1,0.1c2.2,2.1,2.2,5.5,0,7.6
						c0,0-0.1,0.1-0.1,0.1c-2.2,2.1-2.2,5.5,0,7.6c0,0,0.1,0.1,0.1,0.1c2.2,2.1,2.2,5.5,0,7.6c0,0-0.1,0.1-0.1,0.1
						c-2.2,2.1-2.2,5.5,0,7.6c0,0,0.1,0.1,0.1,0.1c2.2,2.1,2.2,5.5,0,7.6c0,0-0.1,0.1-0.1,0.1c-2.2,2.1-2.2,5.5,0,7.6
						c0,0,0.1,0.1,0.1,0.1c2.2,2.1,2.2,5.5,0,7.6c0,0-0.1,0.1-0.1,0.1c-2.2,2.1-2.2,5.5,0,7.6c0,0,0.1,0.1,0.1,0.1
						c2.2,2.1,2.2,5.5,0,7.6c0,0-0.1,0.1-0.1,0.1c-2.2,2.1-2.2,5.5,0,7.6l0.1,0.1c2.2,2.1,2.2,5.5,0,7.6c0,0-0.1,0.1-0.1,0.1
						c-2.2,2.1-2.2,5.5,0,7.6c0,0,0.1,0.1,0.1,0.1c2.2,2.1,2.2,5.5,0,7.6c0,0-0.1,0.1-0.1,0.1c-2.2,2.1-2.2,5.5,0,7.6
						c0,0,0.1,0.1,0.1,0.1c2.2,2.1,2.2,5.5,0,7.6c0,0-0.1,0.1-0.1,0.1c-2.2,2.1-2.2,5.5,0,7.6c0,0,0.1,0.1,0.1,0.1
						c2.2,2.1,2.2,5.5,0,7.6c0,0-0.1,0.1-0.1,0.1c-2.2,2.1-2.2,5.5,0,7.6c0,0,0.1,0.1,0.1,0.1c2.2,2.1,2.2,5.5,0,7.6
						c0,0-0.1,0.1-0.1,0.1c-2.2,2.1-2.2,5.5,0,7.6c0,0,0.1,0.1,0.1,0.1c2.2,2.1,2.2,5.5,0,7.6c0,0-0.1,0.1-0.1,0.1
						c-2.2,2.1-2.2,5.5,0,7.6l4.2,4"/>
					<path class="st9" d="M67.7,222.2l-4.2-4c-2.2-2.1-2.2-5.5,0-7.6c0,0,0.1-0.1,0.1-0.1c2.2-2.1,2.2-5.5,0-7.6
						c0,0-0.1-0.1-0.1-0.1c-2.2-2.1-2.2-5.5,0-7.6c0,0,0.1-0.1,0.1-0.1c2.2-2.1,2.2-5.5,0-7.6c0,0-0.1-0.1-0.1-0.1
						c-2.2-2.1-2.2-5.5,0-7.6c0,0,0.1-0.1,0.1-0.1c2.2-2.1,2.2-5.5,0-7.6c0,0-0.1-0.1-0.1-0.1c-2.2-2.1-2.2-5.5,0-7.6
						c0,0,0.1-0.1,0.1-0.1c2.2-2.1,2.2-5.5,0-7.6c0,0-0.1-0.1-0.1-0.1c-2.2-2.1-2.2-5.5,0-7.6c0,0,0.1-0.1,0.1-0.1
						c2.2-2.1,2.2-5.5,0-7.6c0,0-0.1-0.1-0.1-0.1c-2.2-2.1-2.2-5.5,0-7.6c0,0,0.1-0.1,0.1-0.1c2.2-2.1,2.2-5.5,0-7.6l-0.1-0.1
						c-2.2-2.1-2.2-5.5,0-7.6c0,0,0.1-0.1,0.1-0.1c2.2-2.1,2.2-5.5,0-7.6c0,0-0.1-0.1-0.1-0.1c-2.2-2.1-2.2-5.5,0-7.6
						c0,0,0.1-0.1,0.1-0.1c2.2-2.1,2.2-5.5,0-7.6c0,0-0.1-0.1-0.1-0.1c-2.2-2.1-2.2-5.5,0-7.6c0,0,0.1-0.1,0.1-0.1
						c2.2-2.1,2.2-5.5,0-7.6c0,0-0.1-0.1-0.1-0.1c-2.2-2.1-2.2-5.5,0-7.6c0,0,0.1-0.1,0.1-0.1c2.2-2.1,2.2-5.5,0-7.6
						c0,0-0.1-0.1-0.1-0.1c-2.2-2.1-2.2-5.5,0-7.6c0,0,0.1-0.1,0.1-0.1c2.2-2.1,2.2-5.5,0-7.6c0,0-0.1-0.1-0.1-0.1
						c-2.2-2.1-2.2-5.5,0-7.6c0,0,0.1-0.1,0.1-0.1c2.2-2.1,2.2-5.5,0-7.6l-0.1-0.1c-2.2-2.1-2.2-5.5,0-7.6c0,0,0.1-0.1,0.1-0.1
						c2.2-2.1,2.2-5.5,0-7.6c0,0-0.1-0.1-0.1-0.1c-2.2-2.1-2.2-5.5,0-7.6c2.1-2,4.2-4,4.2-4l-4.1,0c0,0-2.1,2-4.2,4
						c-2.2,2.1-2.2,5.5,0,7.6c0,0,0.1,0.1,0.1,0.1c2.2,2.1,2.2,5.5,0,7.6c0,0-0.1,0.1-0.1,0.1c-2.2,2.1-2.2,5.5,0,7.6l0.1,0.1
						c2.2,2.1,2.2,5.5,0,7.6c0,0-0.1,0.1-0.1,0.1c-2.2,2.1-2.2,5.5,0,7.6c0,0,0.1,0.1,0.1,0.1c2.2,2.1,2.2,5.5,0,7.6
						c0,0-0.1,0.1-0.1,0.1c-2.2,2.1-2.2,5.5,0,7.6c0,0,0.1,0.1,0.1,0.1c2.2,2.1,2.2,5.5,0,7.6c0,0-0.1,0.1-0.1,0.1
						c-2.2,2.1-2.2,5.5,0,7.6c0,0,0.1,0.1,0.1,0.1c2.2,2.1,2.2,5.5,0,7.6c0,0-0.1,0.1-0.1,0.1c-2.2,2.1-2.2,5.5,0,7.6
						c0,0,0.1,0.1,0.1,0.1c2.2,2.1,2.2,5.5,0,7.6c0,0-0.1,0.1-0.1,0.1c-2.2,2.1-2.2,5.5,0,7.6c0,0,0.1,0.1,0.1,0.1
						c2.2,2.1,2.2,5.5,0,7.6c0,0-0.1,0.1-0.1,0.1c-2.2,2.1-2.2,5.5,0,7.6l0.1,0.1c2.2,2.1,2.2,5.5,0,7.6c0,0-0.1,0.1-0.1,0.1
						c-2.2,2.1-2.2,5.5,0,7.6c0,0,0.1,0.1,0.1,0.1c2.2,2.1,2.2,5.5,0,7.6c0,0-0.1,0.1-0.1,0.1c-2.2,2.1-2.2,5.5,0,7.6
						c0,0,0.1,0.1,0.1,0.1c2.2,2.1,2.2,5.5,0,7.6c0,0-0.1,0.1-0.1,0.1c-2.2,2.1-2.2,5.5,0,7.6c0,0,0.1,0.1,0.1,0.1
						c2.2,2.1,2.2,5.5,0,7.6c0,0-0.1,0.1-0.1,0.1c-2.2,2.1-2.2,5.5,0,7.6c0,0,0.1,0.1,0.1,0.1c2.2,2.1,2.2,5.5,0,7.6
						c0,0-0.1,0.1-0.1,0.1c-2.2,2.1-2.2,5.5,0,7.6c0,0,0.1,0.1,0.1,0.1c2.2,2.1,2.2,5.5,0,7.6c0,0-0.1,0.1-0.1,0.1
						c-2.2,2.1-2.2,5.5,0,7.6l4.2,4"/>
					<path class="st9" d="M55.3,222.4l-4.2-4c-2.2-2.1-2.2-5.5,0-7.6c0,0,0.1-0.1,0.1-0.1c2.2-2.1,2.2-5.5,0-7.6
						c0,0-0.1-0.1-0.1-0.1c-2.2-2.1-2.2-5.5,0-7.6c0,0,0.1-0.1,0.1-0.1c2.2-2.1,2.2-5.5,0-7.6c0,0-0.1-0.1-0.1-0.1
						c-2.2-2.1-2.2-5.5,0-7.6c0,0,0.1-0.1,0.1-0.1c2.2-2.1,2.2-5.5,0-7.6c0,0-0.1-0.1-0.1-0.1c-2.2-2.1-2.2-5.5,0-7.6
						c0,0,0.1-0.1,0.1-0.1c2.2-2.1,2.2-5.5,0-7.6c0,0-0.1-0.1-0.1-0.1c-2.2-2.1-2.2-5.5,0-7.6c0,0,0.1-0.1,0.1-0.1
						c2.2-2.1,2.2-5.5,0-7.6c0,0-0.1-0.1-0.1-0.1c-2.2-2.1-2.2-5.5,0-7.6c0,0,0.1-0.1,0.1-0.1c2.2-2.1,2.2-5.5,0-7.6l-0.1-0.1
						c-2.2-2.1-2.2-5.5,0-7.6c0,0,0.1-0.1,0.1-0.1c2.2-2.1,2.2-5.5,0-7.6c0,0-0.1-0.1-0.1-0.1c-2.2-2.1-2.2-5.5,0-7.6
						c0,0,0.1-0.1,0.1-0.1c2.2-2.1,2.2-5.5,0-7.6c0,0-0.1-0.1-0.1-0.1c-2.2-2.1-2.2-5.5,0-7.6c0,0,0.1-0.1,0.1-0.1
						c2.2-2.1,2.2-5.5,0-7.6c0,0-0.1-0.1-0.1-0.1c-2.2-2.1-2.2-5.5,0-7.6c0,0,0.1-0.1,0.1-0.1c2.2-2.1,2.2-5.5,0-7.6
						c0,0-0.1-0.1-0.1-0.1c-2.2-2.1-2.2-5.5,0-7.6c0,0,0.1-0.1,0.1-0.1c2.2-2.1,2.2-5.5,0-7.6c0,0-0.1-0.1-0.1-0.1
						c-2.2-2.1-2.2-5.5,0-7.6c0,0,0.1-0.1,0.1-0.1c2.2-2.1,2.2-5.5,0-7.6l-0.1-0.1c-2.2-2.1-2.2-5.5,0-7.6c0,0,0.1-0.1,0.1-0.1
						c2.2-2.1,2.2-5.5,0-7.6c0,0-0.1-0.1-0.1-0.1c-2.2-2.1-2.2-5.5,0-7.6c2.1-2,4.2-4,4.2-4l4.1,0c0,0-2.1,2-4.2,4
						c-2.2,2.1-2.2,5.5,0,7.6c0,0,0.1,0.1,0.1,0.1c2.2,2.1,2.2,5.5,0,7.6c0,0-0.1,0.1-0.1,0.1c-2.2,2.1-2.2,5.5,0,7.6l0.1,0.1
						c2.2,2.1,2.2,5.5,0,7.6c0,0-0.1,0.1-0.1,0.1c-2.2,2.1-2.2,5.5,0,7.6c0,0,0.1,0.1,0.1,0.1c2.2,2.1,2.2,5.5,0,7.6
						c0,0-0.1,0.1-0.1,0.1c-2.2,2.1-2.2,5.5,0,7.6c0,0,0.1,0.1,0.1,0.1c2.2,2.1,2.2,5.5,0,7.6c0,0-0.1,0.1-0.1,0.1
						c-2.2,2.1-2.2,5.5,0,7.6c0,0,0.1,0.1,0.1,0.1c2.2,2.1,2.2,5.5,0,7.6c0,0-0.1,0.1-0.1,0.1c-2.2,2.1-2.2,5.5,0,7.6
						c0,0,0.1,0.1,0.1,0.1c2.2,2.1,2.2,5.5,0,7.6c0,0-0.1,0.1-0.1,0.1c-2.2,2.1-2.2,5.5,0,7.6c0,0,0.1,0.1,0.1,0.1
						c2.2,2.1,2.2,5.5,0,7.6c0,0-0.1,0.1-0.1,0.1c-2.2,2.1-2.2,5.5,0,7.6l0.1,0.1c2.2,2.1,2.2,5.5,0,7.6c0,0-0.1,0.1-0.1,0.1
						c-2.2,2.1-2.2,5.5,0,7.6c0,0,0.1,0.1,0.1,0.1c2.2,2.1,2.2,5.5,0,7.6c0,0-0.1,0.1-0.1,0.1c-2.2,2.1-2.2,5.5,0,7.6
						c0,0,0.1,0.1,0.1,0.1c2.2,2.1,2.2,5.5,0,7.6c0,0-0.1,0.1-0.1,0.1c-2.2,2.1-2.2,5.5,0,7.6c0,0,0.1,0.1,0.1,0.1
						c2.2,2.1,2.2,5.5,0,7.6c0,0-0.1,0.1-0.1,0.1c-2.2,2.1-2.2,5.5,0,7.6c0,0,0.1,0.1,0.1,0.1c2.2,2.1,2.2,5.5,0,7.6
						c0,0-0.1,0.1-0.1,0.1c-2.2,2.1-2.2,5.5,0,7.6c0,0,0.1,0.1,0.1,0.1c2.2,2.1,2.2,5.5,0,7.6c0,0-0.1,0.1-0.1,0.1
						c-2.2,2.1-2.2,5.5,0,7.6l4.2,4"/>
					<path class="st9" d="M51.2,222.4l-4.2-4c-2.2-2.1-2.2-5.5,0-7.6c0,0,0.1-0.1,0.1-0.1c2.2-2.1,2.2-5.5,0-7.6
						c0,0-0.1-0.1-0.1-0.1c-2.2-2.1-2.2-5.5,0-7.6c0,0,0.1-0.1,0.1-0.1c2.2-2.1,2.2-5.5,0-7.6c0,0-0.1-0.1-0.1-0.1
						c-2.2-2.1-2.2-5.5,0-7.6c0,0,0.1-0.1,0.1-0.1c2.2-2.1,2.2-5.5,0-7.6c0,0-0.1-0.1-0.1-0.1c-2.2-2.1-2.2-5.5,0-7.6
						c0,0,0.1-0.1,0.1-0.1c2.2-2.1,2.2-5.5,0-7.6c0,0-0.1-0.1-0.1-0.1c-2.2-2.1-2.2-5.5,0-7.6c0,0,0.1-0.1,0.1-0.1
						c2.2-2.1,2.2-5.5,0-7.6c0,0-0.1-0.1-0.1-0.1c-2.2-2.1-2.2-5.5,0-7.6c0,0,0.1-0.1,0.1-0.1c2.2-2.1,2.2-5.5,0-7.6l-0.1-0.1
						c-2.2-2.1-2.2-5.5,0-7.6c0,0,0.1-0.1,0.1-0.1c2.2-2.1,2.2-5.5,0-7.6c0,0-0.1-0.1-0.1-0.1c-2.2-2.1-2.2-5.5,0-7.6
						c0,0,0.1-0.1,0.1-0.1c2.2-2.1,2.2-5.5,0-7.6c0,0-0.1-0.1-0.1-0.1c-2.2-2.1-2.2-5.5,0-7.6c0,0,0.1-0.1,0.1-0.1
						c2.2-2.1,2.2-5.5,0-7.6c0,0-0.1-0.1-0.1-0.1c-2.2-2.1-2.2-5.5,0-7.6c0,0,0.1-0.1,0.1-0.1c2.2-2.1,2.2-5.5,0-7.6
						c0,0-0.1-0.1-0.1-0.1c-2.2-2.1-2.2-5.5,0-7.6c0,0,0.1-0.1,0.1-0.1c2.2-2.1,2.2-5.5,0-7.6c0,0-0.1-0.1-0.1-0.1
						c-2.2-2.1-2.2-5.5,0-7.6c0,0,0.1-0.1,0.1-0.1c2.2-2.1,2.2-5.5,0-7.6L47,34.4c-2.2-2.1-2.2-5.5,0-7.6c0,0,0.1-0.1,0.1-0.1
						c2.2-2.1,2.2-5.5,0-7.6c0,0-0.1-0.1-0.1-0.1c-2.2-2.1-2.2-5.5,0-7.6c2.1-2,4.2-4,4.2-4l-4.1,0c0,0-2.1,2-4.2,4
						c-2.2,2.1-2.2,5.5,0,7.6c0,0,0.1,0.1,0.1,0.1c2.2,2.1,2.2,5.5,0,7.6c0,0-0.1,0.1-0.1,0.1c-2.2,2.1-2.2,5.5,0,7.6l0.1,0.1
						c2.2,2.1,2.2,5.5,0,7.6c0,0-0.1,0.1-0.1,0.1c-2.2,2.1-2.2,5.5,0,7.6c0,0,0.1,0.1,0.1,0.1c2.2,2.1,2.2,5.5,0,7.6
						c0,0-0.1,0.1-0.1,0.1c-2.2,2.1-2.2,5.5,0,7.6c0,0,0.1,0.1,0.1,0.1c2.2,2.1,2.2,5.5,0,7.6c0,0-0.1,0.1-0.1,0.1
						c-2.2,2.1-2.2,5.5,0,7.6c0,0,0.1,0.1,0.1,0.1c2.2,2.1,2.2,5.5,0,7.6c0,0-0.1,0.1-0.1,0.1c-2.2,2.1-2.2,5.5,0,7.6
						c0,0,0.1,0.1,0.1,0.1c2.2,2.1,2.2,5.5,0,7.6c0,0-0.1,0.1-0.1,0.1c-2.2,2.1-2.2,5.5,0,7.6c0,0,0.1,0.1,0.1,0.1
						c2.2,2.1,2.2,5.5,0,7.6c0,0-0.1,0.1-0.1,0.1c-2.2,2.1-2.2,5.5,0,7.6l0.1,0.1c2.2,2.1,2.2,5.5,0,7.6c0,0-0.1,0.1-0.1,0.1
						c-2.2,2.1-2.2,5.5,0,7.6c0,0,0.1,0.1,0.1,0.1c2.2,2.1,2.2,5.5,0,7.6c0,0-0.1,0.1-0.1,0.1c-2.2,2.1-2.2,5.5,0,7.6
						c0,0,0.1,0.1,0.1,0.1c2.2,2.1,2.2,5.5,0,7.6c0,0-0.1,0.1-0.1,0.1c-2.2,2.1-2.2,5.5,0,7.6c0,0,0.1,0.1,0.1,0.1
						c2.2,2.1,2.2,5.5,0,7.6c0,0-0.1,0.1-0.1,0.1c-2.2,2.1-2.2,5.5,0,7.6c0,0,0.1,0.1,0.1,0.1c2.2,2.1,2.2,5.5,0,7.6
						c0,0-0.1,0.1-0.1,0.1c-2.2,2.1-2.2,5.5,0,7.6c0,0,0.1,0.1,0.1,0.1c2.2,2.1,2.2,5.5,0,7.6c0,0-0.1,0.1-0.1,0.1
						c-2.2,2.1-2.2,5.5,0,7.6l4.2,4"/>
					<path class="st9" d="M42.9,222.5l-4.2-4c-2.2-2.1-2.2-5.5,0-7.6c0,0,0.1-0.1,0.1-0.1c2.2-2.1,2.2-5.5,0-7.6
						c0,0-0.1-0.1-0.1-0.1c-2.2-2.1-2.2-5.5,0-7.6c0,0,0.1-0.1,0.1-0.1c2.2-2.1,2.2-5.5,0-7.6c0,0-0.1-0.1-0.1-0.1
						c-2.2-2.1-2.2-5.5,0-7.6c0,0,0.1-0.1,0.1-0.1c2.2-2.1,2.2-5.5,0-7.6c0,0-0.1-0.1-0.1-0.1c-2.2-2.1-2.2-5.5,0-7.6
						c0,0,0.1-0.1,0.1-0.1c2.2-2.1,2.2-5.5,0-7.6c0,0-0.1-0.1-0.1-0.1c-2.2-2.1-2.2-5.5,0-7.6c0,0,0.1-0.1,0.1-0.1
						c2.2-2.1,2.2-5.5,0-7.6c0,0-0.1-0.1-0.1-0.1c-2.2-2.1-2.2-5.5,0-7.6c0,0,0.1-0.1,0.1-0.1c2.2-2.1,2.2-5.5,0-7.6l-0.1-0.1
						c-2.2-2.1-2.2-5.5,0-7.6c0,0,0.1-0.1,0.1-0.1c2.2-2.1,2.2-5.5,0-7.6c0,0-0.1-0.1-0.1-0.1c-2.2-2.1-2.2-5.5,0-7.6
						c0,0,0.1-0.1,0.1-0.1c2.2-2.1,2.2-5.5,0-7.6c0,0-0.1-0.1-0.1-0.1c-2.2-2.1-2.2-5.5,0-7.6c0,0,0.1-0.1,0.1-0.1
						c2.2-2.1,2.2-5.5,0-7.6c0,0-0.1-0.1-0.1-0.1c-2.2-2.1-2.2-5.5,0-7.6c0,0,0.1-0.1,0.1-0.1c2.2-2.1,2.2-5.5,0-7.6
						c0,0-0.1-0.1-0.1-0.1c-2.2-2.1-2.2-5.5,0-7.6c0,0,0.1-0.1,0.1-0.1c2.2-2.1,2.2-5.5,0-7.6c0,0-0.1-0.1-0.1-0.1
						c-2.2-2.1-2.2-5.5,0-7.6c0,0,0.1-0.1,0.1-0.1c2.2-2.1,2.2-5.5,0-7.6l-0.1-0.1c-2.2-2.1-2.2-5.5,0-7.6c0,0,0.1-0.1,0.1-0.1
						c2.2-2.1,2.2-5.5,0-7.6c0,0-0.1-0.1-0.1-0.1c-2.2-2.1-2.2-5.5,0-7.6c2.1-2,4.2-4,4.2-4l-4.1,0c0,0-2.1,2-4.2,4
						c-2.2,2.1-2.2,5.5,0,7.6c0,0,0.1,0.1,0.1,0.1c2.2,2.1,2.2,5.5,0,7.6c0,0-0.1,0.1-0.1,0.1c-2.2,2.1-2.2,5.5,0,7.6l0.1,0.1
						c2.2,2.1,2.2,5.5,0,7.6c0,0-0.1,0.1-0.1,0.1c-2.2,2.1-2.2,5.5,0,7.6c0,0,0.1,0.1,0.1,0.1c2.2,2.1,2.2,5.5,0,7.6
						c0,0-0.1,0.1-0.1,0.1c-2.2,2.1-2.2,5.5,0,7.6c0,0,0.1,0.1,0.1,0.1c2.2,2.1,2.2,5.5,0,7.6c0,0-0.1,0.1-0.1,0.1
						c-2.2,2.1-2.2,5.5,0,7.6c0,0,0.1,0.1,0.1,0.1c2.2,2.1,2.2,5.5,0,7.6c0,0-0.1,0.1-0.1,0.1c-2.2,2.1-2.2,5.5,0,7.6
						c0,0,0.1,0.1,0.1,0.1c2.2,2.1,2.2,5.5,0,7.6c0,0-0.1,0.1-0.1,0.1c-2.2,2.1-2.2,5.5,0,7.6c0,0,0.1,0.1,0.1,0.1
						c2.2,2.1,2.2,5.5,0,7.6c0,0-0.1,0.1-0.1,0.1c-2.2,2.1-2.2,5.5,0,7.6l0.1,0.1c2.2,2.1,2.2,5.5,0,7.6c0,0-0.1,0.1-0.1,0.1
						c-2.2,2.1-2.2,5.5,0,7.6c0,0,0.1,0.1,0.1,0.1c2.2,2.1,2.2,5.5,0,7.6c0,0-0.1,0.1-0.1,0.1c-2.2,2.1-2.2,5.5,0,7.6
						c0,0,0.1,0.1,0.1,0.1c2.2,2.1,2.2,5.5,0,7.6c0,0-0.1,0.1-0.1,0.1c-2.2,2.1-2.2,5.5,0,7.6c0,0,0.1,0.1,0.1,0.1
						c2.2,2.1,2.2,5.5,0,7.6c0,0-0.1,0.1-0.1,0.1c-2.2,2.1-2.2,5.5,0,7.6c0,0,0.1,0.1,0.1,0.1c2.2,2.1,2.2,5.5,0,7.6
						c0,0-0.1,0.1-0.1,0.1c-2.2,2.1-2.2,5.5,0,7.6c0,0,0.1,0.1,0.1,0.1c2.2,2.1,2.2,5.5,0,7.6c0,0-0.1,0.1-0.1,0.1
						c-2.2,2.1-2.2,5.5,0,7.6l4.2,4"/>
					<path class="st9" d="M30.3,223.1l-4.2-4c-2.2-2.1-2.2-5.5,0-7.6c0,0,0.1-0.1,0.1-0.1c2.2-2.1,2.2-5.5,0-7.6
						c0,0-0.1-0.1-0.1-0.1c-2.2-2.1-2.2-5.5,0-7.6c0,0,0.1-0.1,0.1-0.1c2.2-2.1,2.2-5.5,0-7.6c0,0-0.1-0.1-0.1-0.1
						c-2.2-2.1-2.2-5.5,0-7.6c0,0,0.1-0.1,0.1-0.1c2.2-2.1,2.2-5.5,0-7.6c0,0-0.1-0.1-0.1-0.1c-2.2-2.1-2.2-5.5,0-7.6
						c0,0,0.1-0.1,0.1-0.1c2.2-2.1,2.2-5.5,0-7.6c0,0-0.1-0.1-0.1-0.1c-2.2-2.1-2.2-5.5,0-7.6c0,0,0.1-0.1,0.1-0.1
						c2.2-2.1,2.2-5.5,0-7.6c0,0-0.1-0.1-0.1-0.1c-2.2-2.1-2.2-5.5,0-7.6c0,0,0.1-0.1,0.1-0.1c2.2-2.1,2.2-5.5,0-7.6l-0.1-0.1
						c-2.2-2.1-2.2-5.5,0-7.6c0,0,0.1-0.1,0.1-0.1c2.2-2.1,2.2-5.5,0-7.6c0,0-0.1-0.1-0.1-0.1c-2.2-2.1-2.2-5.5,0-7.6
						c0,0,0.1-0.1,0.1-0.1c2.2-2.1,2.2-5.5,0-7.6c0,0-0.1-0.1-0.1-0.1c-2.2-2.1-2.2-5.5,0-7.6c0,0,0.1-0.1,0.1-0.1
						c2.2-2.1,2.2-5.5,0-7.6c0,0-0.1-0.1-0.1-0.1c-2.2-2.1-2.2-5.5,0-7.6c0,0,0.1-0.1,0.1-0.1c2.2-2.1,2.2-5.5,0-7.6
						c0,0-0.1-0.1-0.1-0.1c-2.2-2.1-2.2-5.5,0-7.6c0,0,0.1-0.1,0.1-0.1c2.2-2.1,2.2-5.5,0-7.6c0,0-0.1-0.1-0.1-0.1
						c-2.2-2.1-2.2-5.5,0-7.6c0,0,0.1-0.1,0.1-0.1c2.2-2.1,2.2-5.5,0-7.6L26.1,35c-2.2-2.1-2.2-5.5,0-7.6c0,0,0.1-0.1,0.1-0.1
						c2.2-2.1,2.2-5.5,0-7.6c0,0-0.1-0.1-0.1-0.1c-2.2-2.1-2.2-5.5,0-7.6c2.1-2,4.2-4,4.2-4l4.4-0.5c0,0-2.1,2-4.2,4
						c-2.2,2.1-2.2,5.5,0,7.6c0,0,0.1,0.1,0.1,0.1c2.2,2.1,2.2,5.5,0,7.6c0,0-0.1,0.1-0.1,0.1c-2.2,2.1-2.2,5.5,0,7.6l0.1,0.1
						c2.2,2.1,2.2,5.5,0,7.6c0,0-0.1,0.1-0.1,0.1c-2.2,2.1-2.2,5.5,0,7.6c0,0,0.1,0.1,0.1,0.1c2.2,2.1,2.2,5.5,0,7.6
						c0,0-0.1,0.1-0.1,0.1c-2.2,2.1-2.2,5.5,0,7.6c0,0,0.1,0.1,0.1,0.1c2.2,2.1,2.2,5.5,0,7.6c0,0-0.1,0.1-0.1,0.1
						c-2.2,2.1-2.2,5.5,0,7.6c0,0,0.1,0.1,0.1,0.1c2.2,2.1,2.2,5.5,0,7.6c0,0-0.1,0.1-0.1,0.1c-2.2,2.1-2.2,5.5,0,7.6
						c0,0,0.1,0.1,0.1,0.1c2.2,2.1,2.2,5.5,0,7.6c0,0-0.1,0.1-0.1,0.1c-2.2,2.1-2.2,5.5,0,7.6c0,0,0.1,0.1,0.1,0.1
						c2.2,2.1,2.2,5.5,0,7.6c0,0-0.1,0.1-0.1,0.1c-2.2,2.1-2.2,5.5,0,7.6l0.1,0.1c2.2,2.1,2.2,5.5,0,7.6c0,0-0.1,0.1-0.1,0.1
						c-2.2,2.1-2.2,5.5,0,7.6c0,0,0.1,0.1,0.1,0.1c2.2,2.1,2.2,5.5,0,7.6c0,0-0.1,0.1-0.1,0.1c-2.2,2.1-2.2,5.5,0,7.6
						c0,0,0.1,0.1,0.1,0.1c2.2,2.1,2.2,5.5,0,7.6c0,0-0.1,0.1-0.1,0.1c-2.2,2.1-2.2,5.5,0,7.6c0,0,0.1,0.1,0.1,0.1
						c2.2,2.1,2.2,5.5,0,7.6c0,0-0.1,0.1-0.1,0.1c-2.2,2.1-2.2,5.5,0,7.6c0,0,0.1,0.1,0.1,0.1c2.2,2.1,2.2,5.5,0,7.6
						c0,0-0.1,0.1-0.1,0.1c-2.2,2.1-2.2,5.5,0,7.6c0,0,0.1,0.1,0.1,0.1c2.2,2.1,2.2,5.5,0,7.6c0,0-0.1,0.1-0.1,0.1
						c-2.2,2.1-2.2,5.5,0,7.6l4.2,4"/>
				</g>
			</g>
		</g>
		<g>
			<path class="st2" d="M-93.9,301.1H2.9c9,0,16.3-7.3,16.3-16.3V274c0-9-7.3-16.2-16.2-16.2h-96.9l-17.6,21.7L-93.9,301.1z"/>
			<path class="st5" d="M-92.8,257.8c-12,0-21.7,9.7-21.7,21.7c0,12,9.7,21.7,21.7,21.7c12,0,21.7-9.7,21.7-21.7
				C-71.2,267.5-80.9,257.8-92.8,257.8z M-93.1,296.2l-15.8-15.8l15.8-15.8l15.8,15.8L-93.1,296.2z"/>
			<path class="st5" d="M-74.3,301.1c12,0,21.7-9.7,21.7-21.7c0-12-9.7-21.7-21.7-21.7h-11.3c12,0,21.7,9.7,21.7,21.7
				c0,12-9.7,21.7-21.7,21.7H-74.3z"/>
			<path class="st5" d="M-54.7,301.1c12,0,21.7-9.7,21.7-21.7c0-12-9.7-21.7-21.7-21.7H-66c12,0,21.7,9.7,21.7,21.7
				c0,12-9.7,21.7-21.7,21.7H-54.7z"/>
			<path class="st5" d="M-35.1,301.1c12,0,21.7-9.7,21.7-21.7c0-12-9.7-21.7-21.7-21.7h-11.3c12,0,21.7,9.7,21.7,21.7
				c0,12-9.7,21.7-21.7,21.7H-35.1z"/>
			<path class="st5" d="M-15.5,301.1c12,0,21.7-9.7,21.7-21.7c0-12-9.7-21.7-21.7-21.7h-11.3c12,0,21.7,9.7,21.7,21.7
				c0,12-9.7,21.7-21.7,21.7H-15.5z"/>
			<path class="st5" d="M4.1,301.1c12,0,21.7-9.7,21.7-21.7c0-12-9.7-21.7-21.7-21.7H-7.2c12,0,21.7,9.7,21.7,21.7
				c0,12-9.7,21.7-21.7,21.7H4.1z"/>
			
				<rect x="-96.3" y="277.2" transform="matrix(0.7071 0.7071 -0.7071 0.7071 171.0008 147.9581)" class="st4" width="6.4" height="6.4"/>
		</g>
		<g>
			
				<rect x="73.1" y="228.8" transform="matrix(0.7071 -0.7071 0.7071 0.7071 -144.2355 165.6243)" class="st11" width="109.5" height="56.3"/>
			
				<rect x="78.7" y="233.4" transform="matrix(0.7071 -0.7071 0.7071 0.7071 -144.0618 165.6964)" class="st11" width="98.7" height="46.6"/>
			
				<rect x="83.7" y="237.8" transform="matrix(0.7071 -0.7071 0.7071 0.7071 -143.7752 165.7113)" class="st11" width="88.8" height="37.2"/>
			
				<rect x="88.7" y="242.7" transform="matrix(0.7071 -0.7071 0.7071 0.7071 -143.7235 165.6189)" class="st11" width="78.8" height="27.2"/>
			
				<rect x="93.8" y="247.7" transform="matrix(0.7071 -0.7071 0.7071 0.7071 -143.7555 165.8498)" class="st11" width="68.9" height="17.6"/>
			<polygon class="st2" points="106.7,272.9 109.3,272.9 111.8,272.9 111.8,275.5 111.8,278 109.3,278 106.7,278 106.7,275.5 			"/>
			<polygon class="st2" points="119.2,260.5 121.8,260.5 124.3,260.5 124.3,263 124.3,265.6 121.8,265.6 119.2,265.6 119.2,263 			
				"/>
			<polygon class="st2" points="131.7,248 134.2,248 136.8,248 136.8,250.5 136.8,253.1 134.2,253.1 131.7,253.1 131.7,250.5 			"/>
			<polygon class="st2" points="144.2,235.5 146.7,235.5 149.3,235.5 149.3,238.1 149.3,240.6 146.7,240.6 144.2,240.6 144.2,238.1 
							"/>
		</g>
		<g>
			
				<ellipse transform="matrix(0.7071 -0.7071 0.7071 0.7071 -74.2974 124.2653)" class="st2" cx="112.9" cy="151.8" rx="17.5" ry="17.5"/>
			<g>
				<path class="st5" d="M113.5,102.1c-26.3,0-47.6,21.3-47.6,47.6s21.3,47.6,47.6,47.6c26.3,0,47.6-21.3,47.6-47.6
					S139.7,102.1,113.5,102.1z M113,186.4l-34.6-34.6l34.6-34.6l34.6,34.6L113,186.4z"/>
				<polyline class="st17" points="98.9,122.7 70,151.7 113.5,195.2 155.9,152.7 126,122.8 				"/>
			</g>
			<g>
				<defs>
					
						<ellipse id="SVGID_00000114036029327537414680000005150062024850855350_" transform="matrix(0.9239 -0.3827 0.3827 0.9239 -29.7509 50.5414)" cx="112.2" cy="100.1" rx="24.3" ry="24.3"/>
				</defs>
				<clipPath id="SVGID_00000010294109280641065070000017009649421748403380_">
					<use xlink:href="#SVGID_00000114036029327537414680000005150062024850855350_"  style="overflow:visible;"/>
				</clipPath>
				<g style="clip-path:url(#SVGID_00000010294109280641065070000017009649421748403380_);">
					<line class="st13" x1="136.5" y1="68.3" x2="136.5" y2="136.4"/>
					<line class="st13" x1="134.1" y1="68.3" x2="134.1" y2="136.4"/>
					<line class="st13" x1="131.7" y1="68.3" x2="131.7" y2="136.4"/>
					<line class="st13" x1="129.4" y1="68.3" x2="129.4" y2="136.4"/>
					<line class="st13" x1="127" y1="68.3" x2="127" y2="136.4"/>
					<line class="st13" x1="124.6" y1="68.3" x2="124.6" y2="136.4"/>
					<line class="st13" x1="122.2" y1="68.3" x2="122.2" y2="136.4"/>
					<line class="st13" x1="119.8" y1="68.3" x2="119.8" y2="136.4"/>
					<line class="st13" x1="117.5" y1="68.3" x2="117.5" y2="136.4"/>
					<line class="st13" x1="115.1" y1="68.3" x2="115.1" y2="136.4"/>
					<line class="st13" x1="112.7" y1="68.3" x2="112.7" y2="136.4"/>
					<line class="st13" x1="110.3" y1="68.3" x2="110.3" y2="136.4"/>
					<line class="st13" x1="107.9" y1="68.3" x2="107.9" y2="136.4"/>
					<line class="st13" x1="105.6" y1="68.3" x2="105.6" y2="136.4"/>
					<line class="st13" x1="103.2" y1="68.3" x2="103.2" y2="136.4"/>
					<line class="st13" x1="100.8" y1="68.3" x2="100.8" y2="136.4"/>
					<line class="st13" x1="98.4" y1="68.3" x2="98.4" y2="136.4"/>
					<line class="st13" x1="96" y1="68.3" x2="96" y2="136.4"/>
					<line class="st13" x1="93.6" y1="68.3" x2="93.6" y2="136.4"/>
					<line class="st13" x1="91.3" y1="68.3" x2="91.3" y2="136.4"/>
					<line class="st13" x1="88.9" y1="68.3" x2="88.9" y2="136.4"/>
					<line class="st13" x1="86.5" y1="68.3" x2="86.5" y2="136.4"/>
					<line class="st13" x1="84.1" y1="68.3" x2="84.1" y2="136.4"/>
				</g>
			</g>
		</g>
	</g>
</g>
</svg>
